;TYPE=PLATED
;Layer: PTH_Through
;EasyEDA Pro v2.2.42.2, 2025-09-26 15:24:21
;Gerber Generator version 0.3
M48
METRIC,LZ,0000.00000
;Hole size 1 = 0.30480 METRIC
T01C0.30480
;Hole size 2 = 0.30500 METRIC
T02C0.30500
;Hole size 3 = 0.30500 METRIC
T03C0.30500
;Hole size 4 = 0.70002 METRIC
T04C0.70002
;Hole size 5 = 0.76200 METRIC
T05C0.76200
;Hole size 6 = 1.00000 METRIC
T06C1.00000
;Hole size 7 = 1.10002 METRIC
T07C1.10002
;Hole size 8 = 1.20000 METRIC
T08C1.20000
%
G05
G90
T01
X22.225Y-39.878
X26.10002Y-39.116
X27.305Y-32.51741
X24.003Y-32.51741
X5.07987Y-38.1
X10.16Y-26.416
X11.176Y-24.638
X14.87297Y-27.051
X4.953Y-19.431
X21.463Y-17.145
X29.591Y-3.429
X35.687Y-23.495
X34.417Y-19.05
X31.242Y-21.3823
X27.94Y-21.59
X34.925Y-15.13563
X45.339Y-19.177
X62.48604Y-13.94103
X81.153Y-17.78
X92.837Y-11.99998
X88.773Y-6.223
X93.218Y-9.25805
X97.282Y-20.955
X91.567Y-28.49695
X88.9Y-28.57787
X86.614Y-23.23803
X35.69564Y-50.546
X42.799Y-50.546
X45.466Y-53.467
X46.355Y-57.15
X47.244Y-50.038
X33.274Y-45.339
X34.417Y-40.386
X36.83Y-39.624
X61.468Y-50.292
X54.483Y-49.149
X34.29Y-34.163
X34.29Y-35.62502
X40.894Y-32.766
X40.894Y-35.306
X41.148Y-28.956
X41.148Y-30.353
X41.799Y-20.193
X43.799Y-22.37262
X45.07306Y-23.241
X49.022Y-22.098
X54.737Y-25.146
X49.784Y-23.38197
X57.21502Y-24.003
X54.737Y-19.49958
X47.752Y-28.575
X45.974Y-30.353
X52.451Y-28.321
X52.324Y-30.12694
X54.60136Y-30.988
X47.879Y-41.656
X49.21402Y-41.656
X50.292Y-36.322
X47.117Y-35.687
X53.086Y-59.182
X52.832Y-51.054
X53.34Y-46.92498
X52.07Y-50.038
X61.976Y-57.785
X62.103Y-60.325
X60.01258Y-59.817
X61.468Y-51.562
X13.208Y-38.04158
X75.565Y-60.325
X78.613Y-58.801
X82.423Y-24.511
X78.994Y-25.019
X81.47202Y-29.337
X79.121Y-30.099
X76.6379Y-42.2209
X63.881Y-49.276
X63.68898Y-46.355
X70.866Y-38.80002
X71.12Y-37.338
X74.93Y-37.084
X74.803Y-35.56
X74.803Y-42.799
X81.534Y-36.068
X82.48396Y-39.116
X79.48616Y-40.65584
X87.249Y-42.053
X89.34298Y-43.307
X91.186Y-45.75816
X82.13369Y-49.55972
X84.455Y-51.689
X84.8499Y-49.45413
X95.758Y-52.435
X87.884Y-57.785
X87.884Y-50.673
X48.006Y-46.101
X84.328Y-56.134
X34.671Y-43.307
X95.123Y-57.785
X93.472Y-58.166
X91.186Y-51.92903
X73.93417Y-56.515
X73.93417Y-54.61
X75.438Y-53.848
X75.438Y-56.261
T02
X78.232Y-18.542
X18.415Y-14.224
X83.37702Y-18.923
X87.376Y-18.542
X19.23898Y-16.002
X92.837Y-13.462
X97.29597Y-26.543
X11.1686Y-21.336
X8.17695Y-20.828
X15.494Y-18.034
X6.731Y-30.09603
X23.749Y-37.973
T03
X8.255Y-56.99768
X20.574Y-57.785
X17.78Y-53.8099
X20.574Y-55.499
X21.844Y-48.895
X27.432Y-44.95259
X24.13Y-44.95259
T04
X70.01408Y-43.307
X65.11392Y-43.307
T05
X80.137Y-5.715
X82.637Y-5.715
X77.637Y-5.715
X23.495Y-27.813
X25.995Y-27.813
X20.99501Y-27.813
T06
X71.4628Y-9.6934
X71.4628Y-12.2334
X71.4628Y-17.3134
X71.4628Y-22.3934
X24.003Y-8.763
X21.463Y-8.763
X16.383Y-8.763
X11.303Y-8.763
T07
X4.064Y-46.37507
X4.064Y-48.87498
X4.064Y-56.02707
X4.064Y-58.52698
X15.29414Y-51.54386
X15.29414Y-49.00384
X15.29406Y-46.46386
X53.721Y-16.256
X51.181Y-16.256
X48.641Y-16.256
X97.028Y-39.17607
X97.028Y-41.67607
X97.028Y-44.17606
X97.028Y-46.67606
X57.404Y-33.528
X57.404Y-36.068
X57.404Y-38.608
X57.404Y-41.148
X42.99293Y-58.42
X40.49293Y-58.42
X37.99294Y-58.42
X35.49294Y-58.42
X37.73805Y-5.334
X40.23995Y-5.334
T08
X11.43Y-48.93701
X11.43Y-60.53699
X48.74976Y-5.03119
X53.74977Y-5.03119
X51.24978Y-7.53118
X56.24977Y-7.53118
X48.74976Y-10.03118
X53.74977Y-10.03118
M30