G04 Layer: TopLayer*
G04 EasyEDA Pro v2.2.42.2, 2025-09-26 15:24:21*
G04 Gerber Generator version 0.3*
G04 Scale: 100 percent, Rotated: No, Reflected: No*
G04 Dimensions in millimeters*
G04 Leading zeros omitted, absolute positions, 4 integers and 5 decimals*
G04 Generated by one-click*
%FSLAX45Y45*%
%MOMM*%
%ADD10C,1.5*%
%ADD11R,0.8X0.9*%
%ADD12R,0.9X0.8*%
%ADD13R,1.41X1.35001*%
%ADD14R,1.35001X1.41*%
%ADD15R,1.5X1.3589*%
%ADD16R,1.8X1.8*%
%ADD17C,1.8*%
%ADD18R,1.2X1.0*%
%ADD19R,1.0031X1.2*%
%ADD20R,1.0X1.2*%
%ADD21C,2.0*%
%ADD22R,1.6X3.89999*%
%ADD23R,0.8X0.86401*%
%ADD24R,0.86401X0.8*%
%ADD25R,1.0X1.39954*%
%ADD26O,0.63X1.865*%
%ADD27R,1.7X1.7*%
%ADD28C,1.7*%
%ADD29R,0.86401X0.80648*%
%ADD30R,0.80648X0.86401*%
%ADD31R,1.37701X1.13254*%
%ADD32C,1.524*%
%ADD33R,1.13254X1.37701*%
%ADD34O,2.0X0.3*%
%ADD35O,0.3X2.0*%
%ADD36R,1.6X1.6*%
%ADD37C,1.6*%
%ADD38R,1.1X2.79999*%
%ADD39R,2.47X0.98001*%
%ADD40R,2.47X3.59999*%
%ADD41O,0.3556X1.8148*%
%ADD42O,0.58801X2.045*%
%ADD43R,0.6X1.1*%
%ADD44R,1.6X1.524*%
%ADD45O,0.28001X1.62001*%
%ADD46O,1.97099X0.60201*%
%ADD47R,2.0X1.8*%
%ADD48R,0.98001X2.47*%
%ADD49R,3.59999X2.47*%
%ADD50R,1.8X0.8*%
%ADD51R,3.09999X1.8*%
%ADD52R,0.44801X0.75001*%
%ADD53R,1.4X1.2*%
%ADD54O,0.60201X1.97099*%
%ADD55R,1.2X3.49999*%
%ADD56R,1.1X2.49999*%
%ADD57R,3.59999X2.34*%
%ADD58R,2.49999X1.1*%
%ADD59R,2.34X3.59999*%
%ADD60O,0.36401X1.662*%
%ADD61R,1.524X1.6*%
%ADD62O,0.5684X1.95021*%
%ADD63R,0.40599X1.397*%
%ADD64C,0.61*%
%ADD65C,0.6096*%
%ADD66C,1.27*%
%ADD67C,0.762*%
%ADD68C,0.254*%
%ADD69C,0.508*%
%ADD70C,0.2032*%
G75*


G04 Pad Start*
G54D10*
G01X5873208Y-1067180D03*
G54D11*
G01X4184498Y-2324100D03*
G01X4324502Y-2324100D03*
G54D12*
G01X3530600Y-3562502D03*
G01X3530600Y-3422498D03*
G54D11*
G01X4921402Y-4076700D03*
G01X4781398Y-4076700D03*
G54D13*
G01X4179900Y-2133600D03*
G01X4379900Y-2133600D03*
G54D14*
G01X4394200Y-1716100D03*
G01X4394200Y-1916100D03*
G01X3616634Y-1713563D03*
G01X3616634Y-1513563D03*
G54D11*
G01X8337702Y-1778000D03*
G01X8197698Y-1778000D03*
G54D13*
G01X8677215Y-780448D03*
G01X8877215Y-780448D03*
G54D12*
G01X9194800Y-1340002D03*
G01X9194800Y-1199998D03*
G54D11*
G01X1923898Y-1714500D03*
G01X2063902Y-1714500D03*
G54D13*
G01X1687297Y-2598715D03*
G01X1487297Y-2598715D03*
G54D11*
G01X7486498Y-3098800D03*
G01X7626502Y-3098800D03*
G54D12*
G01X7810500Y-3676802D03*
G01X7810500Y-3536798D03*
G54D11*
G01X8718702Y-5067300D03*
G01X8578698Y-5067300D03*
G01X8578698Y-5778500D03*
G01X8718702Y-5778500D03*
G01X7434148Y-4177759D03*
G01X7574153Y-4177759D03*
G54D15*
G01X7676490Y-4383750D03*
G01X7436510Y-4383750D03*
G54D16*
G01X406400Y-4637507D03*
G54D17*
G01X406400Y-4887493D03*
G54D16*
G01X406400Y-5602707D03*
G54D17*
G01X406400Y-5852693D03*
G54D18*
G01X7772400Y-1076909D03*
G01X7772400Y-1386891D03*
G54D20*
G01X9146591Y-1854200D03*
G01X8836609Y-1854200D03*
G54D18*
G01X2451100Y-2415591D03*
G01X2451100Y-2105609D03*
G54D21*
G01X1143000Y-4893691D03*
G01X1143000Y-6053709D03*
G54D22*
G01X4163212Y-1701800D03*
G01X3863188Y-1701800D03*
G54D23*
G01X3905110Y-4305300D03*
G01X4045090Y-4305300D03*
G01X3905110Y-4140200D03*
G01X4045090Y-4140200D03*
G54D22*
G01X6729567Y-461340D03*
G01X7029592Y-461340D03*
G01X7394743Y-2239340D03*
G01X7694767Y-2239340D03*
G01X2690012Y-1257300D03*
G01X2389988Y-1257300D03*
G01X1132688Y-1346200D03*
G01X1432712Y-1346200D03*
G54D23*
G01X6877190Y-3683000D03*
G01X6737210Y-3683000D03*
G01X6877190Y-3517900D03*
G01X6737210Y-3517900D03*
G01X6877190Y-3352800D03*
G01X6737210Y-3352800D03*
G01X7855090Y-5461000D03*
G01X7715110Y-5461000D03*
G01X7855090Y-5626100D03*
G01X7715110Y-5626100D03*
G01X7855090Y-5130800D03*
G01X7715110Y-5130800D03*
G01X7855090Y-5295900D03*
G01X7715110Y-5295900D03*
G01X5073510Y-5727700D03*
G01X5213490Y-5727700D03*
G01X5073510Y-5562600D03*
G01X5213490Y-5562600D03*
G01X5071868Y-5396948D03*
G01X5211848Y-5396948D03*
G01X5073510Y-5232400D03*
G01X5213490Y-5232400D03*
G54D24*
G01X2120900Y-4070210D03*
G01X2120900Y-4210190D03*
G01X1790700Y-4070210D03*
G01X1790700Y-4210190D03*
G01X1955800Y-4070210D03*
G01X1955800Y-4210190D03*
G01X1625600Y-4070210D03*
G01X1625600Y-4210190D03*
G54D23*
G01X3384410Y-2908300D03*
G01X3524390Y-2908300D03*
G01X3384410Y-3238500D03*
G01X3524390Y-3238500D03*
G01X3384410Y-2743200D03*
G01X3524390Y-2743200D03*
G01X3384410Y-3073400D03*
G01X3524390Y-3073400D03*
G54D25*
G01X5559171Y-3060700D03*
G01X5769229Y-3060700D03*
G54D26*
G01X2311400Y-4494251D03*
G01X2184400Y-4494251D03*
G01X2057400Y-4494251D03*
G01X1930400Y-4494251D03*
G01X2311400Y-5030749D03*
G01X2184400Y-5030749D03*
G01X2057400Y-5030749D03*
G01X1930400Y-5030749D03*
G54D27*
G01X1529406Y-5154381D03*
G54D28*
G01X1529406Y-4900381D03*
G01X1529406Y-4646381D03*
G54D29*
G01X4406900Y-4458564D03*
G01X4406900Y-4609236D03*
G01X4241800Y-4458564D03*
G01X4241800Y-4609236D03*
G54D30*
G01X5614264Y-2832100D03*
G01X5764936Y-2832100D03*
G54D31*
G01X8026400Y-1331900D03*
G01X8026400Y-1131900D03*
G54D32*
G01X8013687Y-571500D03*
G01X8263700Y-571500D03*
G01X7763701Y-571500D03*
G54D31*
G01X2209800Y-2147900D03*
G01X2209800Y-2347900D03*
G54D32*
G01X2349487Y-2781300D03*
G01X2599500Y-2781300D03*
G01X2099501Y-2781300D03*
G54D33*
G01X8790000Y-3797300D03*
G01X8990000Y-3797300D03*
G54D30*
G01X8573364Y-5245100D03*
G01X8724036Y-5245100D03*
G01X8573364Y-5600700D03*
G01X8724036Y-5600700D03*
G01X7860436Y-5791200D03*
G01X7709764Y-5791200D03*
G54D34*
G01X5007280Y-2812694D03*
G01X5007280Y-2862707D03*
G01X5007280Y-2912694D03*
G01X5007280Y-2962707D03*
G01X5007280Y-3012694D03*
G01X5007280Y-3062707D03*
G01X5007280Y-3112694D03*
G01X5007280Y-3162706D03*
G01X5007280Y-3212694D03*
G01X5007280Y-3262706D03*
G01X5007280Y-3312693D03*
G01X5007280Y-3362706D03*
G01X5007280Y-3412693D03*
G01X5007280Y-3462706D03*
G01X5007280Y-3512693D03*
G01X5007280Y-3562706D03*
G54D35*
G01X4807306Y-3762680D03*
G01X4757293Y-3762680D03*
G01X4707306Y-3762680D03*
G01X4657293Y-3762680D03*
G01X4607306Y-3762680D03*
G01X4557293Y-3762680D03*
G01X4507306Y-3762680D03*
G01X4457294Y-3762680D03*
G01X4407306Y-3762680D03*
G01X4357294Y-3762680D03*
G01X4307307Y-3762680D03*
G01X4257294Y-3762680D03*
G01X4207307Y-3762680D03*
G01X4157294Y-3762680D03*
G01X4107307Y-3762680D03*
G01X4057294Y-3762680D03*
G54D34*
G01X3857320Y-3562706D03*
G01X3857320Y-3512693D03*
G01X3857320Y-3462706D03*
G01X3857320Y-3412693D03*
G01X3857320Y-3362706D03*
G01X3857320Y-3312693D03*
G01X3857320Y-3262706D03*
G01X3857320Y-3212694D03*
G01X3857320Y-3162706D03*
G01X3857320Y-3112694D03*
G01X3857320Y-3062707D03*
G01X3857320Y-3012694D03*
G01X3857320Y-2962707D03*
G01X3857320Y-2912694D03*
G01X3857320Y-2862707D03*
G01X3857320Y-2812694D03*
G54D35*
G01X4057294Y-2612720D03*
G01X4107307Y-2612720D03*
G01X4157294Y-2612720D03*
G01X4207307Y-2612720D03*
G01X4257294Y-2612720D03*
G01X4307307Y-2612720D03*
G01X4357294Y-2612720D03*
G01X4407306Y-2612720D03*
G01X4457294Y-2612720D03*
G01X4507306Y-2612720D03*
G01X4557293Y-2612720D03*
G01X4607306Y-2612720D03*
G01X4657293Y-2612720D03*
G01X4707306Y-2612720D03*
G01X4757293Y-2612720D03*
G01X4807306Y-2612720D03*
G54D17*
G01X4874966Y-503131D03*
G01X5374965Y-503131D03*
G01X5124978Y-753118D03*
G01X5624977Y-753118D03*
G01X4874966Y-1003130D03*
G01X5374965Y-1003130D03*
G54D36*
G01X5372100Y-1625600D03*
G54D37*
G01X5118100Y-1625600D03*
G01X4864100Y-1625600D03*
G01X7146280Y-969340D03*
G01X7146280Y-1223340D03*
G01X7146280Y-1731340D03*
G01X7146280Y-2239340D03*
G54D38*
G01X6244580Y-879488D03*
G01X6244580Y-1211593D03*
G54D39*
G01X8339811Y-1116203D03*
G01X8339811Y-1346200D03*
G01X8339811Y-1576197D03*
G54D40*
G01X8906789Y-1346200D03*
G54D37*
G01X2400300Y-876300D03*
G01X2146300Y-876300D03*
G01X1638300Y-876300D03*
G01X1130300Y-876300D03*
G54D38*
G01X2959100Y-864552D03*
G01X2959100Y-532447D03*
G54D39*
G01X1921789Y-2363597D03*
G01X1921789Y-2133600D03*
G01X1921789Y-1903603D03*
G54D40*
G01X1354811Y-2133600D03*
G54D41*
G01X7664450Y-3354019D03*
G01X7600950Y-3354019D03*
G01X7537450Y-3354019D03*
G01X7473950Y-3354019D03*
G01X7410450Y-3354019D03*
G01X7346950Y-3354019D03*
G01X7283450Y-3354019D03*
G01X7219950Y-3354019D03*
G01X7664450Y-3884981D03*
G01X7600950Y-3884981D03*
G01X7537450Y-3884981D03*
G01X7473950Y-3884981D03*
G01X7410450Y-3884981D03*
G01X7346950Y-3884981D03*
G01X7283450Y-3884981D03*
G01X7219950Y-3884981D03*
G54D42*
G01X8280400Y-2656459D03*
G01X8153400Y-2656459D03*
G01X8026400Y-2656459D03*
G01X7899400Y-2656459D03*
G01X8280400Y-3210941D03*
G01X8153400Y-3210941D03*
G01X8026400Y-3210941D03*
G01X7899400Y-3210941D03*
G54D43*
G01X8248396Y-4003510D03*
G01X8058404Y-4003510D03*
G01X8058404Y-3743490D03*
G01X8153400Y-3743490D03*
G01X8248396Y-3743490D03*
G54D37*
G01X9702800Y-3917594D03*
G01X9702800Y-4167607D03*
G01X9702800Y-4417593D03*
G54D44*
G01X9702800Y-4667606D03*
G54D45*
G01X8167700Y-5621198D03*
G01X8217713Y-5621198D03*
G01X8267700Y-5621198D03*
G01X8317713Y-5621198D03*
G01X8367700Y-5621198D03*
G01X8167700Y-5199202D03*
G01X8217713Y-5199202D03*
G01X8267700Y-5199202D03*
G01X8317713Y-5199202D03*
G01X8367700Y-5199202D03*
G54D46*
G01X5454142Y-5029200D03*
G01X5454142Y-5156200D03*
G01X5454142Y-5283200D03*
G01X5454142Y-5410200D03*
G01X5454142Y-5537200D03*
G01X5454142Y-5664200D03*
G01X5454142Y-5791200D03*
G01X5454142Y-5918200D03*
G01X6001258Y-5029200D03*
G01X6001258Y-5156200D03*
G01X6001258Y-5283200D03*
G01X6001258Y-5410200D03*
G01X6001258Y-5537200D03*
G01X6001258Y-5664200D03*
G01X6001258Y-5791200D03*
G01X6001258Y-5918200D03*
G54D47*
G01X6373404Y-5778500D03*
G01X6373404Y-6032500D03*
G01X7393417Y-6032500D03*
G01X7393417Y-5778500D03*
G54D48*
G01X2894203Y-2353589D03*
G01X3124200Y-2353589D03*
G01X3354197Y-2353589D03*
G54D49*
G01X3124200Y-1786611D03*
G54D50*
G01X3682627Y-4041584D03*
G01X3682627Y-4166603D03*
G01X3682627Y-4291597D03*
G01X3682627Y-4416590D03*
G54D51*
G01X3429376Y-3786594D03*
G01X3429376Y-4671606D03*
G54D27*
G01X5740400Y-3352800D03*
G54D28*
G01X5740400Y-3606800D03*
G01X5740400Y-3860800D03*
G01X5740400Y-4114800D03*
G54D52*
G01X3964305Y-5147099D03*
G01X3884295Y-5147097D03*
G01X3884295Y-4962101D03*
G01X3964305Y-4962101D03*
G54D30*
G01X4572864Y-4610100D03*
G01X4723536Y-4610100D03*
G01X3720236Y-5143500D03*
G01X3569564Y-5143500D03*
G01X4128364Y-5143500D03*
G01X4279036Y-5143500D03*
G54D11*
G01X5581498Y-2514600D03*
G01X5721502Y-2514600D03*
G54D53*
G01X5329707Y-2338197D03*
G01X5109693Y-2338197D03*
G01X5109693Y-2513203D03*
G01X5329707Y-2513203D03*
G54D13*
G01X7694600Y-1854200D03*
G01X7494600Y-1854200D03*
G54D14*
G01X1651000Y-1357300D03*
G01X1651000Y-1157300D03*
G54D11*
G01X8718702Y-5422900D03*
G01X8578698Y-5422900D03*
G54D54*
G01X2298700Y-3257042D03*
G01X2171700Y-3257042D03*
G01X2044700Y-3257042D03*
G01X1917700Y-3257042D03*
G01X1790700Y-3257042D03*
G01X1663700Y-3257042D03*
G01X1536700Y-3257042D03*
G01X1409700Y-3257042D03*
G01X2298700Y-3804158D03*
G01X2171700Y-3804158D03*
G01X2044700Y-3804158D03*
G01X1917700Y-3804158D03*
G01X1790700Y-3804158D03*
G01X1663700Y-3804158D03*
G01X1536700Y-3804158D03*
G01X1409700Y-3804158D03*
G54D55*
G01X8775687Y-2857787D03*
G01X8775687Y-2323803D03*
G01X507987Y-3543587D03*
G01X507987Y-3009603D03*
G54D30*
G01X8636864Y-571500D03*
G01X8787536Y-571500D03*
G54D56*
G01X9269603Y-2849695D03*
G01X9499600Y-2849695D03*
G01X9729597Y-2849695D03*
G54D57*
G01X9499600Y-2255703D03*
G54D58*
G01X817695Y-2642997D03*
G01X817695Y-2413000D03*
G01X817695Y-2183003D03*
G54D59*
G01X223703Y-2413000D03*
G54D11*
G01X9086698Y-4737100D03*
G01X9226702Y-4737100D03*
G54D29*
G01X7810500Y-4012336D03*
G01X7810500Y-3861664D03*
G54D30*
G01X8901836Y-4737100D03*
G01X8751164Y-4737100D03*
G54D60*
G01X9000211Y-4079494D03*
G01X8935187Y-4079494D03*
G01X8870188Y-4079494D03*
G01X8805189Y-4079494D03*
G01X9000211Y-4505706D03*
G01X8935187Y-4505706D03*
G01X8870188Y-4505706D03*
G01X8805189Y-4505706D03*
G54D37*
G01X4299306Y-5842000D03*
G01X4049293Y-5842000D03*
G01X3799307Y-5842000D03*
G54D61*
G01X3549294Y-5842000D03*
G54D17*
G01X3773805Y-533400D03*
G01X4023995Y-533400D03*
G54D37*
G01X7001408Y-4330700D03*
G01X6511392Y-4330700D03*
G54D10*
G01X3613019Y-2068690D03*
G01X3128890Y-1522590D03*
G01X9443930Y-1338285D03*
G01X817413Y-1913781D03*
G01X6248604Y-1535763D03*
G01X9449004Y-925805D03*
G01X393904Y-1896930D03*
G01X7249598Y-2994514D03*
G54D31*
G01X2501900Y-5319700D03*
G01X2501900Y-5119700D03*
G54D62*
G01X2311400Y-5380990D03*
G01X2184400Y-5380990D03*
G01X2057400Y-5380990D03*
G01X1930400Y-5380990D03*
G01X2311400Y-5922010D03*
G01X2184400Y-5922010D03*
G01X2057400Y-5922010D03*
G01X1930400Y-5922010D03*
G54D11*
G01X8057998Y-4203700D03*
G01X8198002Y-4203700D03*
G54D29*
G01X8432800Y-3734664D03*
G01X8432800Y-3885336D03*
G54D30*
G01X8203336Y-4394200D03*
G01X8052664Y-4394200D03*
G54D33*
G01X8790000Y-3581400D03*
G01X8990000Y-3581400D03*
G54D10*
G01X822265Y-5902968D03*
G01X2489402Y-5919112D03*
G01X2501664Y-4885685D03*
G54D31*
G01X9702800Y-5043500D03*
G01X9702800Y-5243500D03*
G54D12*
G01X8407400Y-4400702D03*
G01X8407400Y-4260698D03*
G54D31*
G01X8610600Y-4205300D03*
G01X8610600Y-4405300D03*
G01X9194800Y-4379900D03*
G01X9194800Y-4179900D03*
G54D63*
G01X9393911Y-5192903D03*
G01X9328912Y-5192903D03*
G01X9263888Y-5192903D03*
G01X9198889Y-5192903D03*
G01X9198889Y-5652897D03*
G01X9263888Y-5652897D03*
G01X9328912Y-5652897D03*
G01X9393911Y-5652897D03*
G04 Pad End*

G04 Via Start*
G54D64*
G01X7823200Y-1854200D03*
G01X1841500Y-1422400D03*
G01X8337702Y-1892300D03*
G01X8737600Y-1854200D03*
G01X1923898Y-1600200D03*
G01X9283700Y-1346200D03*
G01X9729597Y-2654300D03*
G01X1116860Y-2133600D03*
G01X817695Y-2082800D03*
G01X1549400Y-1803400D03*
G01X673100Y-3009603D03*
G01X2374900Y-3797300D03*
G01X825500Y-5699768D03*
G01X2057400Y-5778500D03*
G01X1778000Y-5380990D03*
G01X2057400Y-5549900D03*
G01X2184400Y-4889500D03*
G01X2743200Y-4495259D03*
G01X2413000Y-4495259D03*
G54D65*
G01X2222500Y-3987800D03*
G01X2610002Y-3911600D03*
G01X2730500Y-3251741D03*
G01X2400300Y-3251741D03*
G01X507987Y-3810000D03*
G01X1016000Y-2641600D03*
G01X1117600Y-2463800D03*
G01X1487297Y-2705100D03*
G01X495300Y-1943100D03*
G01X2146300Y-1714500D03*
G01X2959100Y-342900D03*
G01X3568700Y-2349500D03*
G01X3441700Y-1905000D03*
G01X3124200Y-2138230D03*
G01X2794000Y-2159000D03*
G01X3492500Y-1513563D03*
G01X4533900Y-1917700D03*
G01X6248604Y-1394103D03*
G01X8115300Y-1778000D03*
G01X9283700Y-1199998D03*
G01X8877300Y-622300D03*
G01X9321800Y-925805D03*
G01X9728200Y-2095500D03*
G01X9156700Y-2849695D03*
G01X8890000Y-2857787D03*
G01X8661400Y-2323803D03*
G01X3569564Y-5054600D03*
G01X4279900Y-5054600D03*
G01X4546600Y-5346700D03*
G01X4635500Y-5715000D03*
G01X4724400Y-5003800D03*
G01X3327400Y-4533900D03*
G01X3441700Y-4038600D03*
G01X3683000Y-3962400D03*
G01X6146800Y-5029200D03*
G01X5448300Y-4914900D03*
G01X3429000Y-3416300D03*
G01X3429000Y-3562502D03*
G01X4089400Y-3276600D03*
G01X4089400Y-3530600D03*
G01X4114800Y-2895600D03*
G01X4114800Y-3035300D03*
G01X4179900Y-2019300D03*
G01X4379900Y-2237262D03*
G01X4507306Y-2324100D03*
G01X4902200Y-2209800D03*
G01X5473700Y-2514600D03*
G01X4978400Y-2338197D03*
G01X5721502Y-2400300D03*
G01X5473700Y-1949958D03*
G01X4775200Y-2857500D03*
G01X4597400Y-3035300D03*
G01X5245100Y-2832100D03*
G01X5232400Y-3012694D03*
G01X5460136Y-3098800D03*
G01X4787900Y-4165600D03*
G01X4921402Y-4165600D03*
G01X5029200Y-3632200D03*
G01X4711700Y-3568700D03*
G01X5308600Y-5918200D03*
G01X5283200Y-5105400D03*
G01X5334000Y-4692498D03*
G01X5207000Y-5003800D03*
G01X6197600Y-5778500D03*
G01X6210300Y-6032500D03*
G01X6001258Y-5981700D03*
G01X6146800Y-5156200D03*
G01X1320800Y-3804158D03*
G01X7556500Y-6032500D03*
G01X7861300Y-5880100D03*
G01X8242300Y-2451100D03*
G01X7899400Y-2501900D03*
G01X8147202Y-2933700D03*
G01X7912100Y-3009900D03*
G01X7663790Y-4222090D03*
G01X6388100Y-4927600D03*
G01X6368898Y-4635500D03*
G01X7086600Y-3880002D03*
G01X7112000Y-3733800D03*
G01X7493000Y-3708400D03*
G01X7480300Y-3556000D03*
G01X7480300Y-4279900D03*
G01X8153400Y-3606800D03*
G01X8248396Y-3911600D03*
G01X7948616Y-4065584D03*
G01X8724900Y-4205300D03*
G01X8934298Y-4330700D03*
G01X9118600Y-4575816D03*
G01X8213369Y-4955972D03*
G01X8445500Y-5168900D03*
G01X8484990Y-4945413D03*
G01X9575800Y-5243500D03*
G01X8788400Y-5778500D03*
G01X8788400Y-5067300D03*
G01X4800600Y-4610100D03*
G01X8432800Y-5613400D03*
G01X3467100Y-4330700D03*
G01X9512300Y-5778500D03*
G01X9347200Y-5816600D03*
G01X9118600Y-5192903D03*
G01X7393417Y-5651500D03*
G01X7393417Y-5461000D03*
G01X7543800Y-5384800D03*
G01X7543800Y-5626100D03*
G04 Via End*

G04 Track Start*
G54D66*
G01X5374965Y-1003130D02*
G01X5809159Y-1003130D01*
G01X5873208Y-1067180D01*
G01X5374965Y-1003130D02*
G01X5120795Y-1257300D01*
G01X3074353Y-864552D02*
G01X2959100Y-864552D01*
G01X5120795Y-1257300D02*
G01X3467100Y-1257300D01*
G01X3074353Y-864552D01*
G01X2959100Y-864552D02*
G01X2959100Y-1143000D01*
G01X2844800Y-1257300D01*
G01X2690012Y-1257300D01*
G01X2389988Y-1257300D02*
G01X2400300Y-1246988D01*
G01X2400300Y-876300D01*
G01X5873208Y-1067180D02*
G01X6060901Y-879488D01*
G01X6244580Y-879488D01*
G01X6244580Y-524520D01*
G01X6311900Y-457200D01*
G01X6725427Y-457200D01*
G01X6729567Y-461340D01*
G01X7029592Y-461340D02*
G01X7146280Y-578028D01*
G01X7146280Y-969340D01*
G01X7146280Y-2239340D02*
G01X7394743Y-2239340D01*
G01X7694767Y-2239340D02*
G01X7694767Y-1854368D01*
G01X7694600Y-1854200D02*
G01X7823200Y-1854200D01*
G01X1130300Y-876300D02*
G01X1130300Y-1343812D01*
G01X1132688Y-1346200D01*
G01X1432712Y-1346200D02*
G01X1443812Y-1357300D01*
G01X1651000Y-1357300D01*
G01X1651000Y-1157300D02*
G01X1651000Y-889000D01*
G01X1638300Y-876300D01*
G01X1651000Y-1357300D02*
G01X1776400Y-1357300D01*
G01X1841500Y-1422400D01*
G54D67*
G01X8337702Y-1778000D02*
G01X8337702Y-1578305D01*
G01X8339811Y-1576197D01*
G01X8337702Y-1778000D02*
G01X8337702Y-1892300D01*
G01X8836609Y-1854200D02*
G01X8737600Y-1854200D01*
G01X1923898Y-1714500D02*
G01X1923898Y-1901495D01*
G01X1921789Y-1903603D01*
G01X1923898Y-1714500D02*
G01X1923898Y-1600200D01*
G01X8026400Y-1331900D02*
G01X8040700Y-1346200D01*
G01X8339811Y-1346200D01*
G01X8906789Y-1346200D01*
G01X8026400Y-1331900D02*
G01X7827391Y-1331900D01*
G01X7772400Y-1386891D01*
G01X8906789Y-1346200D02*
G01X9188602Y-1346200D01*
G01X9194800Y-1340002D01*
G01X9200998Y-1346200D01*
G01X9283700Y-1346200D01*
G01X9729597Y-2849695D02*
G01X9729597Y-2654300D01*
G54D68*
G01X9283700Y-1346200D02*
G01X9436015Y-1346200D01*
G01X9443930Y-1338285D01*
G54D67*
G01X2209800Y-2147900D02*
G01X2408809Y-2147900D01*
G01X1921789Y-2133600D02*
G01X2209800Y-2133600D01*
G01X2408809Y-2147900D02*
G01X2451100Y-2105609D01*
G01X1921789Y-2133600D02*
G01X1354811Y-2133600D01*
G01X1092200Y-2133600D02*
G01X1028700Y-2197100D01*
G01X831792Y-2197100D01*
G01X817695Y-2183003D01*
G01X1354811Y-2133600D02*
G01X1092200Y-2133600D01*
G01X817695Y-2183003D02*
G01X817695Y-2082800D01*
G54D68*
G01X817695Y-2082800D02*
G01X817695Y-1914063D01*
G01X817413Y-1913781D01*
G54D66*
G01X507987Y-3009603D02*
G01X507987Y-2413054D01*
G01X817695Y-2413000D02*
G01X507934Y-2413000D01*
G01X223703Y-2413000D01*
G01X507987Y-3009603D02*
G01X673100Y-3009603D01*
G54D68*
G01X2374900Y-3797300D02*
G01X2305558Y-3797300D01*
G01X2298700Y-3804158D01*
G54D69*
G01X1143000Y-4893691D02*
G01X1522716Y-4893691D01*
G01X1529406Y-4900381D01*
G01X1930400Y-5922010D02*
G01X1921510Y-5930900D01*
G01X822265Y-5902968D02*
G01X825500Y-5899733D01*
G01X825500Y-5699768D01*
G01X1574800Y-5930900D02*
G01X1529406Y-5885506D01*
G01X1529406Y-5154381D01*
G01X1921510Y-5930900D02*
G01X1574800Y-5930900D01*
G01X1529406Y-4900381D02*
G01X1611081Y-4900381D01*
G01X1676400Y-4965700D01*
G01X1676400Y-5613400D01*
G01X1739900Y-5676900D01*
G01X2133600Y-5676900D01*
G01X2184400Y-5727700D01*
G01X2184400Y-5922010D01*
G01X2057400Y-5922010D02*
G01X2057400Y-5778500D01*
G01X1930400Y-5380990D02*
G01X1778000Y-5380990D01*
G01X2057400Y-5380990D02*
G01X2057400Y-5549900D01*
G01X2184400Y-5030749D02*
G01X2184400Y-4889500D01*
G01X2184400Y-5380990D02*
G01X2184400Y-5524500D01*
G01X2222500Y-5562600D01*
G01X2451100Y-5562600D01*
G01X2501900Y-5511800D01*
G01X2501900Y-5319700D01*
G01X2311400Y-5380990D02*
G01X2311400Y-5245100D01*
G01X2273300Y-5207000D01*
G01X2095500Y-5207000D01*
G01X2057400Y-5168900D01*
G01X2057400Y-5030749D01*
G01X2311400Y-5030749D02*
G01X2478049Y-5030749D01*
G01X2501900Y-5054600D01*
G01X2413000Y-4495259D02*
G01X2312408Y-4495259D01*
G01X2311400Y-4494251D01*
G54D68*
G01X2184400Y-4494251D02*
G01X2184400Y-4273690D01*
G01X2120900Y-4210190D01*
G01X2120900Y-4070210D02*
G01X2120900Y-4038600D01*
G01X2044700Y-3962400D02*
G01X2044700Y-3804158D01*
G01X2120900Y-4038600D02*
G01X2044700Y-3962400D01*
G01X2057400Y-4494251D02*
G01X2057400Y-4622800D01*
G01X2019300Y-4660900D01*
G01X1828800Y-4660900D02*
G01X1790700Y-4622800D01*
G01X1790700Y-4210190D01*
G01X2019300Y-4660900D02*
G01X1828800Y-4660900D01*
G01X1790700Y-4070210D02*
G01X1790700Y-3804158D01*
G01X1930400Y-4494251D02*
G01X1930400Y-4235590D01*
G01X1955800Y-4210190D01*
G01X1955800Y-4070210D02*
G01X1917700Y-4032110D01*
G01X1917700Y-3804158D01*
G01X1663700Y-3804158D02*
G01X1663700Y-4032110D01*
G01X1625600Y-4070210D01*
G01X1625600Y-4305300D02*
G01X1651000Y-4330700D01*
G01X1625600Y-4210190D02*
G01X1625600Y-4305300D01*
G01X1651000Y-4330700D02*
G01X1701800Y-4330700D01*
G01X1727200Y-4356100D01*
G01X1727200Y-4699000D01*
G01X1765300Y-4737100D01*
G01X1892300Y-4737100D01*
G01X1930400Y-4775200D01*
G01X1930400Y-5030749D01*
G01X2486504Y-5922010D02*
G01X2489402Y-5919112D01*
G54D69*
G01X2599690Y-5922010D02*
G01X2654300Y-5867400D01*
G01X2311400Y-5922010D02*
G01X2486504Y-5922010D01*
G01X2599690Y-5922010D01*
G01X2501900Y-5054600D02*
G01X2501900Y-5119700D01*
G01X2478049Y-5030749D02*
G01X2501664Y-5007135D01*
G01X2501664Y-4885685D01*
G01X2654300Y-5867400D02*
G01X2654300Y-4546600D01*
G01X2603500Y-4495800D01*
G01X2413541Y-4495800D01*
G01X2413000Y-4495259D01*
G54D68*
G01X2171700Y-3804158D02*
G01X2171700Y-3937000D01*
G01X2222500Y-3987800D01*
G01X2400300Y-3251741D02*
G01X2304001Y-3251741D01*
G01X2298700Y-3257042D01*
G54D69*
G01X2171700Y-3257042D02*
G01X2171700Y-3365500D01*
G01X2209800Y-3403600D01*
G01X2692400Y-3403600D01*
G01X2730500Y-3365500D01*
G01X2730500Y-3251741D01*
G54D66*
G01X507987Y-3543587D02*
G01X507987Y-3810000D01*
G54D67*
G01X817695Y-2642997D02*
G01X1014603Y-2642997D01*
G01X1016000Y-2641600D01*
G01X1487297Y-2598715D02*
G01X1487297Y-2705100D01*
G01X495300Y-1943100D02*
G01X440074Y-1943100D01*
G01X393904Y-1896930D01*
G01X1687297Y-2598715D02*
G01X1871685Y-2598715D01*
G01X1921789Y-2548611D02*
G01X1921789Y-2363597D01*
G01X1871685Y-2598715D02*
G01X1921789Y-2548611D01*
G01X1921789Y-2363597D02*
G01X2194103Y-2363597D01*
G01X2209800Y-2347900D01*
G01X2383409Y-2347900D01*
G01X2451100Y-2415591D01*
G01X2099501Y-2781300D02*
G01X2209800Y-2671000D01*
G01X2209800Y-2347900D01*
G01X2349487Y-2781300D02*
G01X2599500Y-2781300D01*
G01X2063902Y-1714500D02*
G01X2146300Y-1714500D01*
G54D66*
G01X2959100Y-532447D02*
G01X2223453Y-532447D01*
G01X2146300Y-609600D01*
G01X2146300Y-876300D01*
G54D67*
G01X2959100Y-532447D02*
G01X2959100Y-342900D01*
G01X3616634Y-1713563D02*
G01X3616634Y-2065076D01*
G01X3613019Y-2068690D01*
G01X3613019Y-2305181D01*
G01X3568700Y-2349500D01*
G01X3358286Y-2349500D01*
G01X3354197Y-2353589D01*
G01X3124200Y-1786611D02*
G01X3124200Y-1527280D01*
G01X3128890Y-1522590D01*
G01X3124200Y-2353589D02*
G01X3124200Y-2138230D01*
G01X3124200Y-1786611D01*
G01X2894203Y-2353589D02*
G01X2794000Y-2253386D01*
G01X2794000Y-2159000D01*
G01X3616634Y-1713563D02*
G01X3851425Y-1713563D01*
G01X3863188Y-1701800D01*
G01X3616634Y-1513563D02*
G01X3492500Y-1513563D01*
G01X4787900Y-1701800D02*
G01X4864100Y-1625600D01*
G01X4163212Y-1701800D02*
G01X4787900Y-1701800D01*
G01X4394200Y-1916100D02*
G01X4532300Y-1916100D01*
G01X4533900Y-1917700D01*
G01X6248604Y-1215617D02*
G01X6244580Y-1211593D01*
G01X6248604Y-1535763D02*
G01X6248604Y-1394103D01*
G01X6248604Y-1215617D01*
G54D66*
G01X7146280Y-1731340D02*
G01X7269140Y-1854200D01*
G01X7494600Y-1854200D01*
G54D67*
G01X8197698Y-1778000D02*
G01X8115300Y-1778000D01*
G01X9194800Y-1199998D02*
G01X9283700Y-1199998D01*
G01X8339811Y-1116203D02*
G01X8042097Y-1116203D01*
G01X8026400Y-1131900D01*
G01X7827391Y-1131900D01*
G01X7772400Y-1076909D01*
G01X7772400Y-580199D01*
G01X7763701Y-571500D01*
G01X8013687Y-571500D02*
G01X8263700Y-571500D01*
G01X8636864Y-571500D01*
G01X8339811Y-1116203D02*
G01X8339811Y-842289D01*
G01X8407400Y-774700D01*
G01X8671467Y-774700D01*
G01X8677215Y-780448D01*
G01X8787536Y-571500D02*
G01X8826500Y-571500D01*
G01X8877300Y-622300D01*
G01X8877300Y-780363D01*
G01X9449004Y-925805D02*
G01X9321800Y-925805D01*
G01X9146591Y-1854200D02*
G01X9194800Y-1805991D01*
G01X9194800Y-1340002D01*
G01X8775687Y-2857787D02*
G01X8890000Y-2857787D01*
G01X9269603Y-2849695D02*
G01X9156700Y-2849695D01*
G01X9499600Y-2849695D02*
G01X9499600Y-2255703D01*
G01X8843787Y-2255703D01*
G01X8775687Y-2323803D01*
G01X8661400Y-2323803D01*
G54D68*
G01X4560097Y-4202903D02*
G01X4394997Y-4202903D01*
G01X4356100Y-4241800D01*
G01X4378163Y-4162263D02*
G01X4543263Y-4162263D01*
G01X4315460Y-4224966D02*
G01X4378163Y-4162263D01*
G01X4304030Y-4696866D02*
G01X4233748Y-4767148D01*
G01X4241800Y-4609236D02*
G01X4304030Y-4671466D01*
G01X4304030Y-4696866D01*
G01X4233748Y-4767148D02*
G01X3976478Y-4767148D01*
G01X3964305Y-5147099D02*
G01X3964305Y-5210000D01*
G01X3884295Y-5147097D02*
G01X3884295Y-5209997D01*
G01X3964305Y-5210000D02*
G01X3944620Y-5229685D01*
G01X3944620Y-5737327D02*
G01X4049293Y-5842000D01*
G01X3884295Y-5209997D02*
G01X3903980Y-5229682D01*
G01X3903980Y-5737327D02*
G01X3799307Y-5842000D01*
G01X3944620Y-5229685D02*
G01X3944620Y-5737327D01*
G01X3903980Y-5229682D02*
G01X3903980Y-5737327D01*
G01X3884295Y-5147097D02*
G01X3723833Y-5147097D01*
G01X3720236Y-5143500D01*
G01X3964305Y-5147099D02*
G01X4124764Y-5147099D01*
G01X4128364Y-5143500D01*
G01X4543263Y-4162263D02*
G01X4607306Y-4098220D01*
G01X4607306Y-3762680D01*
G01X4657293Y-3762680D02*
G01X4657293Y-4105707D01*
G01X4560097Y-4202903D01*
G01X4356100Y-4407764D02*
G01X4406900Y-4458564D01*
G01X4356100Y-4241800D02*
G01X4356100Y-4407764D01*
G01X4315460Y-4384904D02*
G01X4315460Y-4224966D01*
G01X4241800Y-4458564D02*
G01X4315460Y-4384904D01*
G01X4250582Y-4807788D02*
G01X3993312Y-4807788D01*
G01X4344670Y-4713700D02*
G01X4250582Y-4807788D01*
G01X4344670Y-4671466D02*
G01X4344670Y-4713700D01*
G01X4406900Y-4609236D02*
G01X4344670Y-4671466D01*
G01X3884295Y-4859331D02*
G01X3884295Y-4962101D01*
G01X3976478Y-4767148D02*
G01X3884295Y-4859331D01*
G01X3993312Y-4807788D02*
G01X3964305Y-4836795D01*
G01X3964305Y-4962101D01*
G01X4406900Y-4609236D02*
G01X4572000Y-4609236D01*
G01X4572864Y-4610100D01*
G54D67*
G01X3569564Y-5143500D02*
G01X3569564Y-5054600D01*
G01X4279036Y-5143500D02*
G01X4279900Y-5142636D01*
G01X4279900Y-5054600D01*
G01X3429376Y-4671606D02*
G01X3327400Y-4569630D01*
G01X3327400Y-4533900D01*
G01X3429376Y-3786594D02*
G01X3441700Y-3798918D01*
G01X3441700Y-4038600D01*
G01X3682627Y-4041584D02*
G01X3682627Y-3962773D01*
G01X3683000Y-3962400D01*
G54D69*
G01X6001258Y-5029200D02*
G01X6146800Y-5029200D01*
G01X5448300Y-4914900D02*
G01X5448300Y-5023358D01*
G01X5454142Y-5029200D01*
G54D70*
G01X4045090Y-4140200D02*
G01X4229100Y-4140200D01*
G01X4257294Y-4112006D02*
G01X4257294Y-3762680D01*
G01X4229100Y-4140200D02*
G01X4257294Y-4112006D01*
G01X4307307Y-3762680D02*
G01X4307307Y-4125493D01*
G01X4254500Y-4178300D01*
G01X4152900Y-4178300D01*
G01X4114800Y-4216400D02*
G01X4114800Y-4267200D01*
G01X4076700Y-4305300D01*
G01X4045090Y-4305300D01*
G01X4152900Y-4178300D02*
G01X4114800Y-4216400D01*
G01X3682627Y-4166603D02*
G01X3878707Y-4166603D01*
G01X3905110Y-4140200D01*
G01X3682627Y-4291597D02*
G01X3891407Y-4291597D01*
G01X3905110Y-4305300D01*
G01X3530600Y-3422498D02*
G01X3524402Y-3416300D01*
G01X3429000Y-3416300D01*
G01X3530600Y-3562502D02*
G01X3429000Y-3562502D01*
G01X3530600Y-3562502D02*
G01X3857117Y-3562502D01*
G01X3857320Y-3562706D01*
G01X3857320Y-3512693D02*
G01X3677793Y-3512693D01*
G01X3587598Y-3422498D02*
G01X3530600Y-3422498D01*
G01X3677793Y-3512693D02*
G01X3587598Y-3422498D01*
G01X3857320Y-3462706D02*
G01X4068394Y-3462706D01*
G01X4089400Y-3441700D01*
G01X4089400Y-3276600D01*
G01X4114800Y-2895600D02*
G01X4081907Y-2862707D01*
G01X3857320Y-2862707D01*
G01X3857320Y-2912694D02*
G01X4042994Y-2912694D01*
G01X4114800Y-2984500D02*
G01X4114800Y-3035300D01*
G01X4042994Y-2912694D02*
G01X4114800Y-2984500D01*
G01X4207307Y-2612720D02*
G01X4207307Y-2346909D01*
G01X4184498Y-2324100D01*
G01X4184498Y-2138197D01*
G01X4179900Y-2133600D01*
G01X4179900Y-2019300D01*
G01X4257294Y-2612720D02*
G01X4257294Y-2391308D01*
G01X4324502Y-2324100D01*
G01X4379900Y-2268703D01*
G01X4379900Y-2237262D01*
G01X4379900Y-2133600D01*
G01X4507306Y-2612720D02*
G01X4507306Y-2324100D01*
G01X5581498Y-2514600D02*
G01X5473700Y-2514600D01*
G01X5329707Y-2513203D02*
G01X5472303Y-2513203D01*
G01X5473700Y-2514600D01*
G01X5109693Y-2513203D02*
G01X5034890Y-2438400D01*
G01X4607306Y-2466594D02*
G01X4607306Y-2612720D01*
G01X5034890Y-2438400D02*
G01X4635500Y-2438400D01*
G01X4607306Y-2466594D01*
G01X5109693Y-2338197D02*
G01X4978400Y-2338197D01*
G01X5721502Y-2514600D02*
G01X5721502Y-2400300D01*
G01X4820006Y-2812694D02*
G01X5007280Y-2812694D01*
G01X4807306Y-2612720D02*
G01X4807306Y-2825394D01*
G01X4775200Y-2857500D01*
G01X4807306Y-2825394D02*
G01X4820006Y-2812694D01*
G01X5007280Y-2862707D02*
G01X5214493Y-2862707D01*
G01X5245100Y-2832100D01*
G01X5007280Y-2912694D02*
G01X5533669Y-2912694D01*
G01X5614264Y-2832100D01*
G01X5764936Y-2832100D02*
G01X5769229Y-2836393D01*
G01X5769229Y-3060700D01*
G01X5007280Y-3012694D02*
G01X5232400Y-3012694D01*
G01X5460136Y-3098800D02*
G01X5521071Y-3098800D01*
G01X5559171Y-3060700D01*
G01X5138293Y-3512693D02*
G01X5007280Y-3512693D01*
G01X5168900Y-3543300D02*
G01X5138293Y-3512693D01*
G01X5168900Y-4254500D02*
G01X5168900Y-3543300D01*
G01X5073510Y-5232400D02*
G01X5073510Y-4349890D01*
G01X5168900Y-4254500D01*
G01X4757293Y-3762680D02*
G01X4757293Y-4052595D01*
G01X4781398Y-4076700D01*
G01X4807306Y-3762680D02*
G01X4807306Y-3943706D01*
G01X4921402Y-4057802D02*
G01X4921402Y-4076700D01*
G01X4807306Y-3943706D02*
G01X4921402Y-4057802D01*
G01X4921402Y-4076700D02*
G01X4921402Y-4165600D01*
G01X4781398Y-4076700D02*
G01X4787900Y-4083202D01*
G01X4787900Y-4165600D01*
G01X5073510Y-5562600D02*
G01X4991100Y-5480190D01*
G01X5118100Y-3759200D02*
G01X5080000Y-3721100D01*
G01X4991100Y-3721100D01*
G01X4991100Y-5480190D02*
G01X4991100Y-4343400D01*
G01X5118100Y-4216400D01*
G01X5118100Y-3759200D01*
G01X4991100Y-3721100D02*
G01X4851400Y-3581400D01*
G01X4888882Y-3462706D02*
G01X5007280Y-3462706D01*
G01X4851400Y-3500188D02*
G01X4888882Y-3462706D01*
G01X4851400Y-3581400D02*
G01X4851400Y-3500188D01*
G01X5073510Y-5727700D02*
G01X4940300Y-5594490D01*
G01X4829607Y-3412693D02*
G01X5007280Y-3412693D01*
G01X4940300Y-5594490D02*
G01X4940300Y-4318000D01*
G01X5067300Y-4191000D01*
G01X5067300Y-3860800D01*
G01X4800600Y-3594100D01*
G01X4800600Y-3441700D01*
G01X4829607Y-3412693D01*
G01X5166106Y-3362706D02*
G01X5007280Y-3362706D01*
G01X5219700Y-3416300D02*
G01X5166106Y-3362706D01*
G01X5219700Y-4292600D02*
G01X5219700Y-3416300D01*
G01X5071868Y-5396948D02*
G01X5143500Y-5325316D01*
G01X5143500Y-4368800D01*
G01X5219700Y-4292600D01*
G01X5007280Y-3562706D02*
G01X5007280Y-3610280D01*
G01X5029200Y-3632200D01*
G01X5213490Y-5232400D02*
G01X5264290Y-5283200D01*
G01X5454142Y-5283200D01*
G01X5454142Y-5410200D02*
G01X5225100Y-5410200D01*
G01X5211848Y-5396948D01*
G01X5213490Y-5562600D02*
G01X5238890Y-5537200D01*
G01X5454142Y-5537200D01*
G01X5213490Y-5727700D02*
G01X5276990Y-5664200D01*
G01X5454142Y-5664200D01*
G01X4707306Y-3762680D02*
G01X4707306Y-3573094D01*
G01X4711700Y-3568700D01*
G54D69*
G01X5454142Y-5918200D02*
G01X5308600Y-5918200D01*
G01X5454142Y-5156200D02*
G01X5334000Y-5156200D01*
G01X5283200Y-5105400D01*
G54D70*
G01X5007280Y-3312693D02*
G01X5230393Y-3312693D01*
G01X5270500Y-3352800D01*
G01X5270500Y-4343400D01*
G01X5207000Y-4406900D02*
G01X5207000Y-5003800D01*
G01X5270500Y-4343400D02*
G01X5207000Y-4406900D01*
G01X6197600Y-5778500D02*
G01X6373404Y-5778500D01*
G54D69*
G01X6373404Y-6032500D02*
G01X6210300Y-6032500D01*
G01X6001258Y-5156200D02*
G01X6146800Y-5156200D01*
G01X1409700Y-3804158D02*
G01X1320800Y-3804158D01*
G01X1409700Y-3257042D02*
G01X1409700Y-3365500D01*
G01X1447800Y-3403600D01*
G01X2133600Y-3403600D01*
G01X2171700Y-3365500D01*
G54D70*
G01X3384410Y-3073400D02*
G01X2082800Y-3073400D01*
G01X2044700Y-3111500D01*
G01X2044700Y-3257042D01*
G01X3384410Y-2908300D02*
G01X3270110Y-3022600D01*
G01X1968500Y-3022600D02*
G01X1917700Y-3073400D01*
G01X1917700Y-3257042D01*
G01X3270110Y-3022600D02*
G01X1968500Y-3022600D01*
G01X3384410Y-2743200D02*
G01X3289300Y-2743200D01*
G01X3263900Y-2768600D01*
G01X3263900Y-2921000D01*
G01X3213100Y-2971800D01*
G01X1854200Y-2971800D01*
G01X1790700Y-3035300D01*
G01X1790700Y-3257042D01*
G01X3384410Y-3238500D02*
G01X3454400Y-3168510D01*
G01X3454400Y-2679700D01*
G01X3416300Y-2641600D01*
G01X3263900Y-2641600D01*
G01X3213100Y-2692400D01*
G01X1701800Y-2921000D02*
G01X1663700Y-2959100D01*
G01X1663700Y-3257042D01*
G01X3213100Y-2692400D02*
G01X3213100Y-2870200D01*
G01X3162300Y-2921000D01*
G01X1701800Y-2921000D01*
G01X3524390Y-2743200D02*
G01X3670300Y-2743200D01*
G01X3695700Y-2768600D01*
G01X3695700Y-2984500D01*
G01X3723894Y-3012694D02*
G01X3857320Y-3012694D01*
G01X3695700Y-2984500D02*
G01X3723894Y-3012694D01*
G01X3857320Y-3112694D02*
G01X3684194Y-3112694D01*
G01X3644900Y-3073400D02*
G01X3644900Y-2946400D01*
G01X3606800Y-2908300D02*
G01X3524390Y-2908300D01*
G01X3684194Y-3112694D02*
G01X3644900Y-3073400D01*
G01X3644900Y-2946400D02*
G01X3606800Y-2908300D01*
G01X3857320Y-3162706D02*
G01X3613696Y-3162706D01*
G01X3524390Y-3073400D01*
G01X3857320Y-3212694D02*
G01X3550196Y-3212694D01*
G01X3524390Y-3238500D01*
G54D69*
G01X7393417Y-6032500D02*
G01X7556500Y-6032500D01*
G54D70*
G01X6001258Y-5410200D02*
G01X7124700Y-5410200D01*
G01X7860436Y-5791200D02*
G01X7861300Y-5792064D01*
G01X7861300Y-5880100D01*
G01X7170873Y-5364027D02*
G01X7170873Y-5186227D01*
G01X7226300Y-5130800D01*
G01X7124700Y-5410200D02*
G01X7170873Y-5364027D01*
G01X7226300Y-5130800D02*
G01X7715110Y-5130800D01*
G01X6001258Y-5664200D02*
G01X6096000Y-5664200D01*
G01X7239000Y-5549900D02*
G01X7747000Y-5549900D01*
G01X7785100Y-5511800D01*
G01X7785100Y-5365890D01*
G01X7715110Y-5295900D01*
G01X5892800Y-5283200D02*
G01X6001258Y-5283200D01*
G01X5854700Y-5245100D02*
G01X5892800Y-5283200D01*
G01X5854700Y-4838700D02*
G01X5854700Y-5245100D01*
G01X5880100Y-4813300D02*
G01X5854700Y-4838700D01*
G01X6083300Y-4813300D02*
G01X5880100Y-4813300D01*
G01X6121400Y-4775200D02*
G01X6083300Y-4813300D01*
G01X6170561Y-3683000D02*
G01X6121400Y-3732161D01*
G01X6737210Y-3683000D02*
G01X6170561Y-3683000D01*
G01X6121400Y-3732161D02*
G01X6121400Y-4775200D01*
G01X6001258Y-5410200D02*
G01X5867400Y-5410200D01*
G01X5816600Y-5359400D01*
G01X5816600Y-4800600D01*
G01X5842000Y-4775200D01*
G01X6019800Y-4775200D01*
G01X6070600Y-4724400D01*
G01X6070600Y-3594100D01*
G01X6146800Y-3517900D02*
G01X6737210Y-3517900D01*
G01X6070600Y-3594100D02*
G01X6146800Y-3517900D01*
G54D68*
G01X8242300Y-2451100D02*
G01X8191500Y-2451100D01*
G01X8153400Y-2489200D01*
G01X8153400Y-2656459D01*
G54D69*
G01X7899400Y-2656459D02*
G01X7899400Y-2501900D01*
G54D68*
G01X7912100Y-3009900D02*
G01X8001000Y-3009900D01*
G01X8026400Y-3035300D01*
G01X8026400Y-3210941D01*
G01X7912100Y-3009900D02*
G01X7518400Y-3009900D01*
G01X7486498Y-3041802D02*
G01X7486498Y-3086100D01*
G01X7518400Y-3009900D02*
G01X7486498Y-3041802D01*
G54D70*
G01X7486498Y-3086100D02*
G01X7473950Y-3098648D01*
G01X7473950Y-3354019D01*
G01X7626502Y-3098800D02*
G01X7664450Y-3136748D01*
G01X7664450Y-3354019D01*
G01X7600950Y-3354019D02*
G01X7600950Y-3498850D01*
G01X7638898Y-3536798D02*
G01X7810500Y-3536798D01*
G01X7600950Y-3498850D02*
G01X7638898Y-3536798D01*
G01X7537450Y-3354019D02*
G01X7537450Y-3651250D01*
G01X7569200Y-3683000D01*
G01X7804302Y-3683000D01*
G01X7810500Y-3676802D01*
G01X7810500Y-3861664D01*
G01X7810500Y-4012336D02*
G01X7912964Y-4012336D01*
G01X7937500Y-3987800D01*
G01X7937500Y-3771900D01*
G01X7962900Y-3746500D01*
G01X8055394Y-3746500D01*
G01X8058404Y-3743490D01*
G01X7473950Y-3884981D02*
G01X7473950Y-4032250D01*
G01X7574153Y-4132453D02*
G01X7574153Y-4177759D01*
G01X7473950Y-4032250D02*
G01X7574153Y-4132453D01*
G54D67*
G01X7434148Y-4177759D02*
G01X7434148Y-4381388D01*
G01X7436510Y-4383750D01*
G54D70*
G01X7001408Y-4187292D02*
G01X7001408Y-4330700D01*
G01X7035800Y-4152900D02*
G01X7001408Y-4187292D01*
G01X7346950Y-3884981D02*
G01X7346950Y-4070350D01*
G01X7264400Y-4152900D01*
G01X7035800Y-4152900D01*
G01X6511392Y-4330700D02*
G01X6511392Y-4143908D01*
G01X6553200Y-4102100D01*
G01X7226300Y-4102100D01*
G01X7283450Y-4044950D02*
G01X7283450Y-3884981D01*
G01X7226300Y-4102100D02*
G01X7283450Y-4044950D01*
G01X7086600Y-3880002D02*
G01X7214972Y-3880002D01*
G01X7219950Y-3884981D01*
G01X6877190Y-3352800D02*
G01X7218731Y-3352800D01*
G01X7219950Y-3354019D01*
G01X6877190Y-3517900D02*
G01X7239000Y-3517900D01*
G01X7283450Y-3473450D02*
G01X7283450Y-3354019D01*
G01X7239000Y-3517900D02*
G01X7283450Y-3473450D01*
G01X6877190Y-3683000D02*
G01X6978790Y-3581400D01*
G01X7346950Y-3536950D02*
G01X7346950Y-3354019D01*
G01X6978790Y-3581400D02*
G01X7302500Y-3581400D01*
G01X7346950Y-3536950D01*
G01X7112000Y-3733800D02*
G01X7366000Y-3733800D01*
G01X7410450Y-3778250D02*
G01X7410450Y-3884981D01*
G01X7366000Y-3733800D02*
G01X7410450Y-3778250D01*
G01X7473950Y-3884981D02*
G01X7473950Y-3727450D01*
G01X7493000Y-3708400D01*
G01X7410450Y-3354019D02*
G01X7410450Y-3524250D01*
G01X7442200Y-3556000D02*
G01X7480300Y-3556000D01*
G01X7410450Y-3524250D02*
G01X7442200Y-3556000D01*
G01X7249598Y-2994514D02*
G01X7439209Y-2994514D01*
G01X7486498Y-3041802D01*
G01X8153400Y-3743490D02*
G01X8153400Y-3606800D01*
G01X8248396Y-3743490D02*
G01X8423974Y-3743490D01*
G01X8432800Y-3734664D01*
G01X8248396Y-4003510D02*
G01X8248396Y-3911600D01*
G01X8058404Y-4388460D02*
G01X8052664Y-4394200D01*
G01X8058404Y-4003510D02*
G01X8058404Y-4388460D01*
G01X8198002Y-4203700D02*
G01X8305800Y-4203700D01*
G01X8331200Y-4178300D01*
G01X8331200Y-3924300D01*
G01X8370164Y-3885336D02*
G01X8432800Y-3885336D01*
G01X8331200Y-3924300D02*
G01X8370164Y-3885336D01*
G54D69*
G01X8432800Y-3734664D02*
G01X8609736Y-3734664D01*
G01X8661400Y-3683000D01*
G01X8788400Y-3683000D01*
G01X8990000Y-3581400D02*
G01X8990000Y-3797300D01*
G54D70*
G01X8935187Y-4079494D02*
G01X8935187Y-3929913D01*
G01X8991600Y-3873500D01*
G01X8991600Y-3798900D01*
G01X8990000Y-3797300D01*
G01X8870188Y-4079494D02*
G01X8870188Y-3942588D01*
G01X8790000Y-3862400D02*
G01X8790000Y-3797300D01*
G01X8870188Y-3942588D02*
G01X8790000Y-3862400D01*
G54D69*
G01X8790000Y-3581400D02*
G01X8790000Y-3797300D01*
G01X8407400Y-4260698D02*
G01X8462797Y-4205300D01*
G01X8610600Y-4205300D01*
G01X8724900Y-4205300D01*
G54D70*
G01X8805189Y-4079494D02*
G01X8805189Y-4125011D01*
G01X8724900Y-4205300D01*
G01X8407400Y-4400702D02*
G01X8606003Y-4400702D01*
G01X8610600Y-4405300D01*
G01X8788400Y-4405300D01*
G01X8805189Y-4422089D01*
G01X8805189Y-4505706D01*
G01X8203336Y-4394200D02*
G01X8203336Y-4520336D01*
G01X8229600Y-4546600D01*
G01X8636000Y-4546600D01*
G01X8661400Y-4572000D01*
G01X8661400Y-4787900D01*
G01X8699500Y-4826000D01*
G01X8851900Y-4826000D01*
G01X8901836Y-4776064D02*
G01X8901836Y-4737100D01*
G01X8851900Y-4826000D02*
G01X8901836Y-4776064D01*
G01X8901836Y-4737100D02*
G01X9086698Y-4737100D01*
G01X8751164Y-4737100D02*
G01X8870188Y-4618076D01*
G01X8870188Y-4505706D01*
G01X9000211Y-4079494D02*
G01X9000211Y-4186911D01*
G01X9017000Y-4203700D01*
G01X9171000Y-4203700D01*
G01X9194800Y-4179900D01*
G01X9000211Y-4505706D02*
G01X9000211Y-4410989D01*
G01X9029700Y-4381500D01*
G01X9193200Y-4381500D01*
G01X9194800Y-4379900D01*
G01X8934298Y-4330700D02*
G01X8934298Y-4504817D01*
G01X8935187Y-4505706D01*
G54D69*
G01X8990000Y-3797300D02*
G01X9582506Y-3797300D01*
G01X9702800Y-3917594D01*
G54D70*
G01X8267700Y-5199202D02*
G01X8267700Y-5010302D01*
G01X8213369Y-4955972D01*
G01X8317713Y-5199202D02*
G01X8367700Y-5199202D01*
G01X8415198Y-5199202D01*
G01X8445500Y-5168900D01*
G54D69*
G01X9702800Y-5243500D02*
G01X9575800Y-5243500D01*
G01X9702800Y-5043500D02*
G01X9702800Y-4667606D01*
G01X8718702Y-5778500D02*
G01X8788400Y-5778500D01*
G01X8718702Y-5067300D02*
G01X8788400Y-5067300D01*
G01X8573364Y-5600700D02*
G01X8573364Y-5773166D01*
G01X8578698Y-5778500D01*
G01X8573364Y-5600700D02*
G01X8718702Y-5455361D01*
G01X8718702Y-5422900D01*
G54D70*
G01X8267700Y-5621198D02*
G01X8267700Y-5448300D01*
G01X8293100Y-5422900D01*
G01X8578698Y-5422900D01*
G54D69*
G01X8578698Y-5067300D02*
G01X8578698Y-5422900D01*
G54D70*
G01X8317713Y-5621198D02*
G01X8317713Y-5752313D01*
G01X8343900Y-5778500D01*
G01X8578698Y-5778500D01*
G01X7855090Y-5626100D02*
G01X8162798Y-5626100D01*
G01X8167700Y-5621198D01*
G01X7855090Y-5461000D02*
G01X8191500Y-5461000D01*
G01X8216900Y-5486400D01*
G01X8216900Y-5620385D01*
G01X8217713Y-5621198D01*
G01X7855090Y-5295900D02*
G01X7886700Y-5295900D01*
G01X8217713Y-5307787D02*
G01X8217713Y-5199202D01*
G01X7886700Y-5295900D02*
G01X7937500Y-5346700D01*
G01X8178800Y-5346700D01*
G01X8217713Y-5307787D01*
G01X7855090Y-5130800D02*
G01X8099298Y-5130800D01*
G01X8167700Y-5199202D01*
G01X4723536Y-4610100D02*
G01X4800600Y-4610100D01*
G01X8432800Y-5613400D02*
G01X8375498Y-5613400D01*
G01X8367700Y-5621198D01*
G54D69*
G01X3682627Y-4416590D02*
G01X3514890Y-4416590D01*
G01X3467100Y-4368800D01*
G01X3467100Y-4330700D01*
G54D67*
G01X7574153Y-4177759D02*
G01X7619459Y-4177759D01*
G01X7663790Y-4222090D01*
G01X7663790Y-4371050D01*
G01X7676490Y-4383750D01*
G54D69*
G01X6001258Y-5918200D02*
G01X6001258Y-5981700D01*
G54D70*
G01X9393911Y-5652897D02*
G01X9393911Y-5761711D01*
G01X9410700Y-5778500D01*
G01X9512300Y-5778500D01*
G01X9263888Y-5652897D02*
G01X9328912Y-5652897D01*
G01X9263888Y-5652897D02*
G01X9263888Y-5760212D01*
G01X9232900Y-5791200D01*
G01X8902700Y-5791200D01*
G01X8877300Y-5765800D01*
G01X8877300Y-5626100D01*
G01X8851900Y-5600700D01*
G01X8724036Y-5600700D01*
G01X9328912Y-5192903D02*
G01X9393911Y-5192903D01*
G01X9328912Y-5192903D02*
G01X9328912Y-5301488D01*
G01X9296400Y-5334000D01*
G01X8812936Y-5334000D01*
G01X8724036Y-5245100D01*
G01X9198889Y-5192903D02*
G01X9118600Y-5192903D01*
G01X9263888Y-5192903D02*
G01X9263888Y-4947412D01*
G01X9283700Y-4927600D01*
G01X9423400Y-4927600D01*
G01X9461500Y-4889500D01*
G01X9461500Y-4203700D01*
G01X9497593Y-4167607D01*
G01X9702800Y-4167607D01*
G01X9198889Y-5652897D02*
G01X9198889Y-5431511D01*
G01X9232900Y-5397500D01*
G01X9474200Y-5397500D01*
G01X9512300Y-5359400D01*
G01X9565107Y-4417593D02*
G01X9702800Y-4417593D01*
G01X9512300Y-5359400D02*
G01X9512300Y-4470400D01*
G01X9565107Y-4417593D01*
G01X6737210Y-3352800D02*
G01X6108700Y-3352800D01*
G01X6019800Y-3441700D01*
G01X6019800Y-4635500D01*
G01X5943600Y-4711700D01*
G01X5816600Y-4711700D01*
G01X5753100Y-4775200D01*
G01X5753100Y-5499100D01*
G01X5791200Y-5537200D01*
G01X6001258Y-5537200D01*
G01X7393417Y-5778500D02*
G01X7697064Y-5778500D01*
G01X7709764Y-5791200D01*
G01X7393417Y-5778500D02*
G01X7393417Y-5651500D01*
G01X7393417Y-5461000D02*
G01X7715110Y-5461000D01*
G01X7188200Y-5600700D02*
G01X7239000Y-5549900D01*
G01X6159500Y-5600700D02*
G01X7188200Y-5600700D01*
G01X6096000Y-5664200D02*
G01X6159500Y-5600700D01*
G01X6001258Y-5537200D02*
G01X7150100Y-5537200D01*
G01X7302500Y-5384800D01*
G01X7543800Y-5384800D01*
G01X7543800Y-5626100D02*
G01X7715110Y-5626100D01*
G54D69*
G01X9118600Y-4628998D02*
G01X9118600Y-4575816D01*
G01X9226702Y-4737100D02*
G01X9167338Y-4677735D01*
G01X9167338Y-4675266D01*
G01X9143531Y-4651460D01*
G01X9141062Y-4651460D01*
G01X9118600Y-4628998D01*
G04 Track End*

M02*

