G04 Layer: BottomPasteMaskLayer*
G04 EasyEDA Pro v2.2.42.2, 2025-09-26 15:24:21*
G04 Gerber Generator version 0.3*
G04 Scale: 100 percent, Rotated: No, Reflected: No*
G04 Dimensions in millimeters*
G04 Leading zeros omitted, absolute positions, 4 integers and 5 decimals*
G04 Generated by one-click*
%FSLAX45Y45*%
%MOMM*%
%ADD10R,0.8X0.9*%
%ADD11R,0.9X0.8*%
%ADD12R,1.7575X1.29601*%
%ADD13R,1.5X1.3589*%
%ADD14R,1.3589X1.5*%
%ADD15R,1.0X1.2*%
%ADD16R,1.0091X1.1*%
%ADD17R,1.0X1.1*%
G75*


G04 PolygonModel Start*
G36*
G01X4280400Y-3207702D02*
G01X4152402Y-3207702D01*
G01X4147401Y-3212704D01*
G01X4147401Y-3327705D01*
G01X4152402Y-3332704D01*
G01X4193405Y-3333206D01*
G01X4193405Y-3288205D01*
G01X4238404Y-3288205D01*
G01X4238404Y-3332206D01*
G01X4280400Y-3332704D01*
G01X4285402Y-3327705D01*
G01X4285402Y-3212704D01*
G01X4280400Y-3207702D01*
G37*
G36*
G01X4152400Y-3548697D02*
G01X4280398Y-3548697D01*
G01X4285399Y-3543696D01*
G01X4285399Y-3428695D01*
G01X4280398Y-3423696D01*
G01X4239395Y-3423194D01*
G01X4239395Y-3468195D01*
G01X4194396Y-3468195D01*
G01X4194396Y-3424194D01*
G01X4152400Y-3423696D01*
G01X4147398Y-3428695D01*
G01X4147398Y-3543696D01*
G01X4152400Y-3548697D01*
G37*
G36*
G01X5562399Y-1705699D02*
G01X5599425Y-1705699D01*
G01X5609425Y-1695699D01*
G01X5609425Y-1665209D01*
G01X5619425Y-1655209D01*
G01X5658175Y-1655209D01*
G01X5668175Y-1665209D01*
G01X5668175Y-1695699D01*
G01X5678175Y-1705699D01*
G01X5715201Y-1705699D01*
G01X5725201Y-1695699D01*
G01X5725201Y-1567200D01*
G01X5715201Y-1557200D01*
G01X5562399Y-1557200D01*
G01X5552399Y-1567200D01*
G01X5552399Y-1695699D01*
G01X5562399Y-1705699D01*
G37*
G36*
G01X5562399Y-1875701D02*
G01X5599425Y-1875701D01*
G01X5609425Y-1885701D01*
G01X5609425Y-1916191D01*
G01X5619425Y-1926191D01*
G01X5658175Y-1926191D01*
G01X5668175Y-1916191D01*
G01X5668175Y-1885701D01*
G01X5678175Y-1875701D01*
G01X5715201Y-1875701D01*
G01X5725201Y-1885701D01*
G01X5725201Y-2014200D01*
G01X5715201Y-2024200D01*
G01X5562399Y-2024200D01*
G01X5552399Y-2014200D01*
G01X5552399Y-1885701D01*
G01X5562399Y-1875701D01*
G37*
G36*
G01X5265298Y-2964901D02*
G01X5345298Y-2964901D01*
G01X5350299Y-2969903D01*
G01X5350299Y-2992699D01*
G01X5313299Y-2992699D01*
G01X5313299Y-3025699D01*
G01X5350299Y-3025699D01*
G01X5350299Y-3049902D01*
G01X5345298Y-3054901D01*
G01X5265298Y-3054901D01*
G01X5260299Y-3049902D01*
G01X5260299Y-2969903D01*
G01X5265298Y-2964901D01*
G37*
G36*
G01X5504302Y-3054899D02*
G01X5424302Y-3054899D01*
G01X5419301Y-3049897D01*
G01X5419301Y-3027101D01*
G01X5456301Y-3027101D01*
G01X5456301Y-2994101D01*
G01X5419301Y-2994101D01*
G01X5419301Y-2969898D01*
G01X5424302Y-2964899D01*
G01X5504302Y-2964899D01*
G01X5509301Y-2969898D01*
G01X5509301Y-3049897D01*
G01X5504302Y-3054899D01*
G37*
G36*
G01X4642399Y-2115698D02*
G01X4642399Y-2195698D01*
G01X4637397Y-2200699D01*
G01X4614601Y-2200699D01*
G01X4614601Y-2163699D01*
G01X4581601Y-2163699D01*
G01X4581601Y-2200699D01*
G01X4557398Y-2200699D01*
G01X4552399Y-2195698D01*
G01X4552399Y-2115698D01*
G01X4557398Y-2110699D01*
G01X4637397Y-2110699D01*
G01X4642399Y-2115698D01*
G37*
G36*
G01X4552401Y-2354702D02*
G01X4552401Y-2274702D01*
G01X4557403Y-2269701D01*
G01X4580199Y-2269701D01*
G01X4580199Y-2306701D01*
G01X4613199Y-2306701D01*
G01X4613199Y-2269701D01*
G01X4637402Y-2269701D01*
G01X4642401Y-2274702D01*
G01X4642401Y-2354702D01*
G01X4637402Y-2359701D01*
G01X4557403Y-2359701D01*
G01X4552401Y-2354702D01*
G37*
G36*
G01X5859902Y-5823499D02*
G01X5779902Y-5823499D01*
G01X5774901Y-5818497D01*
G01X5774901Y-5795701D01*
G01X5811901Y-5795701D01*
G01X5811901Y-5762701D01*
G01X5774901Y-5762701D01*
G01X5774901Y-5738498D01*
G01X5779902Y-5733499D01*
G01X5859902Y-5733499D01*
G01X5864901Y-5738498D01*
G01X5864901Y-5818497D01*
G01X5859902Y-5823499D01*
G37*
G36*
G01X5620898Y-5733501D02*
G01X5700898Y-5733501D01*
G01X5705899Y-5738503D01*
G01X5705899Y-5761299D01*
G01X5668899Y-5761299D01*
G01X5668899Y-5794299D01*
G01X5705899Y-5794299D01*
G01X5705899Y-5818502D01*
G01X5700898Y-5823501D01*
G01X5620898Y-5823501D01*
G01X5615899Y-5818502D01*
G01X5615899Y-5738503D01*
G01X5620898Y-5733501D01*
G37*
G36*
G01X628101Y-5898002D02*
G01X628101Y-5818002D01*
G01X633103Y-5813001D01*
G01X655899Y-5813001D01*
G01X655899Y-5850001D01*
G01X688899Y-5850001D01*
G01X688899Y-5813001D01*
G01X713102Y-5813001D01*
G01X718101Y-5818002D01*
G01X718101Y-5898002D01*
G01X713102Y-5903001D01*
G01X633103Y-5903001D01*
G01X628101Y-5898002D01*
G37*
G36*
G01X718099Y-5658998D02*
G01X718099Y-5738998D01*
G01X713097Y-5743999D01*
G01X690301Y-5743999D01*
G01X690301Y-5706999D01*
G01X657301Y-5706999D01*
G01X657301Y-5743999D01*
G01X633098Y-5743999D01*
G01X628099Y-5738998D01*
G01X628099Y-5658998D01*
G01X633098Y-5653999D01*
G01X713097Y-5653999D01*
G01X718099Y-5658998D01*
G37*
G36*
G01X3505401Y-2282101D02*
G01X3468375Y-2282101D01*
G01X3458375Y-2292101D01*
G01X3458375Y-2322591D01*
G01X3448375Y-2332591D01*
G01X3409625Y-2332591D01*
G01X3399625Y-2322591D01*
G01X3399625Y-2292101D01*
G01X3389625Y-2282101D01*
G01X3352599Y-2282101D01*
G01X3342599Y-2292101D01*
G01X3342599Y-2420600D01*
G01X3352599Y-2430600D01*
G01X3505401Y-2430600D01*
G01X3515401Y-2420600D01*
G01X3515401Y-2292101D01*
G01X3505401Y-2282101D01*
G37*
G36*
G01X3505401Y-2112099D02*
G01X3468375Y-2112099D01*
G01X3458375Y-2102099D01*
G01X3458375Y-2071609D01*
G01X3448375Y-2061609D01*
G01X3409625Y-2061609D01*
G01X3399625Y-2071609D01*
G01X3399625Y-2102099D01*
G01X3389625Y-2112099D01*
G01X3352599Y-2112099D01*
G01X3342599Y-2102099D01*
G01X3342599Y-1973600D01*
G01X3352599Y-1963600D01*
G01X3505401Y-1963600D01*
G01X3515401Y-1973600D01*
G01X3515401Y-2102099D01*
G01X3505401Y-2112099D01*
G37*
G36*
G01X3056801Y-1904799D02*
G01X3056801Y-1941825D01*
G01X3066801Y-1951825D01*
G01X3097291Y-1951825D01*
G01X3107291Y-1961825D01*
G01X3107291Y-2000575D01*
G01X3097291Y-2010575D01*
G01X3066801Y-2010575D01*
G01X3056801Y-2020575D01*
G01X3056801Y-2057601D01*
G01X3066801Y-2067601D01*
G01X3195300Y-2067601D01*
G01X3205300Y-2057601D01*
G01X3205300Y-1904799D01*
G01X3195300Y-1894799D01*
G01X3066801Y-1894799D01*
G01X3056801Y-1904799D01*
G37*
G36*
G01X2886799Y-1904799D02*
G01X2886799Y-1941825D01*
G01X2876799Y-1951825D01*
G01X2846309Y-1951825D01*
G01X2836309Y-1961825D01*
G01X2836309Y-2000575D01*
G01X2846309Y-2010575D01*
G01X2876799Y-2010575D01*
G01X2886799Y-2020575D01*
G01X2886799Y-2057601D01*
G01X2876799Y-2067601D01*
G01X2748300Y-2067601D01*
G01X2738300Y-2057601D01*
G01X2738300Y-1904799D01*
G01X2748300Y-1894799D01*
G01X2876799Y-1894799D01*
G01X2886799Y-1904799D01*
G37*
G36*
G01X4385399Y-5639001D02*
G01X4385399Y-5601975D01*
G01X4375399Y-5591975D01*
G01X4344909Y-5591975D01*
G01X4334909Y-5581975D01*
G01X4334909Y-5543225D01*
G01X4344909Y-5533225D01*
G01X4375399Y-5533225D01*
G01X4385399Y-5523225D01*
G01X4385399Y-5486199D01*
G01X4375399Y-5476199D01*
G01X4246900Y-5476199D01*
G01X4236900Y-5486199D01*
G01X4236900Y-5639001D01*
G01X4246900Y-5649001D01*
G01X4375399Y-5649001D01*
G01X4385399Y-5639001D01*
G37*
G36*
G01X4555401Y-5639001D02*
G01X4555401Y-5601975D01*
G01X4565401Y-5591975D01*
G01X4595891Y-5591975D01*
G01X4605891Y-5581975D01*
G01X4605891Y-5543225D01*
G01X4595891Y-5533225D01*
G01X4565401Y-5533225D01*
G01X4555401Y-5523225D01*
G01X4555401Y-5486199D01*
G01X4565401Y-5476199D01*
G01X4693900Y-5476199D01*
G01X4703900Y-5486199D01*
G01X4703900Y-5639001D01*
G01X4693900Y-5649001D01*
G01X4565401Y-5649001D01*
G01X4555401Y-5639001D01*
G37*
G36*
G01X4658799Y-5140124D02*
G01X4658799Y-5096063D01*
G01X4697306Y-5049248D01*
G01X4766053Y-5049248D01*
G01X4776053Y-5059248D01*
G01X4776053Y-5176944D01*
G01X4766053Y-5186944D01*
G01X4697306Y-5186944D01*
G01X4658799Y-5140124D01*
G37*
G36*
G01X4586801Y-5140124D02*
G01X4586801Y-5096063D01*
G01X4548294Y-5049248D01*
G01X4479547Y-5049248D01*
G01X4469547Y-5059248D01*
G01X4469547Y-5176944D01*
G01X4479547Y-5186944D01*
G01X4548294Y-5186944D01*
G01X4586801Y-5140124D01*
G37*
G36*
G01X4261998Y-5301701D02*
G01X4341998Y-5301701D01*
G01X4346999Y-5306703D01*
G01X4346999Y-5329499D01*
G01X4309999Y-5329499D01*
G01X4309999Y-5362499D01*
G01X4346999Y-5362499D01*
G01X4346999Y-5386702D01*
G01X4341998Y-5391701D01*
G01X4261998Y-5391701D01*
G01X4256999Y-5386702D01*
G01X4256999Y-5306703D01*
G01X4261998Y-5301701D01*
G37*
G36*
G01X4416999Y-5306703D02*
G01X4416999Y-5329499D01*
G01X4454997Y-5329499D01*
G01X4454997Y-5362499D01*
G01X4416999Y-5362499D01*
G01X4416999Y-5386702D01*
G01X4421998Y-5391701D01*
G01X4500997Y-5391701D01*
G01X4505998Y-5386702D01*
G01X4505998Y-5306703D01*
G01X4500997Y-5301701D01*
G01X4421998Y-5301701D01*
G01X4416999Y-5306703D01*
G37*
G36*
G01X7611100Y-1596799D02*
G01X7611100Y-1669463D01*
G01X7621100Y-1679463D01*
G01X7644707Y-1679463D01*
G01X7654707Y-1689463D01*
G01X7654707Y-1764937D01*
G01X7644707Y-1774937D01*
G01X7621100Y-1774937D01*
G01X7611100Y-1784937D01*
G01X7611100Y-1857601D01*
G01X7621100Y-1867601D01*
G01X7729352Y-1867601D01*
G01X7739352Y-1857601D01*
G01X7739352Y-1596799D01*
G01X7729352Y-1586799D01*
G01X7621100Y-1586799D01*
G01X7611100Y-1596799D01*
G37*
G36*
G01X7451100Y-1596799D02*
G01X7451100Y-1669463D01*
G01X7441100Y-1679463D01*
G01X7417493Y-1679463D01*
G01X7407493Y-1689463D01*
G01X7407493Y-1764937D01*
G01X7417493Y-1774937D01*
G01X7441100Y-1774937D01*
G01X7451100Y-1784937D01*
G01X7451100Y-1857601D01*
G01X7441100Y-1867601D01*
G01X7332848Y-1867601D01*
G01X7322848Y-1857601D01*
G01X7322848Y-1596799D01*
G01X7332848Y-1586799D01*
G01X7441100Y-1586799D01*
G01X7451100Y-1596799D01*
G37*
G36*
G01X1768701Y-1362700D02*
G01X1696037Y-1362700D01*
G01X1686037Y-1372700D01*
G01X1686037Y-1396307D01*
G01X1676037Y-1406307D01*
G01X1600563Y-1406307D01*
G01X1590563Y-1396307D01*
G01X1590563Y-1372700D01*
G01X1580563Y-1362700D01*
G01X1507899Y-1362700D01*
G01X1497899Y-1372700D01*
G01X1497899Y-1480952D01*
G01X1507899Y-1490952D01*
G01X1768701Y-1490952D01*
G01X1778701Y-1480952D01*
G01X1778701Y-1372700D01*
G01X1768701Y-1362700D01*
G37*
G36*
G01X1768701Y-1202700D02*
G01X1696037Y-1202700D01*
G01X1686037Y-1192700D01*
G01X1686037Y-1169093D01*
G01X1676037Y-1159093D01*
G01X1600563Y-1159093D01*
G01X1590563Y-1169093D01*
G01X1590563Y-1192700D01*
G01X1580563Y-1202700D01*
G01X1507899Y-1202700D01*
G01X1497899Y-1192700D01*
G01X1497899Y-1084448D01*
G01X1507899Y-1074448D01*
G01X1768701Y-1074448D01*
G01X1778701Y-1084448D01*
G01X1778701Y-1192700D01*
G01X1768701Y-1202700D01*
G37*
G36*
G01X9792200Y-2217102D02*
G01X9664202Y-2217102D01*
G01X9659201Y-2222104D01*
G01X9659201Y-2337105D01*
G01X9664202Y-2342104D01*
G01X9705205Y-2342606D01*
G01X9705205Y-2297605D01*
G01X9750204Y-2297605D01*
G01X9750204Y-2341606D01*
G01X9792200Y-2342104D01*
G01X9797202Y-2337105D01*
G01X9797202Y-2222104D01*
G01X9792200Y-2217102D01*
G37*
G36*
G01X9664200Y-2558097D02*
G01X9792198Y-2558097D01*
G01X9797199Y-2553096D01*
G01X9797199Y-2438095D01*
G01X9792198Y-2433096D01*
G01X9751195Y-2432594D01*
G01X9751195Y-2477595D01*
G01X9706196Y-2477595D01*
G01X9706196Y-2433594D01*
G01X9664200Y-2433096D01*
G01X9659198Y-2438095D01*
G01X9659198Y-2553096D01*
G01X9664200Y-2558097D01*
G37*
G36*
G01X553403Y-1879100D02*
G01X553403Y-2007098D01*
G01X558404Y-2012099D01*
G01X673405Y-2012099D01*
G01X678404Y-2007098D01*
G01X678906Y-1966095D01*
G01X633905Y-1966095D01*
G01X633905Y-1921096D01*
G01X677906Y-1921096D01*
G01X678404Y-1879100D01*
G01X673405Y-1874098D01*
G01X558404Y-1874098D01*
G01X553403Y-1879100D01*
G37*
G36*
G01X894398Y-2007100D02*
G01X894398Y-1879102D01*
G01X889396Y-1874101D01*
G01X774395Y-1874101D01*
G01X769396Y-1879102D01*
G01X768894Y-1920105D01*
G01X813895Y-1920105D01*
G01X813895Y-1965104D01*
G01X769894Y-1965104D01*
G01X769396Y-2007100D01*
G01X774395Y-2012102D01*
G01X889396Y-2012102D01*
G01X894398Y-2007100D01*
G37*
G36*
G01X1681602Y-2838999D02*
G01X1601602Y-2838999D01*
G01X1596601Y-2833997D01*
G01X1596601Y-2811201D01*
G01X1633601Y-2811201D01*
G01X1633601Y-2778201D01*
G01X1596601Y-2778201D01*
G01X1596601Y-2753998D01*
G01X1601602Y-2748999D01*
G01X1681602Y-2748999D01*
G01X1686601Y-2753998D01*
G01X1686601Y-2833997D01*
G01X1681602Y-2838999D01*
G37*
G36*
G01X1442598Y-2749001D02*
G01X1522598Y-2749001D01*
G01X1527599Y-2754003D01*
G01X1527599Y-2776799D01*
G01X1490599Y-2776799D01*
G01X1490599Y-2809799D01*
G01X1527599Y-2809799D01*
G01X1527599Y-2834002D01*
G01X1522598Y-2839001D01*
G01X1442598Y-2839001D01*
G01X1437599Y-2834002D01*
G01X1437599Y-2754003D01*
G01X1442598Y-2749001D01*
G37*

G04 Pad Start*
G54D10*
G01X3333598Y-4419600D03*
G01X3473602Y-4419600D03*
G54D11*
G01X4203700Y-3029102D03*
G01X4203700Y-2889098D03*
G01X4686300Y-2889098D03*
G01X4686300Y-3029102D03*
G01X4775200Y-2317902D03*
G01X4775200Y-2177898D03*
G01X1117600Y-2241398D03*
G01X1117600Y-2381402D03*
G54D10*
G01X7003898Y-4521200D03*
G01X7143902Y-4521200D03*
G01X6368898Y-4521200D03*
G01X6508902Y-4521200D03*
G01X8147202Y-2501900D03*
G01X8007198Y-2501900D03*
G01X8007198Y-3035300D03*
G01X8147202Y-3035300D03*
G01X8248802Y-4038600D03*
G01X8108798Y-4038600D03*
G01X8273898Y-5016500D03*
G01X8413902Y-5016500D03*
G54D12*
G01X8213369Y-4813300D03*
G01X8550631Y-4813300D03*
G01X8258531Y-4267200D03*
G01X7921269Y-4267200D03*
G01X8156931Y-2298700D03*
G01X7819669Y-2298700D03*
G54D11*
G01X7010400Y-3880002D03*
G01X7010400Y-3739998D03*
G54D13*
G01X8159090Y-2692400D03*
G01X7919110Y-2692400D03*
G54D14*
G01X6794500Y-3891890D03*
G01X6794500Y-3651910D03*
G54D11*
G01X6273800Y-5023002D03*
G01X6273800Y-4882998D03*
G01X5448300Y-4832502D03*
G01X5448300Y-4692498D03*
G54D10*
G01X1111098Y-4635500D03*
G01X1251102Y-4635500D03*
G01X2649652Y-4495259D03*
G01X2509647Y-4495259D03*
G01X2469998Y-3797300D03*
G01X2610002Y-3797300D03*
G01X2506548Y-3251741D03*
G01X2646553Y-3251741D03*
G54D15*
G01X1546809Y-1689100D03*
G01X1856791Y-1689100D03*
G54D17*
G01X901700Y-5058905D03*
G01X901700Y-5405895D03*
G01X673100Y-5405895D03*
G01X673100Y-5058905D03*
G01X673100Y-4550905D03*
G01X673100Y-4897895D03*
G01X901700Y-4897895D03*
G01X901700Y-4550905D03*
G54D12*
G01X8937269Y-4635500D03*
G01X9274531Y-4635500D03*
G54D10*
G01X8934298Y-4419600D03*
G01X9074302Y-4419600D03*
G54D12*
G01X9541231Y-5905500D03*
G01X9203969Y-5905500D03*
G54D10*
G01X9506102Y-5664200D03*
G01X9366098Y-5664200D03*
G04 Pad End*

M02*

