G04 Layer: InnerLayer1*
G04 EasyEDA Pro v2.2.42.2, 2025-09-26 15:24:21*
G04 Gerber Generator version 0.3*
G04 Scale: 100 percent, Rotated: No, Reflected: No*
G04 Dimensions in millimeters*
G04 Leading zeros omitted, absolute positions, 4 integers and 5 decimals*
G04 Generated by one-click*
%FSLAX45Y45*%
%MOMM*%
%ADD10R,1.8X1.8*%
%ADD11C,1.8*%
%ADD12C,2.0*%
%ADD13R,1.7X1.7*%
%ADD14C,1.7*%
%ADD15C,1.524*%
%ADD16R,1.6X1.6*%
%ADD17C,1.6*%
%ADD18R,1.6X1.524*%
%ADD19R,1.5223X1.6*%
%ADD20R,1.524X1.6*%
%ADD21C,0.61*%
%ADD22C,0.6096*%
G75*


G04 PlaneZone Start*
G36*
G01X3187700Y-3365500D02*
G01X3178601Y-3365500D01*
G03X3175000Y-3365246I-3601J-25399D01*
G01X1371854Y-3365246D01*
G01X1371854Y-3149854D01*
G01X2755900Y-3149854D01*
G03X2759501Y-3149600I0J25653D01*
G01X2768600Y-3149600D01*
G03X2781300Y-3136900I0J12700D01*
G01X2781300Y-3127801D01*
G03X2781554Y-3124200I-25399J3601D01*
G01X2781554Y-1414961D01*
G03X2781300Y-1411359I-25655J0D01*
G01X2781300Y-1409700D01*
G03X2777580Y-1400720I-12700J-0D01*
G01X2776407Y-1399546D01*
G03X2774040Y-1396820I-20507J-15414D01*
G01X2768780Y-1391560D01*
G03X2766054Y-1389193I-18140J-18140D01*
G01X2764880Y-1388020D01*
G03X2755900Y-1384300I-8980J-8980D01*
G01X2754241Y-1384300D01*
G03X2750639Y-1384046I-3601J-25401D01*
G01X2032031Y-1384046D01*
G01X2032029Y-212954D01*
G01X3517265Y-212954D01*
G01X3517265Y-653737D01*
G03X3529965Y-666437I12700J0D01*
G01X5048413Y-666437D01*
G03X5159903Y-863372I76565J-86681D01*
G03X5137670Y-638163I-34925J110254D01*
G01X5137670Y-212954D01*
G01X7432225Y-212954D01*
G01X7432225Y-1455022D01*
G01X6982699Y-1455022D01*
G03X6976662Y-1454036I-5005J-11672D01*
G01X6831569Y-1465857D01*
G03X6819900Y-1478515I1031J-12658D01*
G01X6819900Y-1854200D01*
G01X5930900Y-1854200D01*
G03X5918200Y-1866900I0J-12700D01*
G01X5918200Y-4343400D01*
G01X5588259Y-4343400D01*
G03X5575559Y-4356100I0J-12700D01*
G01X5575559Y-6057900D01*
G03X5588259Y-6070600I12700J0D01*
G01X6134100Y-6070600D01*
G03X6146800Y-6057900I0J12700D01*
G01X6146800Y-5802383D01*
G03X6253734Y-5778500I50800J23883D01*
G03X6146800Y-5754617I-56134J0D01*
G01X6146800Y-5626100D01*
G01X6489446Y-5626100D01*
G01X6489446Y-6108446D01*
G01X4787900Y-6108446D01*
G01X4787900Y-5361974D01*
G03X4775200Y-5349274I-12700J0D01*
G01X4639526Y-5349274D01*
G01X4639526Y-4978400D01*
G03X4626826Y-4965700I-12700J0D01*
G01X3467100Y-4965700D01*
G03X3454400Y-4978400I0J-12700D01*
G01X3454400Y-5359400D01*
G03X3467100Y-5372100I12700J0D01*
G01X3657600Y-5372100D01*
G01X3657600Y-6108446D01*
G01X3200654Y-6108446D01*
G01X3200654Y-3390900D01*
G03X3200400Y-3387299I-25653J0D01*
G01X3200400Y-3378200D01*
G03X3187700Y-3365500I-12700J0D01*
G37*
%LPC*%
G36*
G01X2251954Y-876300D02*
G03X2040646Y-876300I-105654J0D01*
G03X2251954Y-876300I105654J0D01*
G37*
G36*
G01X2505954Y-876300D02*
G03X2294646Y-876300I-105654J0D01*
G03X2505954Y-876300I105654J0D01*
G37*
G36*
G01X2344166Y-3251741D02*
G03X2456434Y-3251741I56134J0D01*
G03X2344166Y-3251741I-56134J0D01*
G37*
G36*
G01X3068066Y-2138230D02*
G03X3180334Y-2138230I56134J0D01*
G03X3068066Y-2138230I-56134J0D01*
G37*
G36*
G01X3372866Y-3562502D02*
G03X3485134Y-3562502I56134J0D01*
G03X3372866Y-3562502I-56134J0D01*
G37*
G36*
G01X3410966Y-4330700D02*
G03X3523234Y-4330700I56134J0D01*
G03X3410966Y-4330700I-56134J0D01*
G37*
G36*
G01X3625494Y-5947654D02*
G03X3651148Y-5922000I0J25654D01*
G01X3651148Y-5762000D01*
G03X3625494Y-5736346I-25654J0D01*
G01X3473094Y-5736346D01*
G03X3447440Y-5762000I0J-25654D01*
G01X3447440Y-5922000D01*
G03X3473094Y-5947654I25654J0D01*
G01X3625494Y-5947654D01*
G37*
G36*
G01X3512566Y-2349500D02*
G03X3624834Y-2349500I56134J0D01*
G03X3512566Y-2349500I-56134J0D01*
G37*
G36*
G01X4033266Y-3276600D02*
G03X4145534Y-3276600I56134J0D01*
G03X4033266Y-3276600I-56134J0D01*
G37*
G36*
G01X4058666Y-3035300D02*
G03X4170934Y-3035300I56134J0D01*
G03X4058666Y-3035300I-56134J0D01*
G37*
G36*
G01X4123766Y-2019300D02*
G03X4236034Y-2019300I56134J0D01*
G03X4123766Y-2019300I-56134J0D01*
G37*
G36*
G01X4451172Y-2324100D02*
G03X4563440Y-2324100I56134J0D01*
G03X4451172Y-2324100I-56134J0D01*
G37*
G36*
G01X4655566Y-3568700D02*
G03X4767834Y-3568700I56134J0D01*
G03X4655566Y-3568700I-56134J0D01*
G37*
G36*
G01X4719066Y-2857500D02*
G03X4831334Y-2857500I56134J0D01*
G03X4719066Y-2857500I-56134J0D01*
G37*
G36*
G01X4744466Y-4610100D02*
G03X4856734Y-4610100I56134J0D01*
G03X4744466Y-4610100I-56134J0D01*
G37*
G36*
G01X4969754Y-1625600D02*
G03X4758446Y-1625600I-105654J0D01*
G03X4969754Y-1625600I105654J0D01*
G37*
G36*
G01X4874966Y-887477D02*
G03X4874966Y-1118784I0J-115654D01*
G03X4874966Y-887477I0J115654D01*
G37*
G36*
G01X4865268Y-4165600D02*
G03X4977536Y-4165600I56134J0D01*
G03X4865268Y-4165600I-56134J0D01*
G37*
G36*
G01X4973066Y-3632200D02*
G03X5085334Y-3632200I56134J0D01*
G03X4973066Y-3632200I-56134J0D01*
G37*
G36*
G01X5223754Y-1625600D02*
G03X5012446Y-1625600I-105654J0D01*
G03X5223754Y-1625600I105654J0D01*
G37*
G36*
G01X5150866Y-5003800D02*
G03X5263134Y-5003800I56134J0D01*
G03X5150866Y-5003800I-56134J0D01*
G37*
G36*
G01X5176266Y-3012694D02*
G03X5288534Y-3012694I56134J0D01*
G03X5176266Y-3012694I-56134J0D01*
G37*
G36*
G01X5374965Y-387478D02*
G03X5374965Y-618785I0J-115654D01*
G03X5374965Y-387478I0J115654D01*
G37*
G36*
G01X5374965Y-887477D02*
G03X5374965Y-1118784I0J-115654D01*
G03X5374965Y-887477I0J115654D01*
G37*
G36*
G01X5292100Y-1519946D02*
G03X5266446Y-1545600I0J-25654D01*
G01X5266446Y-1705600D01*
G03X5292100Y-1731254I25654J0D01*
G01X5452100Y-1731254D01*
G03X5477754Y-1705600I0J25654D01*
G01X5477754Y-1545600D01*
G03X5452100Y-1519946I-25654J0D01*
G01X5292100Y-1519946D01*
G37*
G36*
G01X5392166Y-4914900D02*
G03X5504434Y-4914900I56134J0D01*
G03X5392166Y-4914900I-56134J0D01*
G37*
G36*
G01X5417566Y-2514600D02*
G03X5529834Y-2514600I56134J0D01*
G03X5417566Y-2514600I-56134J0D01*
G37*
G36*
G01X5624977Y-637464D02*
G03X5624977Y-868772I0J-115654D01*
G03X5624977Y-637464I0J115654D01*
G37*
G36*
G01X5629746Y-3437800D02*
G03X5655400Y-3463454I25654J0D01*
G01X5825400Y-3463454D01*
G03X5851054Y-3437800I0J25654D01*
G01X5851054Y-3267800D01*
G03X5825400Y-3242146I-25654J0D01*
G01X5655400Y-3242146D01*
G03X5629746Y-3267800I0J-25654D01*
G01X5629746Y-3437800D01*
G37*
G36*
G01X5740400Y-3496146D02*
G03X5740400Y-3717454I0J-110654D01*
G03X5740400Y-3496146I0J110654D01*
G37*
G36*
G01X5740400Y-3750146D02*
G03X5740400Y-3971454I0J-110654D01*
G03X5740400Y-3750146I0J110654D01*
G37*
G36*
G01X5740400Y-4004146D02*
G03X5740400Y-4225454I0J-110654D01*
G03X5740400Y-4004146I0J110654D01*
G37*
G36*
G01X7146280Y-1117686D02*
G03X7146280Y-1328994I0J-105654D01*
G03X7146280Y-1117686I0J105654D01*
G37*
G36*
G01X7146280Y-863686D02*
G03X7146280Y-1074994I0J-105654D01*
G03X7146280Y-863686I0J105654D01*
G37*
%LPD*%
G36*
G01X7404100Y-4889754D02*
G03X7407701Y-4889500I0J25653D01*
G01X7416800Y-4889500D01*
G03X7429500Y-4876800I0J12700D01*
G01X7429500Y-4867701D01*
G03X7429754Y-4864100I-25399J3601D01*
G01X7429754Y-2570661D01*
G03X7429500Y-2567059I-25655J0D01*
G01X7429500Y-2565400D01*
G03X7425780Y-2556420I-12700J-0D01*
G01X7424607Y-2555246D01*
G03X7422240Y-2552520I-20507J-15414D01*
G01X7416980Y-2547260D01*
G03X7414254Y-2544893I-18140J-18140D01*
G01X7413080Y-2543720D01*
G03X7404100Y-2540000I-8980J-8980D01*
G01X7402441Y-2540000D01*
G03X7398839Y-2539746I-3601J-25401D01*
G01X6972554Y-2539746D01*
G01X6972554Y-1536887D01*
G01X7480300Y-1536887D01*
G03X7483901Y-1536633I0J25653D01*
G01X7493000Y-1536633D01*
G03X7505700Y-1523933I0J12700D01*
G01X7505700Y-1514834D01*
G03X7505954Y-1511233I-25399J3601D01*
G01X7505954Y-212954D01*
G01X9842246Y-212954D01*
G01X9842246Y-6187046D01*
G01X7264654Y-6187046D01*
G01X7264654Y-5583868D01*
G03X7264400Y-5580267I-25653J0D01*
G01X7264400Y-5571168D01*
G03X7251700Y-5558468I-12700J0D01*
G01X7242601Y-5558468D01*
G03X7239000Y-5558214I-3601J-25399D01*
G01X6096000Y-5558214D01*
G03X6092399Y-5558468I0J-25653D01*
G01X6083300Y-5558468D01*
G03X6070600Y-5571168I0J-12700D01*
G01X6070600Y-5580267D01*
G03X6070346Y-5583868I25399J-3601D01*
G01X6070346Y-5996039D01*
G01X5893054Y-5996039D01*
G01X5893054Y-4889754D01*
G01X7404100Y-4889754D01*
G37*
%LPC*%
G36*
G01X6090666Y-5029200D02*
G03X6202934Y-5029200I56134J0D01*
G03X6090666Y-5029200I-56134J0D01*
G37*
G36*
G01X7146280Y-1625686D02*
G03X7146280Y-1836994I0J-105654D01*
G03X7146280Y-1625686I0J105654D01*
G37*
G36*
G01X7146280Y-2133686D02*
G03X7146280Y-2344994I0J-105654D01*
G03X7146280Y-2133686I0J105654D01*
G37*
G36*
G01X7337283Y-5461000D02*
G03X7449551Y-5461000I56134J0D01*
G03X7337283Y-5461000I-56134J0D01*
G37*
G36*
G01X7337283Y-5651500D02*
G03X7449551Y-5651500I56134J0D01*
G03X7337283Y-5651500I-56134J0D01*
G37*
G36*
G01X7436866Y-3708400D02*
G03X7549134Y-3708400I56134J0D01*
G03X7436866Y-3708400I-56134J0D01*
G37*
G36*
G01X7487666Y-5384800D02*
G03X7599934Y-5384800I56134J0D01*
G03X7487666Y-5384800I-56134J0D01*
G37*
G36*
G01X7487666Y-5626100D02*
G03X7599934Y-5626100I56134J0D01*
G03X7487666Y-5626100I-56134J0D01*
G37*
G36*
G01X7607656Y-4222090D02*
G03X7719924Y-4222090I56134J0D01*
G03X7607656Y-4222090I-56134J0D01*
G37*
G36*
G01X7865555Y-571500D02*
G03X7661847Y-571500I-101854J0D01*
G03X7865555Y-571500I101854J0D01*
G37*
G36*
G01X7767046Y-1854200D02*
G03X7879354Y-1854200I56154J0D01*
G03X7767046Y-1854200I-56154J0D01*
G37*
G36*
G01X7805166Y-5880100D02*
G03X7917434Y-5880100I56134J0D01*
G03X7805166Y-5880100I-56134J0D01*
G37*
G36*
G01X7855966Y-3009900D02*
G03X7968234Y-3009900I56134J0D01*
G03X7855966Y-3009900I-56134J0D01*
G37*
G36*
G01X8115541Y-571500D02*
G03X7911833Y-571500I-101854J0D01*
G03X8115541Y-571500I101854J0D01*
G37*
G36*
G01X8157235Y-4955972D02*
G03X8269503Y-4955972I56134J0D01*
G03X8157235Y-4955972I-56134J0D01*
G37*
G36*
G01X8365554Y-571500D02*
G03X8161846Y-571500I-101854J0D01*
G03X8365554Y-571500I101854J0D01*
G37*
G36*
G01X8186166Y-2451100D02*
G03X8298434Y-2451100I56134J0D01*
G03X8186166Y-2451100I-56134J0D01*
G37*
G36*
G01X8192262Y-3911600D02*
G03X8304530Y-3911600I56134J0D01*
G03X8192262Y-3911600I-56134J0D01*
G37*
G36*
G01X8281548Y-1892300D02*
G03X8393856Y-1892300I56154J0D01*
G03X8281548Y-1892300I-56154J0D01*
G37*
G36*
G01X8376666Y-5613400D02*
G03X8488934Y-5613400I56134J0D01*
G03X8376666Y-5613400I-56134J0D01*
G37*
G36*
G01X8605266Y-2323803D02*
G03X8717534Y-2323803I56134J0D01*
G03X8605266Y-2323803I-56134J0D01*
G37*
G36*
G01X8681446Y-1854200D02*
G03X8793754Y-1854200I56154J0D01*
G03X8681446Y-1854200I-56154J0D01*
G37*
G36*
G01X8878164Y-4330700D02*
G03X8955877Y-4382520I56134J0D01*
G01X8955877Y-4546600D01*
G03X8968577Y-4559300I12700J0D01*
G01X9372600Y-4559300D01*
G03X9385300Y-4546600I0J12700D01*
G01X9385300Y-3977894D01*
G03X9372600Y-3965194I-12700J0D01*
G01X8968577Y-3965194D01*
G03X8955877Y-3977894I0J-12700D01*
G01X8955877Y-4278880D01*
G03X8878164Y-4330700I-21580J-51820D01*
G37*
G36*
G01X9227546Y-1346200D02*
G03X9339854Y-1346200I56154J0D01*
G03X9227546Y-1346200I-56154J0D01*
G37*
G36*
G01X9456166Y-5778500D02*
G03X9568434Y-5778500I56134J0D01*
G03X9456166Y-5778500I-56134J0D01*
G37*
G36*
G01X9808454Y-4591406D02*
G03X9782800Y-4565752I-25654J0D01*
G01X9622800Y-4565752D01*
G03X9597146Y-4591406I0J-25654D01*
G01X9597146Y-4743806D01*
G03X9622800Y-4769460I25654J0D01*
G01X9782800Y-4769460D01*
G03X9808454Y-4743806I0J25654D01*
G01X9808454Y-4591406D01*
G37*
G36*
G01X9702800Y-4523247D02*
G03X9702800Y-4311940I0J105654D01*
G03X9702800Y-4523247I0J-105654D01*
G37*
G36*
G01X9702800Y-4023248D02*
G03X9702800Y-3811941I0J105654D01*
G03X9702800Y-4023248I0J-105654D01*
G37*
G36*
G01X9702800Y-4273260D02*
G03X9702800Y-4061953I0J105654D01*
G03X9702800Y-4273260I0J-105654D01*
G37*
G36*
G01X9673443Y-2654300D02*
G03X9785751Y-2654300I56154J0D01*
G03X9673443Y-2654300I-56154J0D01*
G37*
%LPD*%
G36*
G01X55150Y-212954D02*
G01X1798872Y-212954D01*
G01X1798872Y-1385846D01*
G03X1785346Y-1422400I42628J-36554D01*
G03X1798872Y-1458954I56154J0D01*
G01X1798872Y-1558021D01*
G03X1811572Y-1570721I12700J0D01*
G01X1876103Y-1570721D01*
G03X1923898Y-1656354I47794J-29479D01*
G03X1971692Y-1570721I0J56154D01*
G01X2654300Y-1570721D01*
G01X2654300Y-2695445D01*
G03X2497646Y-2781300I-54801J-85855D01*
G03X2654300Y-2867155I101854J0D01*
G01X2654300Y-3013603D01*
G01X1278997Y-3013603D01*
G03X1270017Y-3017323I0J-12700D01*
G01X1261020Y-3026320D01*
G03X1257300Y-3035300I8980J-8980D01*
G01X1257300Y-3632200D01*
G03X1270000Y-3644900I12700J0D01*
G01X3022600Y-3644900D01*
G01X3022600Y-6187046D01*
G01X55150Y-6187046D01*
G01X55150Y-212954D01*
G37*
%LPC*%
G36*
G01X406400Y-4771840D02*
G03X406400Y-5003147I0J-115654D01*
G03X406400Y-4771840I0J115654D01*
G37*
G36*
G01X290746Y-4727506D02*
G03X316400Y-4753160I25654J0D01*
G01X496400Y-4753160D01*
G03X522054Y-4727506I0J25654D01*
G01X522054Y-4547507D01*
G03X496400Y-4521853I-25654J0D01*
G01X316400Y-4521853D01*
G03X290746Y-4547507I0J-25654D01*
G01X290746Y-4727506D01*
G37*
G36*
G01X290746Y-5692706D02*
G03X316400Y-5718360I25654J0D01*
G01X496400Y-5718360D01*
G03X522054Y-5692706I0J25654D01*
G01X522054Y-5512707D01*
G03X496400Y-5487053I-25654J0D01*
G01X316400Y-5487053D01*
G03X290746Y-5512707I0J-25654D01*
G01X290746Y-5692706D01*
G37*
G36*
G01X406400Y-5737040D02*
G03X406400Y-5968347I0J-115654D01*
G03X406400Y-5737040I0J115654D01*
G37*
G36*
G01X616946Y-3009603D02*
G03X729254Y-3009603I56154J0D01*
G03X616946Y-3009603I-56154J0D01*
G37*
G36*
G01X761541Y-2082800D02*
G03X873849Y-2082800I56154J0D01*
G03X761541Y-2082800I-56154J0D01*
G37*
G36*
G01X769346Y-5699768D02*
G03X881654Y-5699768I56154J0D01*
G03X769346Y-5699768I-56154J0D01*
G37*
G36*
G01X1143000Y-4768037D02*
G03X1143000Y-5019345I0J-125654D01*
G03X1143000Y-4768037I0J125654D01*
G37*
G36*
G01X1143000Y-5928055D02*
G03X1143000Y-6179363I0J-125654D01*
G03X1143000Y-5928055I0J125654D01*
G37*
G36*
G01X1235954Y-876300D02*
G03X1024646Y-876300I-105654J0D01*
G03X1235954Y-876300I105654J0D01*
G37*
G36*
G01X1060706Y-2133600D02*
G03X1173014Y-2133600I56154J0D01*
G03X1060706Y-2133600I-56154J0D01*
G37*
G36*
G01X1529406Y-4757035D02*
G03X1529406Y-4535728I0J110654D01*
G03X1529406Y-4757035I0J-110654D01*
G37*
G36*
G01X1529406Y-5011035D02*
G03X1529406Y-4789728I0J110654D01*
G03X1529406Y-5011035I0J-110654D01*
G37*
G36*
G01X1640060Y-5069382D02*
G03X1614406Y-5043728I-25654J0D01*
G01X1444407Y-5043728D01*
G03X1418753Y-5069382I0J-25654D01*
G01X1418753Y-5239381D01*
G03X1444407Y-5265035I25654J0D01*
G01X1614406Y-5265035D01*
G03X1640060Y-5239381I0J25654D01*
G01X1640060Y-5069382D01*
G37*
G36*
G01X1493246Y-1803400D02*
G03X1605554Y-1803400I56154J0D01*
G03X1493246Y-1803400I-56154J0D01*
G37*
G36*
G01X1743954Y-876300D02*
G03X1532646Y-876300I-105654J0D01*
G03X1743954Y-876300I105654J0D01*
G37*
G36*
G01X1721846Y-5380990D02*
G03X1834154Y-5380990I56154J0D01*
G03X1721846Y-5380990I-56154J0D01*
G37*
G36*
G01X2201355Y-2781300D02*
G03X1997647Y-2781300I-101854J0D01*
G03X2201355Y-2781300I101854J0D01*
G37*
G36*
G01X2001246Y-5778500D02*
G03X2113554Y-5778500I56154J0D01*
G03X2001246Y-5778500I-56154J0D01*
G37*
G36*
G01X2451341Y-2781300D02*
G03X2247633Y-2781300I-101854J0D01*
G03X2451341Y-2781300I101854J0D01*
G37*
G36*
G01X2318746Y-3797300D02*
G03X2431054Y-3797300I56154J0D01*
G03X2318746Y-3797300I-56154J0D01*
G37*
G36*
G01X2356846Y-4495259D02*
G03X2469154Y-4495259I56154J0D01*
G03X2356846Y-4495259I-56154J0D01*
G37*
%LPD*%
G36*
G01X3542919Y-640783D02*
G01X3542919Y-212954D01*
G01X5112016Y-212954D01*
G01X5112016Y-638193D01*
G03X5097472Y-640783I12961J-114926D01*
G01X4066945Y-640783D01*
G03X4023995Y-417746I-42950J107383D01*
G03X3981045Y-640783I0J-115654D01*
G01X3816755Y-640783D01*
G03X3773805Y-417746I-42950J107383D01*
G03X3730855Y-640783I0J-115654D01*
G01X3542919Y-640783D01*
G37*
%LPC*%
G36*
G01X4874966Y-387478D02*
G03X4874966Y-618785I0J-115654D01*
G03X4874966Y-387478I0J115654D01*
G37*
%LPD*%
G36*
G01X3670300Y-5346700D02*
G01X3661201Y-5346700D01*
G03X3657600Y-5346446I-3601J-25399D01*
G01X3480054Y-5346446D01*
G01X3480054Y-4991354D01*
G01X4613872Y-4991354D01*
G01X4613872Y-5349274D01*
G03X4614126Y-5352875I25653J0D01*
G01X4614126Y-5361974D01*
G03X4626826Y-5374674I12700J0D01*
G01X4635925Y-5374674D01*
G03X4639526Y-5374928I3601J25399D01*
G01X4762246Y-5374928D01*
G01X4762247Y-6108446D01*
G01X3683254Y-6108446D01*
G01X3683254Y-5372100D01*
G03X3683000Y-5368499I-25653J0D01*
G01X3683000Y-5359400D01*
G03X3670300Y-5346700I-12700J0D01*
G37*
%LPC*%
G36*
G01X3693653Y-5842000D02*
G03X3904960Y-5842000I105654J0D01*
G03X3693653Y-5842000I-105654J0D01*
G37*
G36*
G01X3943640Y-5842000D02*
G03X4154947Y-5842000I105654J0D01*
G03X3943640Y-5842000I-105654J0D01*
G37*
G36*
G01X4193652Y-5842000D02*
G03X4404959Y-5842000I105654J0D01*
G03X4193652Y-5842000I-105654J0D01*
G37*
%LPD*%
G36*
G01X7226026Y-1236040D02*
G02X7226026Y-1210640I0J12700D01*
G01X7251934Y-1210640D01*
G02X7251934Y-1236040I0J-12700D01*
G01X7226026Y-1236040D01*
G37*
G36*
G01X7226026Y-1744040D02*
G02X7226026Y-1718640I0J12700D01*
G01X7251934Y-1718640D01*
G02X7251934Y-1744040I0J-12700D01*
G01X7226026Y-1744040D01*
G37*
G36*
G01X5197846Y-1638300D02*
G02X5197846Y-1612900I0J12700D01*
G01X5223754Y-1612900D01*
G02X5223754Y-1638300I0J-12700D01*
G01X5197846Y-1638300D01*
G37*
G36*
G01X5012446Y-1638300D02*
G02X5012446Y-1612900I0J12700D01*
G01X5038354Y-1612900D01*
G02X5038354Y-1638300I0J-12700D01*
G01X5012446Y-1638300D01*
G37*
G36*
G01X4964711Y-1015830D02*
G02X4964711Y-990430I0J12700D01*
G01X4990619Y-990430D01*
G02X4990619Y-1015830I0J-12700D01*
G01X4964711Y-1015830D01*
G37*
G36*
G01X5009324Y-765818D02*
G02X5009324Y-740418I0J12700D01*
G01X5035232Y-740418D01*
G02X5035232Y-765818I0J-12700D01*
G01X5009324Y-765818D01*
G37*
G36*
G01X4964711Y-515831D02*
G02X4964711Y-490431I0J12700D01*
G01X4990619Y-490431D01*
G02X4990619Y-515831I0J-12700D01*
G01X4964711Y-515831D01*
G37*
G36*
G01X1532646Y-889000D02*
G02X1532646Y-863600I0J12700D01*
G01X1558554Y-863600D01*
G02X1558554Y-889000I0J-12700D01*
G01X1532646Y-889000D01*
G37*
G36*
G01X1718046Y-889000D02*
G02X1718046Y-863600I0J12700D01*
G01X1743954Y-863600D01*
G02X1743954Y-889000I0J-12700D01*
G01X1718046Y-889000D01*
G37*
G36*
G01X2226046Y-889000D02*
G02X2226046Y-863600I0J12700D01*
G01X2251954Y-863600D01*
G02X2251954Y-889000I0J-12700D01*
G01X2226046Y-889000D01*
G37*
G36*
G01X4759312Y-1015830D02*
G02X4759312Y-990430I0J12700D01*
G01X4785220Y-990430D01*
G02X4785220Y-1015830I0J-12700D01*
G01X4759312Y-1015830D01*
G37*
G36*
G01X5825146Y-3619500D02*
G02X5825146Y-3594100I0J12700D01*
G01X5851054Y-3594100D01*
G02X5851054Y-3619500I0J-12700D01*
G01X5825146Y-3619500D01*
G37*
G36*
G01X5629746Y-3619500D02*
G02X5629746Y-3594100I0J12700D01*
G01X5655654Y-3594100D01*
G02X5655654Y-3619500I0J-12700D01*
G01X5629746Y-3619500D01*
G37*
G36*
G01X7040626Y-1236040D02*
G02X7040626Y-1210640I0J12700D01*
G01X7066534Y-1210640D01*
G02X7066534Y-1236040I0J-12700D01*
G01X7040626Y-1236040D01*
G37*
G36*
G01X5214724Y-765818D02*
G02X5214724Y-740418I0J12700D01*
G01X5240632Y-740418D01*
G02X5240632Y-765818I0J-12700D01*
G01X5214724Y-765818D01*
G37*
G36*
G01X5714723Y-765818D02*
G02X5714723Y-740418I0J12700D01*
G01X5740631Y-740418D01*
G02X5740631Y-765818I0J-12700D01*
G01X5714723Y-765818D01*
G37*
G36*
G01X5509323Y-765818D02*
G02X5509323Y-740418I0J12700D01*
G01X5535231Y-740418D01*
G02X5535231Y-765818I0J-12700D01*
G01X5509323Y-765818D01*
G37*
G36*
G01X3658151Y-546100D02*
G02X3658151Y-520700I0J12700D01*
G01X3684059Y-520700D01*
G02X3684059Y-546100I0J-12700D01*
G01X3658151Y-546100D01*
G37*
G36*
G01X4759312Y-515831D02*
G02X4759312Y-490431I0J12700D01*
G01X4785220Y-490431D01*
G02X4785220Y-515831I0J-12700D01*
G01X4759312Y-515831D01*
G37*
G36*
G01X7040626Y-1744040D02*
G02X7040626Y-1718640I0J12700D01*
G01X7066534Y-1718640D01*
G02X7066534Y-1744040I0J-12700D01*
G01X7040626Y-1744040D01*
G37*
G36*
G01X5753100Y-3522054D02*
G02X5727700Y-3522054I-12700J0D01*
G01X5727700Y-3496146D01*
G02X5753100Y-3496146I12700J0D01*
G01X5753100Y-3522054D01*
G37*
G36*
G01X5727700Y-3691546D02*
G02X5753100Y-3691546I12700J0D01*
G01X5753100Y-3717454D01*
G02X5727700Y-3717454I-12700J0D01*
G01X5727700Y-3691546D01*
G37*
G36*
G01X7158980Y-1651594D02*
G02X7133580Y-1651594I-12700J0D01*
G01X7133580Y-1625686D01*
G02X7158980Y-1625686I12700J0D01*
G01X7158980Y-1651594D01*
G37*
G36*
G01X5130800Y-1545854D02*
G02X5105400Y-1545854I-12700J0D01*
G01X5105400Y-1519946D01*
G02X5130800Y-1519946I12700J0D01*
G01X5130800Y-1545854D01*
G37*
G36*
G01X4887666Y-913385D02*
G02X4862266Y-913385I-12700J0D01*
G01X4862266Y-887477D01*
G02X4887666Y-887477I12700J0D01*
G01X4887666Y-913385D01*
G37*
G36*
G01X4862266Y-1092876D02*
G02X4887666Y-1092876I12700J0D01*
G01X4887666Y-1118784D01*
G02X4862266Y-1118784I-12700J0D01*
G01X4862266Y-1092876D01*
G37*
G36*
G01X7133580Y-1303086D02*
G02X7158980Y-1303086I12700J0D01*
G01X7158980Y-1328994D01*
G02X7133580Y-1328994I-12700J0D01*
G01X7133580Y-1303086D01*
G37*
G36*
G01X5637677Y-663372D02*
G02X5612277Y-663372I-12700J0D01*
G01X5612277Y-637464D01*
G02X5637677Y-637464I12700J0D01*
G01X5637677Y-663372D01*
G37*
G36*
G01X4887666Y-413386D02*
G02X4862266Y-413386I-12700J0D01*
G01X4862266Y-387478D01*
G02X4887666Y-387478I12700J0D01*
G01X4887666Y-413386D01*
G37*
G36*
G01X1651000Y-796554D02*
G02X1625600Y-796554I-12700J0D01*
G01X1625600Y-770646D01*
G02X1651000Y-770646I12700J0D01*
G01X1651000Y-796554D01*
G37*
G36*
G01X2159000Y-796554D02*
G02X2133600Y-796554I-12700J0D01*
G01X2133600Y-770646D01*
G02X2159000Y-770646I12700J0D01*
G01X2159000Y-796554D01*
G37*
G36*
G01X3786505Y-443654D02*
G02X3761105Y-443654I-12700J0D01*
G01X3761105Y-417746D01*
G02X3786505Y-417746I12700J0D01*
G01X3786505Y-443654D01*
G37*
G36*
G01X4862266Y-592877D02*
G02X4887666Y-592877I12700J0D01*
G01X4887666Y-618785D01*
G02X4862266Y-618785I-12700J0D01*
G01X4862266Y-592877D01*
G37*
G36*
G01X1625600Y-956046D02*
G02X1651000Y-956046I12700J0D01*
G01X1651000Y-981954D01*
G02X1625600Y-981954I-12700J0D01*
G01X1625600Y-956046D01*
G37*
G36*
G01X5105400Y-1705346D02*
G02X5130800Y-1705346I12700J0D01*
G01X5130800Y-1731254D01*
G02X5105400Y-1731254I-12700J0D01*
G01X5105400Y-1705346D01*
G37*
G36*
G01X7158980Y-1143594D02*
G02X7133580Y-1143594I-12700J0D01*
G01X7133580Y-1117686D01*
G02X7158980Y-1117686I12700J0D01*
G01X7158980Y-1143594D01*
G37*
G36*
G01X2133600Y-956046D02*
G02X2159000Y-956046I12700J0D01*
G01X2159000Y-981954D01*
G02X2133600Y-981954I-12700J0D01*
G01X2133600Y-956046D01*
G37*
G36*
G01X5112278Y-842864D02*
G02X5137678Y-842864I12700J0D01*
G01X5137678Y-868772D01*
G02X5112278Y-868772I-12700J0D01*
G01X5112278Y-842864D01*
G37*
G36*
G01X5612277Y-842864D02*
G02X5637677Y-842864I12700J0D01*
G01X5637677Y-868772D01*
G02X5612277Y-868772I-12700J0D01*
G01X5612277Y-842864D01*
G37*
G36*
G01X7133580Y-1811086D02*
G02X7158980Y-1811086I12700J0D01*
G01X7158980Y-1836994D01*
G02X7133580Y-1836994I-12700J0D01*
G01X7133580Y-1811086D01*
G37*
G04 PlaneZone End*

G04 Pad Start*
G54D10*
G01X406400Y-4637507D03*
G54D11*
G01X406400Y-4887493D03*
G54D10*
G01X406400Y-5602707D03*
G54D11*
G01X406400Y-5852693D03*
G54D12*
G01X1143000Y-4893691D03*
G01X1143000Y-6053709D03*
G54D13*
G01X1529406Y-5154381D03*
G54D14*
G01X1529406Y-4900381D03*
G01X1529406Y-4646381D03*
G54D15*
G01X8013687Y-571500D03*
G01X8263700Y-571500D03*
G01X7763701Y-571500D03*
G01X2349487Y-2781300D03*
G01X2599500Y-2781300D03*
G01X2099501Y-2781300D03*
G54D11*
G01X4874966Y-503131D03*
G01X5374965Y-503131D03*
G01X5124978Y-753118D03*
G01X5624977Y-753118D03*
G01X4874966Y-1003130D03*
G01X5374965Y-1003130D03*
G54D16*
G01X5372100Y-1625600D03*
G54D17*
G01X5118100Y-1625600D03*
G01X4864100Y-1625600D03*
G01X7146280Y-969340D03*
G01X7146280Y-1223340D03*
G01X7146280Y-1731340D03*
G01X7146280Y-2239340D03*
G01X2400300Y-876300D03*
G01X2146300Y-876300D03*
G01X1638300Y-876300D03*
G01X1130300Y-876300D03*
G01X9702800Y-3917594D03*
G01X9702800Y-4167607D03*
G01X9702800Y-4417593D03*
G54D18*
G01X9702800Y-4667606D03*
G54D13*
G01X5740400Y-3352800D03*
G54D14*
G01X5740400Y-3606800D03*
G01X5740400Y-3860800D03*
G01X5740400Y-4114800D03*
G54D17*
G01X4299306Y-5842000D03*
G01X4049293Y-5842000D03*
G01X3799307Y-5842000D03*
G54D20*
G01X3549294Y-5842000D03*
G54D11*
G01X3773805Y-533400D03*
G01X4023995Y-533400D03*
G54D17*
G01X7001408Y-4330700D03*
G01X6511392Y-4330700D03*
G04 Pad End*

G04 Via Start*
G54D21*
G01X7823200Y-1854200D03*
G01X1841500Y-1422400D03*
G01X8337702Y-1892300D03*
G01X8737600Y-1854200D03*
G01X1923898Y-1600200D03*
G01X9283700Y-1346200D03*
G01X9729597Y-2654300D03*
G01X1116860Y-2133600D03*
G01X817695Y-2082800D03*
G01X1549400Y-1803400D03*
G01X673100Y-3009603D03*
G01X2374900Y-3797300D03*
G01X825500Y-5699768D03*
G01X2057400Y-5778500D03*
G01X1778000Y-5380990D03*
G01X2057400Y-5549900D03*
G01X2184400Y-4889500D03*
G01X2743200Y-4495259D03*
G01X2413000Y-4495259D03*
G54D22*
G01X2222500Y-3987800D03*
G01X2610002Y-3911600D03*
G01X2730500Y-3251741D03*
G01X2400300Y-3251741D03*
G01X507987Y-3810000D03*
G01X1016000Y-2641600D03*
G01X1117600Y-2463800D03*
G01X1487297Y-2705100D03*
G01X495300Y-1943100D03*
G01X2146300Y-1714500D03*
G01X2959100Y-342900D03*
G01X3568700Y-2349500D03*
G01X3441700Y-1905000D03*
G01X3124200Y-2138230D03*
G01X2794000Y-2159000D03*
G01X3492500Y-1513563D03*
G01X4533900Y-1917700D03*
G01X6248604Y-1394103D03*
G01X8115300Y-1778000D03*
G01X9283700Y-1199998D03*
G01X8877300Y-622300D03*
G01X9321800Y-925805D03*
G01X9728200Y-2095500D03*
G01X9156700Y-2849695D03*
G01X8890000Y-2857787D03*
G01X8661400Y-2323803D03*
G01X3569564Y-5054600D03*
G01X4279900Y-5054600D03*
G01X4546600Y-5346700D03*
G01X4635500Y-5715000D03*
G01X4724400Y-5003800D03*
G01X3327400Y-4533900D03*
G01X3441700Y-4038600D03*
G01X3683000Y-3962400D03*
G01X6146800Y-5029200D03*
G01X5448300Y-4914900D03*
G01X3429000Y-3416300D03*
G01X3429000Y-3562502D03*
G01X4089400Y-3276600D03*
G01X4089400Y-3530600D03*
G01X4114800Y-2895600D03*
G01X4114800Y-3035300D03*
G01X4179900Y-2019300D03*
G01X4379900Y-2237262D03*
G01X4507306Y-2324100D03*
G01X4902200Y-2209800D03*
G01X5473700Y-2514600D03*
G01X4978400Y-2338197D03*
G01X5721502Y-2400300D03*
G01X5473700Y-1949958D03*
G01X4775200Y-2857500D03*
G01X4597400Y-3035300D03*
G01X5245100Y-2832100D03*
G01X5232400Y-3012694D03*
G01X5460136Y-3098800D03*
G01X4787900Y-4165600D03*
G01X4921402Y-4165600D03*
G01X5029200Y-3632200D03*
G01X4711700Y-3568700D03*
G01X5308600Y-5918200D03*
G01X5283200Y-5105400D03*
G01X5334000Y-4692498D03*
G01X5207000Y-5003800D03*
G01X6197600Y-5778500D03*
G01X6210300Y-6032500D03*
G01X6001258Y-5981700D03*
G01X6146800Y-5156200D03*
G01X1320800Y-3804158D03*
G01X7556500Y-6032500D03*
G01X7861300Y-5880100D03*
G01X8242300Y-2451100D03*
G01X7899400Y-2501900D03*
G01X8147202Y-2933700D03*
G01X7912100Y-3009900D03*
G01X7663790Y-4222090D03*
G01X6388100Y-4927600D03*
G01X6368898Y-4635500D03*
G01X7086600Y-3880002D03*
G01X7112000Y-3733800D03*
G01X7493000Y-3708400D03*
G01X7480300Y-3556000D03*
G01X7480300Y-4279900D03*
G01X8153400Y-3606800D03*
G01X8248396Y-3911600D03*
G01X7948616Y-4065584D03*
G01X8724900Y-4205300D03*
G01X8934298Y-4330700D03*
G01X9118600Y-4575816D03*
G01X8213369Y-4955972D03*
G01X8445500Y-5168900D03*
G01X8484990Y-4945413D03*
G01X9575800Y-5243500D03*
G01X8788400Y-5778500D03*
G01X8788400Y-5067300D03*
G01X4800600Y-4610100D03*
G01X8432800Y-5613400D03*
G01X3467100Y-4330700D03*
G01X9512300Y-5778500D03*
G01X9347200Y-5816600D03*
G01X9118600Y-5192903D03*
G01X7393417Y-5651500D03*
G01X7393417Y-5461000D03*
G01X7543800Y-5384800D03*
G01X7543800Y-5626100D03*
G04 Via End*

M02*

