G04 Layer: InnerLayer2*
G04 EasyEDA Pro v2.2.42.2, 2025-09-26 15:24:21*
G04 Gerber Generator version 0.3*
G04 Scale: 100 percent, Rotated: No, Reflected: No*
G04 Dimensions in millimeters*
G04 Leading zeros omitted, absolute positions, 4 integers and 5 decimals*
G04 Generated by one-click*
%FSLAX45Y45*%
%MOMM*%
%ADD10R,1.8X1.8*%
%ADD11C,1.8*%
%ADD12C,2.0*%
%ADD13R,1.7X1.7*%
%ADD14C,1.7*%
%ADD15C,1.524*%
%ADD16R,1.6X1.6*%
%ADD17C,1.6*%
%ADD18R,1.6X1.524*%
%ADD19R,1.5241X1.6*%
%ADD20R,1.524X1.6*%
%ADD21C,0.61*%
%ADD22C,0.6096*%
G75*


G04 PlaneZone Start*
G36*
G01X2654300Y-3039257D02*
G03X2657901Y-3039003I0J25653D01*
G01X2667000Y-3039003D01*
G03X2679700Y-3026303I0J12700D01*
G01X2679700Y-3017204D01*
G03X2679954Y-3013603I-25399J3601D01*
G01X2679954Y-2843760D01*
G03X2701354Y-2781300I-80454J62460D01*
G03X2679954Y-2718840I-101854J0D01*
G01X2679954Y-2309943D01*
G03X2679700Y-2306342I-25653J0D01*
G01X2679700Y-2288144D01*
G03X2679954Y-2284543I-25399J3601D01*
G01X2679954Y-1409700D01*
G01X2895600Y-1409700D01*
G03X2904580Y-1405980I-0J12700D01*
G01X3091361Y-1219200D01*
G01X5486400Y-1219200D01*
G01X5486400Y-1866900D01*
G03X5499100Y-1879600I12700J0D01*
G01X5918200Y-1879600D01*
G01X5918200Y-4343400D01*
G01X5588259Y-4343400D01*
G03X5575559Y-4356100I0J-12700D01*
G01X5575559Y-6057900D01*
G03X5588259Y-6070600I12700J0D01*
G01X6134100Y-6070600D01*
G03X6146800Y-6057900I0J12700D01*
G01X6146800Y-5802383D01*
G03X6253734Y-5778500I50800J23883D01*
G03X6146800Y-5754617I-56134J0D01*
G01X6146800Y-5689600D01*
G01X6542535Y-5689600D01*
G01X6542535Y-6187046D01*
G01X3048254Y-6187046D01*
G01X3048254Y-3644900D01*
G03X3048000Y-3641299I-25653J0D01*
G01X3048000Y-3623101D01*
G03X3048254Y-3619500I-25399J3601D01*
G01X3048254Y-3390900D01*
G03X3048000Y-3387299I-25653J0D01*
G01X3048000Y-3378200D01*
G03X3035300Y-3365500I-12700J0D01*
G01X3026201Y-3365500D01*
G03X3022600Y-3365246I-3601J-25399D01*
G01X1288066Y-3365246D01*
G01X1282954Y-3360134D01*
G01X1282954Y-3039257D01*
G01X2654300Y-3039257D01*
G37*
%LPC*%
G36*
G01X2674366Y-3251741D02*
G03X2786634Y-3251741I56134J0D01*
G03X2674366Y-3251741I-56134J0D01*
G37*
G36*
G01X2737866Y-2159000D02*
G03X2850134Y-2159000I56134J0D01*
G03X2737866Y-2159000I-56134J0D01*
G37*
G36*
G01X3271266Y-4533900D02*
G03X3383534Y-4533900I56134J0D01*
G03X3271266Y-4533900I-56134J0D01*
G37*
G36*
G01X3372866Y-3416300D02*
G03X3485134Y-3416300I56134J0D01*
G03X3372866Y-3416300I-56134J0D01*
G37*
G36*
G01X3385566Y-4038600D02*
G03X3497834Y-4038600I56134J0D01*
G03X3385566Y-4038600I-56134J0D01*
G37*
G36*
G01X3385566Y-1905000D02*
G03X3497834Y-1905000I56134J0D01*
G03X3385566Y-1905000I-56134J0D01*
G37*
G36*
G01X3410966Y-4330700D02*
G03X3523234Y-4330700I56134J0D01*
G03X3410966Y-4330700I-56134J0D01*
G37*
G36*
G01X3436366Y-1513563D02*
G03X3548634Y-1513563I56134J0D01*
G03X3436366Y-1513563I-56134J0D01*
G37*
G36*
G01X3625494Y-5947654D02*
G03X3651148Y-5922000I0J25654D01*
G01X3651148Y-5762000D01*
G03X3625494Y-5736346I-25654J0D01*
G01X3473094Y-5736346D01*
G03X3447440Y-5762000I0J-25654D01*
G01X3447440Y-5922000D01*
G03X3473094Y-5947654I25654J0D01*
G01X3625494Y-5947654D01*
G37*
G36*
G01X3512566Y-2349500D02*
G03X3624834Y-2349500I56134J0D01*
G03X3512566Y-2349500I-56134J0D01*
G37*
G36*
G01X3513430Y-5054600D02*
G03X3625698Y-5054600I56134J0D01*
G03X3513430Y-5054600I-56134J0D01*
G37*
G36*
G01X3626866Y-3962400D02*
G03X3739134Y-3962400I56134J0D01*
G03X3626866Y-3962400I-56134J0D01*
G37*
G36*
G01X3693653Y-5842000D02*
G03X3904960Y-5842000I105654J0D01*
G03X3693653Y-5842000I-105654J0D01*
G37*
G36*
G01X3943640Y-5842000D02*
G03X4154947Y-5842000I105654J0D01*
G03X3943640Y-5842000I-105654J0D01*
G37*
G36*
G01X4033266Y-3276600D02*
G03X4145534Y-3276600I56134J0D01*
G03X4033266Y-3276600I-56134J0D01*
G37*
G36*
G01X4033266Y-3530600D02*
G03X4145534Y-3530600I56134J0D01*
G03X4033266Y-3530600I-56134J0D01*
G37*
G36*
G01X4058666Y-2895600D02*
G03X4170934Y-2895600I56134J0D01*
G03X4058666Y-2895600I-56134J0D01*
G37*
G36*
G01X4193652Y-5842000D02*
G03X4404959Y-5842000I105654J0D01*
G03X4193652Y-5842000I-105654J0D01*
G37*
G36*
G01X4223766Y-5054600D02*
G03X4336034Y-5054600I56134J0D01*
G03X4223766Y-5054600I-56134J0D01*
G37*
G36*
G01X4323766Y-2237262D02*
G03X4436034Y-2237262I56134J0D01*
G03X4323766Y-2237262I-56134J0D01*
G37*
G36*
G01X4451172Y-2324100D02*
G03X4563440Y-2324100I56134J0D01*
G03X4451172Y-2324100I-56134J0D01*
G37*
G36*
G01X4477766Y-1917700D02*
G03X4590034Y-1917700I56134J0D01*
G03X4477766Y-1917700I-56134J0D01*
G37*
G36*
G01X4490466Y-5346700D02*
G03X4602734Y-5346700I56134J0D01*
G03X4490466Y-5346700I-56134J0D01*
G37*
G36*
G01X4541266Y-3035300D02*
G03X4653534Y-3035300I56134J0D01*
G03X4541266Y-3035300I-56134J0D01*
G37*
G36*
G01X4579366Y-5715000D02*
G03X4691634Y-5715000I56134J0D01*
G03X4579366Y-5715000I-56134J0D01*
G37*
G36*
G01X4655566Y-3568700D02*
G03X4767834Y-3568700I56134J0D01*
G03X4655566Y-3568700I-56134J0D01*
G37*
G36*
G01X4668266Y-5003800D02*
G03X4780534Y-5003800I56134J0D01*
G03X4668266Y-5003800I-56134J0D01*
G37*
G36*
G01X4731766Y-4165600D02*
G03X4844034Y-4165600I56134J0D01*
G03X4731766Y-4165600I-56134J0D01*
G37*
G36*
G01X4969754Y-1625600D02*
G03X4758446Y-1625600I-105654J0D01*
G03X4969754Y-1625600I105654J0D01*
G37*
G36*
G01X4846066Y-2209800D02*
G03X4958334Y-2209800I56134J0D01*
G03X4846066Y-2209800I-56134J0D01*
G37*
G36*
G01X4922266Y-2338197D02*
G03X5034534Y-2338197I56134J0D01*
G03X4922266Y-2338197I-56134J0D01*
G37*
G36*
G01X4973066Y-3632200D02*
G03X5085334Y-3632200I56134J0D01*
G03X4973066Y-3632200I-56134J0D01*
G37*
G36*
G01X5223754Y-1625600D02*
G03X5012446Y-1625600I-105654J0D01*
G03X5223754Y-1625600I105654J0D01*
G37*
G36*
G01X5150866Y-5003800D02*
G03X5263134Y-5003800I56134J0D01*
G03X5150866Y-5003800I-56134J0D01*
G37*
G36*
G01X5176266Y-3012694D02*
G03X5288534Y-3012694I56134J0D01*
G03X5176266Y-3012694I-56134J0D01*
G37*
G36*
G01X5188966Y-2832100D02*
G03X5301234Y-2832100I56134J0D01*
G03X5188966Y-2832100I-56134J0D01*
G37*
G36*
G01X5227066Y-5105400D02*
G03X5339334Y-5105400I56134J0D01*
G03X5227066Y-5105400I-56134J0D01*
G37*
G36*
G01X5252466Y-5918200D02*
G03X5364734Y-5918200I56134J0D01*
G03X5252466Y-5918200I-56134J0D01*
G37*
G36*
G01X5292100Y-1519946D02*
G03X5266446Y-1545600I0J-25654D01*
G01X5266446Y-1705600D01*
G03X5292100Y-1731254I25654J0D01*
G01X5452100Y-1731254D01*
G03X5477754Y-1705600I0J25654D01*
G01X5477754Y-1545600D01*
G03X5452100Y-1519946I-25654J0D01*
G01X5292100Y-1519946D01*
G37*
G36*
G01X5277866Y-4692498D02*
G03X5390134Y-4692498I56134J0D01*
G03X5277866Y-4692498I-56134J0D01*
G37*
G36*
G01X5404002Y-3098800D02*
G03X5516270Y-3098800I56134J0D01*
G03X5404002Y-3098800I-56134J0D01*
G37*
G36*
G01X5417566Y-1949958D02*
G03X5529834Y-1949958I56134J0D01*
G03X5417566Y-1949958I-56134J0D01*
G37*
G36*
G01X5629746Y-3437800D02*
G03X5655400Y-3463454I25654J0D01*
G01X5825400Y-3463454D01*
G03X5851054Y-3437800I0J25654D01*
G01X5851054Y-3267800D01*
G03X5825400Y-3242146I-25654J0D01*
G01X5655400Y-3242146D01*
G03X5629746Y-3267800I0J-25654D01*
G01X5629746Y-3437800D01*
G37*
G36*
G01X5740400Y-3496146D02*
G03X5740400Y-3717454I0J-110654D01*
G03X5740400Y-3496146I0J110654D01*
G37*
G36*
G01X5740400Y-3750146D02*
G03X5740400Y-3971454I0J-110654D01*
G03X5740400Y-3750146I0J110654D01*
G37*
G36*
G01X5740400Y-4004146D02*
G03X5740400Y-4225454I0J-110654D01*
G03X5740400Y-4004146I0J110654D01*
G37*
G36*
G01X5665368Y-2400300D02*
G03X5777636Y-2400300I56134J0D01*
G03X5665368Y-2400300I-56134J0D01*
G37*
G36*
G01X6154166Y-6032500D02*
G03X6266434Y-6032500I56134J0D01*
G03X6154166Y-6032500I-56134J0D01*
G37*
%LPD*%
G36*
G01X2236744Y-1266399D02*
G01X2236744Y-1248201D01*
G03X2236998Y-1244600I-25399J3601D01*
G01X2236998Y-930490D01*
G03X2251954Y-876300I-90698J54190D01*
G03X2236998Y-822110I-105654J0D01*
G01X2236998Y-212954D01*
G01X3891200Y-212954D01*
G01X3891200Y-654744D01*
G03X3903900Y-667444I12700J0D01*
G01X5047288Y-667444D01*
G03X5124978Y-868772I77690J-85674D01*
G03X5202668Y-667444I0J115654D01*
G01X5547287Y-667444D01*
G03X5624977Y-868772I77690J-85674D01*
G03X5702667Y-667444I0J115654D01*
G01X5724969Y-667444D01*
G03X5737669Y-654744I0J12700D01*
G01X5737669Y-212954D01*
G01X7429500Y-212954D01*
G01X7429500Y-1079500D01*
G01X6832600Y-1079500D01*
G03X6819900Y-1092200I0J-12700D01*
G01X6819900Y-1854200D01*
G01X5921801Y-1854200D01*
G03X5918200Y-1853946I-3601J-25399D01*
G01X5512054Y-1853946D01*
G01X5512054Y-1219200D01*
G03X5511800Y-1215599I-25653J0D01*
G01X5511800Y-1206500D01*
G03X5499100Y-1193800I-12700J0D01*
G01X5490001Y-1193800D01*
G03X5486400Y-1193546I-3601J-25399D01*
G01X3091361Y-1193546D01*
G03X3087759Y-1193800I0J-25655D01*
G01X3086100Y-1193800D01*
G03X3077120Y-1197520I0J-12700D01*
G01X3075946Y-1198693D01*
G03X3073220Y-1201060I15414J-20507D01*
G01X2890234Y-1384046D01*
G01X2679700Y-1384046D01*
G03X2676099Y-1384300I0J-25653D01*
G01X2657901Y-1384300D01*
G03X2654300Y-1384046I-3601J-25399D01*
G01X2374900Y-1384046D01*
G03X2371299Y-1384300I0J-25653D01*
G01X2353101Y-1384300D01*
G03X2349500Y-1384046I-3601J-25399D01*
G01X2236998Y-1384046D01*
G01X2236998Y-1270000D01*
G03X2236744Y-1266399I-25653J0D01*
G37*
%LPC*%
G36*
G01X2505954Y-876300D02*
G03X2294646Y-876300I-105654J0D01*
G03X2505954Y-876300I105654J0D01*
G37*
G36*
G01X2902966Y-342900D02*
G03X3015234Y-342900I56134J0D01*
G03X2902966Y-342900I-56134J0D01*
G37*
G36*
G01X3658151Y-533400D02*
G03X3889459Y-533400I115654J0D01*
G03X3658151Y-533400I-115654J0D01*
G37*
G36*
G01X4874966Y-887477D02*
G03X4874966Y-1118784I0J-115654D01*
G03X4874966Y-887477I0J115654D01*
G37*
G36*
G01X5374965Y-887477D02*
G03X5374965Y-1118784I0J-115654D01*
G03X5374965Y-887477I0J115654D01*
G37*
G36*
G01X6192470Y-1394103D02*
G03X6304738Y-1394103I56134J0D01*
G03X6192470Y-1394103I-56134J0D01*
G37*
G36*
G01X7146280Y-863686D02*
G03X7146280Y-1074994I0J-105654D01*
G03X7146280Y-863686I0J105654D01*
G37*
%LPD*%
G36*
G01X5892800Y-6044946D02*
G01X5892800Y-6043541D01*
G03X5893054Y-6039939I-25401J3601D01*
G01X5893054Y-4889754D01*
G01X6346643Y-4889754D01*
G03X6388100Y-4983734I41457J-37846D01*
G03X6429557Y-4889754I0J56134D01*
G01X7404100Y-4889754D01*
G03X7407701Y-4889500I0J25653D01*
G01X7416800Y-4889500D01*
G03X7429500Y-4876800I0J12700D01*
G01X7429500Y-4867701D01*
G03X7429754Y-4864100I-25399J3601D01*
G01X7429754Y-4304316D01*
G03X7536434Y-4279900I50546J24416D01*
G03X7429754Y-4255484I-56134J0D01*
G01X7429754Y-3580416D01*
G03X7536434Y-3556000I50546J24416D01*
G03X7429754Y-3531584I-56134J0D01*
G01X7429754Y-2565654D01*
G01X7543800Y-2565654D01*
G03X7547401Y-2565400I0J25653D01*
G01X7899400Y-2565400D01*
G03X7911445Y-2556726I-0J12700D01*
G03X7955533Y-2502236I-12045J54827D01*
G03X7912100Y-2447221I-56133J336D01*
G01X7912100Y-2052195D01*
G01X9581005Y-2052195D01*
G01X9581005Y-3035300D01*
G03X9593705Y-3048000I12700J0D01*
G01X9842246Y-3048000D01*
G01X9842246Y-6187046D01*
G01X7208634Y-6187046D01*
G01X7208634Y-5613400D01*
G03X7195934Y-5600700I-12700J0D01*
G01X6134100Y-5600700D01*
G03X6121400Y-5613400I0J-12700D01*
G01X6121400Y-5685999D01*
G03X6121146Y-5689600I25399J-3601D01*
G01X6121146Y-6044946D01*
G01X5892800Y-6044946D01*
G37*
%LPC*%
G36*
G01X5945124Y-5981700D02*
G03X6057392Y-5981700I56134J0D01*
G03X5945124Y-5981700I-56134J0D01*
G37*
G36*
G01X6090666Y-5156200D02*
G03X6202934Y-5156200I56134J0D01*
G03X6090666Y-5156200I-56134J0D01*
G37*
G36*
G01X7337283Y-5461000D02*
G03X7449551Y-5461000I56134J0D01*
G03X7337283Y-5461000I-56134J0D01*
G37*
G36*
G01X7337283Y-5651500D02*
G03X7449551Y-5651500I56134J0D01*
G03X7337283Y-5651500I-56134J0D01*
G37*
G36*
G01X7487666Y-5626100D02*
G03X7599934Y-5626100I56134J0D01*
G03X7487666Y-5626100I-56134J0D01*
G37*
G36*
G01X7487666Y-5384800D02*
G03X7599934Y-5384800I56134J0D01*
G03X7487666Y-5384800I-56134J0D01*
G37*
G36*
G01X7500366Y-6032500D02*
G03X7612634Y-6032500I56134J0D01*
G03X7500366Y-6032500I-56134J0D01*
G37*
G36*
G01X7855966Y-3009900D02*
G03X7968234Y-3009900I56134J0D01*
G03X7855966Y-3009900I-56134J0D01*
G37*
G36*
G01X7892482Y-4065584D02*
G03X8004750Y-4065584I56134J0D01*
G03X7892482Y-4065584I-56134J0D01*
G37*
G36*
G01X8091068Y-2933700D02*
G03X8203336Y-2933700I56134J0D01*
G03X8091068Y-2933700I-56134J0D01*
G37*
G36*
G01X8097266Y-3606800D02*
G03X8209534Y-3606800I56134J0D01*
G03X8097266Y-3606800I-56134J0D01*
G37*
G36*
G01X8376666Y-5613400D02*
G03X8488934Y-5613400I56134J0D01*
G03X8376666Y-5613400I-56134J0D01*
G37*
G36*
G01X8389366Y-5168900D02*
G03X8501634Y-5168900I56134J0D01*
G03X8389366Y-5168900I-56134J0D01*
G37*
G36*
G01X8428856Y-4945413D02*
G03X8541124Y-4945413I56134J0D01*
G03X8428856Y-4945413I-56134J0D01*
G37*
G36*
G01X8668766Y-4205300D02*
G03X8781034Y-4205300I56134J0D01*
G03X8668766Y-4205300I-56134J0D01*
G37*
G36*
G01X8732266Y-5067300D02*
G03X8844534Y-5067300I56134J0D01*
G03X8732266Y-5067300I-56134J0D01*
G37*
G36*
G01X8732266Y-5778500D02*
G03X8844534Y-5778500I56134J0D01*
G03X8732266Y-5778500I-56134J0D01*
G37*
G36*
G01X8833866Y-2857787D02*
G03X8946134Y-2857787I56134J0D01*
G03X8833866Y-2857787I-56134J0D01*
G37*
G36*
G01X8971084Y-4597400D02*
G01X9066781Y-4597400D01*
G03X9170419Y-4597400I51819J21584D01*
G01X9372600Y-4597400D01*
G03X9385300Y-4584700I0J12700D01*
G01X9385300Y-3972695D01*
G03X9372600Y-3959995I-12700J0D01*
G01X8971084Y-3959995D01*
G03X8958384Y-3972695I0J-12700D01*
G01X8958384Y-4584700D01*
G03X8971084Y-4597400I12700J0D01*
G37*
G36*
G01X9062466Y-5192903D02*
G03X9174734Y-5192903I56134J0D01*
G03X9062466Y-5192903I-56134J0D01*
G37*
G36*
G01X9100566Y-2849695D02*
G03X9212834Y-2849695I56134J0D01*
G03X9100566Y-2849695I-56134J0D01*
G37*
G36*
G01X9291066Y-5816600D02*
G03X9403334Y-5816600I56134J0D01*
G03X9291066Y-5816600I-56134J0D01*
G37*
G36*
G01X9519666Y-5243500D02*
G03X9631934Y-5243500I56134J0D01*
G03X9519666Y-5243500I-56134J0D01*
G37*
G36*
G01X9808454Y-4591406D02*
G03X9782800Y-4565752I-25654J0D01*
G01X9622800Y-4565752D01*
G03X9597146Y-4591406I0J-25654D01*
G01X9597146Y-4743806D01*
G03X9622800Y-4769460I25654J0D01*
G01X9782800Y-4769460D01*
G03X9808454Y-4743806I0J25654D01*
G01X9808454Y-4591406D01*
G37*
G36*
G01X9702800Y-4023248D02*
G03X9702800Y-3811941I0J105654D01*
G03X9702800Y-4023248I0J-105654D01*
G37*
G36*
G01X9702800Y-4273260D02*
G03X9702800Y-4061953I0J105654D01*
G03X9702800Y-4273260I0J-105654D01*
G37*
G36*
G01X9702800Y-4523247D02*
G03X9702800Y-4311940I0J105654D01*
G03X9702800Y-4523247I0J-105654D01*
G37*
%LPD*%
G36*
G01X55150Y-6187046D02*
G01X55150Y-1564691D01*
G01X613155Y-1564691D01*
G01X622300Y-1573836D01*
G01X622300Y-2297243D01*
G03X635000Y-2309943I12700J0D01*
G01X995205Y-2309943D01*
G01X995205Y-2589460D01*
G03X959866Y-2641600I20795J-52140D01*
G03X995205Y-2693740I56134J0D01*
G01X995205Y-3632200D01*
G03X1007905Y-3644900I12700J0D01*
G01X3022600Y-3644900D01*
G01X3022600Y-6187046D01*
G01X55150Y-6187046D01*
G37*
%LPC*%
G36*
G01X406400Y-4771840D02*
G03X406400Y-5003147I0J-115654D01*
G03X406400Y-4771840I0J115654D01*
G37*
G36*
G01X290746Y-4727506D02*
G03X316400Y-4753160I25654J0D01*
G01X496400Y-4753160D01*
G03X522054Y-4727506I0J25654D01*
G01X522054Y-4547507D01*
G03X496400Y-4521853I-25654J0D01*
G01X316400Y-4521853D01*
G03X290746Y-4547507I0J-25654D01*
G01X290746Y-4727506D01*
G37*
G36*
G01X290746Y-5692706D02*
G03X316400Y-5718360I25654J0D01*
G01X496400Y-5718360D01*
G03X522054Y-5692706I0J25654D01*
G01X522054Y-5512707D01*
G03X496400Y-5487053I-25654J0D01*
G01X316400Y-5487053D01*
G03X290746Y-5512707I0J-25654D01*
G01X290746Y-5692706D01*
G37*
G36*
G01X406400Y-5737040D02*
G03X406400Y-5968347I0J-115654D01*
G03X406400Y-5737040I0J115654D01*
G37*
G36*
G01X439166Y-1943100D02*
G03X551434Y-1943100I56134J0D01*
G03X439166Y-1943100I-56134J0D01*
G37*
G36*
G01X451853Y-3810000D02*
G03X564121Y-3810000I56134J0D01*
G03X451853Y-3810000I-56134J0D01*
G37*
G36*
G01X769346Y-5699768D02*
G03X881654Y-5699768I56154J0D01*
G03X769346Y-5699768I-56154J0D01*
G37*
G36*
G01X1143000Y-5928055D02*
G03X1143000Y-6179363I0J-125654D01*
G03X1143000Y-5928055I0J125654D01*
G37*
G36*
G01X1143000Y-4768037D02*
G03X1143000Y-5019345I0J-125654D01*
G03X1143000Y-4768037I0J125654D01*
G37*
G36*
G01X1264666Y-3804158D02*
G03X1376934Y-3804158I56134J0D01*
G03X1264666Y-3804158I-56134J0D01*
G37*
G36*
G01X1529406Y-4757035D02*
G03X1529406Y-4535728I0J110654D01*
G03X1529406Y-4757035I0J-110654D01*
G37*
G36*
G01X1529406Y-5011035D02*
G03X1529406Y-4789728I0J110654D01*
G03X1529406Y-5011035I0J-110654D01*
G37*
G36*
G01X1640060Y-5069382D02*
G03X1614406Y-5043728I-25654J0D01*
G01X1444407Y-5043728D01*
G03X1418753Y-5069382I0J-25654D01*
G01X1418753Y-5239381D01*
G03X1444407Y-5265035I25654J0D01*
G01X1614406Y-5265035D01*
G03X1640060Y-5239381I0J25654D01*
G01X1640060Y-5069382D01*
G37*
G36*
G01X1721846Y-5380990D02*
G03X1834154Y-5380990I56154J0D01*
G03X1721846Y-5380990I-56154J0D01*
G37*
G36*
G01X2001246Y-5549900D02*
G03X2113554Y-5549900I56154J0D01*
G03X2001246Y-5549900I-56154J0D01*
G37*
G36*
G01X2001246Y-5778500D02*
G03X2113554Y-5778500I56154J0D01*
G03X2001246Y-5778500I-56154J0D01*
G37*
G36*
G01X2128246Y-4889500D02*
G03X2240554Y-4889500I56154J0D01*
G03X2128246Y-4889500I-56154J0D01*
G37*
G36*
G01X2166366Y-3987800D02*
G03X2278634Y-3987800I56134J0D01*
G03X2166366Y-3987800I-56134J0D01*
G37*
G36*
G01X2356846Y-4495259D02*
G03X2469154Y-4495259I56154J0D01*
G03X2356846Y-4495259I-56154J0D01*
G37*
G36*
G01X2553868Y-3911600D02*
G03X2666136Y-3911600I56134J0D01*
G03X2553868Y-3911600I-56134J0D01*
G37*
G36*
G01X2687046Y-4495259D02*
G03X2799354Y-4495259I56154J0D01*
G03X2687046Y-4495259I-56154J0D01*
G37*
%LPD*%
G36*
G01X8978900Y-1455022D02*
G01X7547401Y-1455022D01*
G03X7543800Y-1454768I-3601J-25399D01*
G01X7455154Y-1454768D01*
G01X7455153Y-1105154D01*
G01X9842246Y-1105154D01*
G01X9842246Y-3022346D01*
G01X9606659Y-3022346D01*
G01X9606659Y-2052195D01*
G03X9606405Y-2048594I-25653J0D01*
G01X9606405Y-2039495D01*
G03X9593705Y-2026795I-12700J0D01*
G01X9584606Y-2026795D01*
G03X9581005Y-2026541I-3601J-25399D01*
G01X8991600Y-2026541D01*
G01X8991600Y-1467722D01*
G03X8978900Y-1455022I-12700J0D01*
G37*
%LPC*%
G36*
G01X9227566Y-1199998D02*
G03X9339834Y-1199998I56134J0D01*
G03X9227566Y-1199998I-56134J0D01*
G37*
G36*
G01X9672066Y-2095500D02*
G03X9784334Y-2095500I56134J0D01*
G03X9672066Y-2095500I-56134J0D01*
G37*
%LPD*%
G36*
G01X2654300Y-2284543D02*
G01X998806Y-2284543D01*
G03X995205Y-2284289I-3601J-25399D01*
G01X647954Y-2284289D01*
G01X647954Y-1581529D01*
G01X1689100Y-1581529D01*
G01X1689100Y-2015013D01*
G03X1701800Y-2027713I12700J0D01*
G01X2362200Y-2027713D01*
G03X2374900Y-2015013I0J12700D01*
G01X2374900Y-1409700D01*
G01X2654300Y-1409700D01*
G01X2654300Y-2284543D01*
G37*
G36*
G01X3916854Y-212954D02*
G01X3966967Y-212954D01*
G03X3983233Y-212954I8133J9754D01*
G01X5712015Y-212954D01*
G01X5712015Y-641790D01*
G01X5656310Y-641790D01*
G03X5593643Y-641790I-31333J-111329D01*
G01X5156311Y-641790D01*
G03X5124978Y-637464I-31333J-111329D01*
G03X5093644Y-641790I0J-115654D01*
G01X4064337Y-641790D01*
G03X4106983Y-452846I-40342J108390D01*
G03X3916854Y-489850I-82988J-80554D01*
G01X3916854Y-212954D01*
G37*
%LPC*%
G36*
G01X4874966Y-387478D02*
G03X4874966Y-618785I0J-115654D01*
G03X4874966Y-387478I0J115654D01*
G37*
G36*
G01X5374965Y-387478D02*
G03X5374965Y-618785I0J-115654D01*
G03X5374965Y-387478I0J115654D01*
G37*
%LPD*%
G36*
G01X7886700Y-2039495D02*
G01X7886700Y-2048594D01*
G03X7886446Y-2052195I25399J-3601D01*
G01X7886446Y-2447281D01*
G03X7845757Y-2485364I12954J-54619D01*
G03X7857943Y-2539746I53643J-16536D01*
G01X7569454Y-2539746D01*
G01X7569454Y-1480676D01*
G01X8965946Y-1480676D01*
G01X8965947Y-2026541D01*
G01X7912100Y-2026541D01*
G03X7908499Y-2026795I0J-25653D01*
G01X7899400Y-2026795D01*
G03X7886700Y-2039495I0J-12700D01*
G37*
%LPC*%
G36*
G01X8059166Y-1778000D02*
G03X8171434Y-1778000I56134J0D01*
G03X8059166Y-1778000I-56134J0D01*
G37*
%LPD*%
G36*
G01X1714500Y-1577674D02*
G01X1714500Y-1559476D01*
G03X1714754Y-1555875I-25399J3601D01*
G01X1714754Y-1270254D01*
G01X2211344Y-1270254D01*
G01X2211344Y-1390931D01*
G03X2222500Y-1409700I11156J-6069D01*
G01X2349246Y-1409700D01*
G01X2349246Y-2002059D01*
G01X1714754Y-2002059D01*
G01X1714754Y-1581275D01*
G03X1714500Y-1577674I-25653J0D01*
G37*
%LPC*%
G36*
G01X2090166Y-1714500D02*
G03X2202434Y-1714500I56134J0D01*
G03X2090166Y-1714500I-56134J0D01*
G37*
%LPD*%
G36*
G01X5464710Y-1015830D02*
G02X5464710Y-990430I0J12700D01*
G01X5490618Y-990430D01*
G02X5490618Y-1015830I0J-12700D01*
G01X5464710Y-1015830D01*
G37*
G36*
G01X5259311Y-1015830D02*
G02X5259311Y-990430I0J12700D01*
G01X5285219Y-990430D01*
G02X5285219Y-1015830I0J-12700D01*
G01X5259311Y-1015830D01*
G37*
G36*
G01X5464710Y-515831D02*
G02X5464710Y-490431I0J12700D01*
G01X5490618Y-490431D01*
G02X5490618Y-515831I0J-12700D01*
G01X5464710Y-515831D01*
G37*
G36*
G01X5259311Y-515831D02*
G02X5259311Y-490431I0J12700D01*
G01X5285219Y-490431D01*
G02X5285219Y-515831I0J-12700D01*
G01X5259311Y-515831D01*
G37*
G36*
G01X5825146Y-3365500D02*
G02X5825146Y-3340100I0J12700D01*
G01X5851054Y-3340100D01*
G02X5851054Y-3365500I0J-12700D01*
G01X5825146Y-3365500D01*
G37*
G36*
G01X5629746Y-3365500D02*
G02X5629746Y-3340100I0J12700D01*
G01X5655654Y-3340100D01*
G02X5655654Y-3365500I0J-12700D01*
G01X5629746Y-3365500D01*
G37*
G36*
G01X4113741Y-546100D02*
G02X4113741Y-520700I0J12700D01*
G01X4139649Y-520700D01*
G02X4139649Y-546100I0J-12700D01*
G01X4113741Y-546100D01*
G37*
G36*
G01X5753100Y-3268054D02*
G02X5727700Y-3268054I-12700J0D01*
G01X5727700Y-3242146D01*
G02X5753100Y-3242146I12700J0D01*
G01X5753100Y-3268054D01*
G37*
G36*
G01X5727700Y-3437546D02*
G02X5753100Y-3437546I12700J0D01*
G01X5753100Y-3463454D01*
G02X5727700Y-3463454I-12700J0D01*
G01X5727700Y-3437546D01*
G37*
G36*
G01X5387665Y-913385D02*
G02X5362265Y-913385I-12700J0D01*
G01X5362265Y-887477D01*
G02X5387665Y-887477I12700J0D01*
G01X5387665Y-913385D01*
G37*
G36*
G01X5362265Y-1092876D02*
G02X5387665Y-1092876I12700J0D01*
G01X5387665Y-1118784D01*
G02X5362265Y-1118784I-12700J0D01*
G01X5362265Y-1092876D01*
G37*
G36*
G01X5387665Y-413386D02*
G02X5362265Y-413386I-12700J0D01*
G01X5362265Y-387478D01*
G02X5387665Y-387478I12700J0D01*
G01X5387665Y-413386D01*
G37*
G36*
G01X4036695Y-443654D02*
G02X4011295Y-443654I-12700J0D01*
G01X4011295Y-417746D01*
G02X4036695Y-417746I12700J0D01*
G01X4036695Y-443654D01*
G37*
G36*
G01X5362265Y-592877D02*
G02X5387665Y-592877I12700J0D01*
G01X5387665Y-618785D01*
G02X5362265Y-618785I-12700J0D01*
G01X5362265Y-592877D01*
G37*
G04 PlaneZone End*

G04 Pad Start*
G54D10*
G01X406400Y-4637507D03*
G54D11*
G01X406400Y-4887493D03*
G54D10*
G01X406400Y-5602707D03*
G54D11*
G01X406400Y-5852693D03*
G54D12*
G01X1143000Y-4893691D03*
G01X1143000Y-6053709D03*
G54D13*
G01X1529406Y-5154381D03*
G54D14*
G01X1529406Y-4900381D03*
G01X1529406Y-4646381D03*
G54D15*
G01X8013687Y-571500D03*
G01X8263700Y-571500D03*
G01X7763701Y-571500D03*
G01X2349487Y-2781300D03*
G01X2599500Y-2781300D03*
G01X2099501Y-2781300D03*
G54D11*
G01X4874966Y-503131D03*
G01X5374965Y-503131D03*
G01X5124978Y-753118D03*
G01X5624977Y-753118D03*
G01X4874966Y-1003130D03*
G01X5374965Y-1003130D03*
G54D16*
G01X5372100Y-1625600D03*
G54D17*
G01X5118100Y-1625600D03*
G01X4864100Y-1625600D03*
G01X7146280Y-969340D03*
G01X7146280Y-1223340D03*
G01X7146280Y-1731340D03*
G01X7146280Y-2239340D03*
G01X2400300Y-876300D03*
G01X2146300Y-876300D03*
G01X1638300Y-876300D03*
G01X1130300Y-876300D03*
G01X9702800Y-3917594D03*
G01X9702800Y-4167607D03*
G01X9702800Y-4417593D03*
G54D18*
G01X9702800Y-4667606D03*
G54D13*
G01X5740400Y-3352800D03*
G54D14*
G01X5740400Y-3606800D03*
G01X5740400Y-3860800D03*
G01X5740400Y-4114800D03*
G54D17*
G01X4299306Y-5842000D03*
G01X4049293Y-5842000D03*
G01X3799307Y-5842000D03*
G54D20*
G01X3549294Y-5842000D03*
G54D11*
G01X3773805Y-533400D03*
G01X4023995Y-533400D03*
G54D17*
G01X7001408Y-4330700D03*
G01X6511392Y-4330700D03*
G04 Pad End*

G04 Via Start*
G54D21*
G01X7823200Y-1854200D03*
G01X1841500Y-1422400D03*
G01X8337702Y-1892300D03*
G01X8737600Y-1854200D03*
G01X1923898Y-1600200D03*
G01X9283700Y-1346200D03*
G01X9729597Y-2654300D03*
G01X1116860Y-2133600D03*
G01X817695Y-2082800D03*
G01X1549400Y-1803400D03*
G01X673100Y-3009603D03*
G01X2374900Y-3797300D03*
G01X825500Y-5699768D03*
G01X2057400Y-5778500D03*
G01X1778000Y-5380990D03*
G01X2057400Y-5549900D03*
G01X2184400Y-4889500D03*
G01X2743200Y-4495259D03*
G01X2413000Y-4495259D03*
G54D22*
G01X2222500Y-3987800D03*
G01X2610002Y-3911600D03*
G01X2730500Y-3251741D03*
G01X2400300Y-3251741D03*
G01X507987Y-3810000D03*
G01X1016000Y-2641600D03*
G01X1117600Y-2463800D03*
G01X1487297Y-2705100D03*
G01X495300Y-1943100D03*
G01X2146300Y-1714500D03*
G01X2959100Y-342900D03*
G01X3568700Y-2349500D03*
G01X3441700Y-1905000D03*
G01X3124200Y-2138230D03*
G01X2794000Y-2159000D03*
G01X3492500Y-1513563D03*
G01X4533900Y-1917700D03*
G01X6248604Y-1394103D03*
G01X8115300Y-1778000D03*
G01X9283700Y-1199998D03*
G01X8877300Y-622300D03*
G01X9321800Y-925805D03*
G01X9728200Y-2095500D03*
G01X9156700Y-2849695D03*
G01X8890000Y-2857787D03*
G01X8661400Y-2323803D03*
G01X3569564Y-5054600D03*
G01X4279900Y-5054600D03*
G01X4546600Y-5346700D03*
G01X4635500Y-5715000D03*
G01X4724400Y-5003800D03*
G01X3327400Y-4533900D03*
G01X3441700Y-4038600D03*
G01X3683000Y-3962400D03*
G01X6146800Y-5029200D03*
G01X5448300Y-4914900D03*
G01X3429000Y-3416300D03*
G01X3429000Y-3562502D03*
G01X4089400Y-3276600D03*
G01X4089400Y-3530600D03*
G01X4114800Y-2895600D03*
G01X4114800Y-3035300D03*
G01X4179900Y-2019300D03*
G01X4379900Y-2237262D03*
G01X4507306Y-2324100D03*
G01X4902200Y-2209800D03*
G01X5473700Y-2514600D03*
G01X4978400Y-2338197D03*
G01X5721502Y-2400300D03*
G01X5473700Y-1949958D03*
G01X4775200Y-2857500D03*
G01X4597400Y-3035300D03*
G01X5245100Y-2832100D03*
G01X5232400Y-3012694D03*
G01X5460136Y-3098800D03*
G01X4787900Y-4165600D03*
G01X4921402Y-4165600D03*
G01X5029200Y-3632200D03*
G01X4711700Y-3568700D03*
G01X5308600Y-5918200D03*
G01X5283200Y-5105400D03*
G01X5334000Y-4692498D03*
G01X5207000Y-5003800D03*
G01X6197600Y-5778500D03*
G01X6210300Y-6032500D03*
G01X6001258Y-5981700D03*
G01X6146800Y-5156200D03*
G01X1320800Y-3804158D03*
G01X7556500Y-6032500D03*
G01X7861300Y-5880100D03*
G01X8242300Y-2451100D03*
G01X7899400Y-2501900D03*
G01X8147202Y-2933700D03*
G01X7912100Y-3009900D03*
G01X7663790Y-4222090D03*
G01X6388100Y-4927600D03*
G01X6368898Y-4635500D03*
G01X7086600Y-3880002D03*
G01X7112000Y-3733800D03*
G01X7493000Y-3708400D03*
G01X7480300Y-3556000D03*
G01X7480300Y-4279900D03*
G01X8153400Y-3606800D03*
G01X8248396Y-3911600D03*
G01X7948616Y-4065584D03*
G01X8724900Y-4205300D03*
G01X8934298Y-4330700D03*
G01X9118600Y-4575816D03*
G01X8213369Y-4955972D03*
G01X8445500Y-5168900D03*
G01X8484990Y-4945413D03*
G01X9575800Y-5243500D03*
G01X8788400Y-5778500D03*
G01X8788400Y-5067300D03*
G01X4800600Y-4610100D03*
G01X8432800Y-5613400D03*
G01X3467100Y-4330700D03*
G01X9512300Y-5778500D03*
G01X9347200Y-5816600D03*
G01X9118600Y-5192903D03*
G01X7393417Y-5651500D03*
G01X7393417Y-5461000D03*
G01X7543800Y-5384800D03*
G01X7543800Y-5626100D03*
G04 Via End*

M02*

