G04 Layer: BottomSilkscreenLayer*
G04 EasyEDA Pro v2.2.42.2, 2025-09-26 15:24:21*
G04 Gerber Generator version 0.3*
G04 Scale: 100 percent, Rotated: No, Reflected: No*
G04 Dimensions in millimeters*
G04 Leading zeros omitted, absolute positions, 4 integers and 5 decimals*
G04 Generated by one-click*
%FSLAX45Y45*%
%MOMM*%
%ADD10C,0.1524*%
%ADD11C,0.254*%
%ADD12C,0.08001*%
%ADD13C,0.0913*%
G75*


G04 Text Start*
G54D10*
G01X3171698Y-4391660D02*
G01X3174746Y-4385310D01*
G01X3181096Y-4379214D01*
G01X3187192Y-4376166D01*
G01X3199638Y-4376166D01*
G01X3205734Y-4379214D01*
G01X3212084Y-4385310D01*
G01X3215132Y-4391660D01*
G01X3218180Y-4400804D01*
G01X3218180Y-4416298D01*
G01X3215132Y-4425696D01*
G01X3212084Y-4431792D01*
G01X3205734Y-4438142D01*
G01X3199638Y-4441190D01*
G01X3187192Y-4441190D01*
G01X3181096Y-4438142D01*
G01X3174746Y-4431792D01*
G01X3171698Y-4425696D01*
G01X3135376Y-4376166D02*
G01X3101340Y-4376166D01*
G01X3119882Y-4400804D01*
G01X3110738Y-4400804D01*
G01X3104388Y-4403852D01*
G01X3101340Y-4407154D01*
G01X3098292Y-4416298D01*
G01X3098292Y-4422648D01*
G01X3101340Y-4431792D01*
G01X3107436Y-4438142D01*
G01X3116834Y-4441190D01*
G01X3126232Y-4441190D01*
G01X3135376Y-4438142D01*
G01X3138424Y-4434840D01*
G01X3141472Y-4428744D01*
G01X3030982Y-4376166D02*
G01X3061970Y-4376166D01*
G01X3065018Y-4403852D01*
G01X3061970Y-4400804D01*
G01X3052826Y-4397756D01*
G01X3043428Y-4397756D01*
G01X3034030Y-4400804D01*
G01X3027934Y-4407154D01*
G01X3024886Y-4416298D01*
G01X3024886Y-4422648D01*
G01X3027934Y-4431792D01*
G01X3034030Y-4438142D01*
G01X3043428Y-4441190D01*
G01X3052826Y-4441190D01*
G01X3061970Y-4438142D01*
G01X3065018Y-4434840D01*
G01X3068066Y-4428744D01*
G01X4238498Y-2727960D02*
G01X4241546Y-2721610D01*
G01X4247896Y-2715514D01*
G01X4253992Y-2712466D01*
G01X4266438Y-2712466D01*
G01X4272534Y-2715514D01*
G01X4278884Y-2721610D01*
G01X4281932Y-2727960D01*
G01X4284980Y-2737104D01*
G01X4284980Y-2752598D01*
G01X4281932Y-2761996D01*
G01X4278884Y-2768092D01*
G01X4272534Y-2774442D01*
G01X4266438Y-2777490D01*
G01X4253992Y-2777490D01*
G01X4247896Y-2774442D01*
G01X4241546Y-2768092D01*
G01X4238498Y-2761996D01*
G01X4171188Y-2712466D02*
G01X4202176Y-2712466D01*
G01X4205224Y-2740152D01*
G01X4202176Y-2737104D01*
G01X4193032Y-2734056D01*
G01X4183634Y-2734056D01*
G01X4174236Y-2737104D01*
G01X4168140Y-2743454D01*
G01X4165092Y-2752598D01*
G01X4165092Y-2758948D01*
G01X4168140Y-2768092D01*
G01X4174236Y-2774442D01*
G01X4183634Y-2777490D01*
G01X4193032Y-2777490D01*
G01X4202176Y-2774442D01*
G01X4205224Y-2771140D01*
G01X4208272Y-2765044D01*
G01X4119626Y-2712466D02*
G01X4128770Y-2715514D01*
G01X4131818Y-2721610D01*
G01X4131818Y-2727960D01*
G01X4128770Y-2734056D01*
G01X4122674Y-2737104D01*
G01X4110228Y-2740152D01*
G01X4100830Y-2743454D01*
G01X4094734Y-2749550D01*
G01X4091686Y-2755646D01*
G01X4091686Y-2765044D01*
G01X4094734Y-2771140D01*
G01X4097782Y-2774442D01*
G01X4107180Y-2777490D01*
G01X4119626Y-2777490D01*
G01X4128770Y-2774442D01*
G01X4131818Y-2771140D01*
G01X4134866Y-2765044D01*
G01X4134866Y-2755646D01*
G01X4131818Y-2749550D01*
G01X4125722Y-2743454D01*
G01X4116324Y-2740152D01*
G01X4104132Y-2737104D01*
G01X4097782Y-2734056D01*
G01X4094734Y-2727960D01*
G01X4094734Y-2721610D01*
G01X4097782Y-2715514D01*
G01X4107180Y-2712466D01*
G01X4119626Y-2712466D01*
G01X4733798Y-2727960D02*
G01X4736846Y-2721610D01*
G01X4743196Y-2715514D01*
G01X4749292Y-2712466D01*
G01X4761738Y-2712466D01*
G01X4767834Y-2715514D01*
G01X4774184Y-2721610D01*
G01X4777232Y-2727960D01*
G01X4780280Y-2737104D01*
G01X4780280Y-2752598D01*
G01X4777232Y-2761996D01*
G01X4774184Y-2768092D01*
G01X4767834Y-2774442D01*
G01X4761738Y-2777490D01*
G01X4749292Y-2777490D01*
G01X4743196Y-2774442D01*
G01X4736846Y-2768092D01*
G01X4733798Y-2761996D01*
G01X4666488Y-2721610D02*
G01X4669536Y-2715514D01*
G01X4678934Y-2712466D01*
G01X4685030Y-2712466D01*
G01X4694428Y-2715514D01*
G01X4700524Y-2724912D01*
G01X4703572Y-2740152D01*
G01X4703572Y-2755646D01*
G01X4700524Y-2768092D01*
G01X4694428Y-2774442D01*
G01X4685030Y-2777490D01*
G01X4681982Y-2777490D01*
G01X4672838Y-2774442D01*
G01X4666488Y-2768092D01*
G01X4663440Y-2758948D01*
G01X4663440Y-2755646D01*
G01X4666488Y-2746502D01*
G01X4672838Y-2740152D01*
G01X4681982Y-2737104D01*
G01X4685030Y-2737104D01*
G01X4694428Y-2740152D01*
G01X4700524Y-2746502D01*
G01X4703572Y-2755646D01*
G01X4614672Y-2712466D02*
G01X4624070Y-2715514D01*
G01X4630166Y-2724912D01*
G01X4633214Y-2740152D01*
G01X4633214Y-2749550D01*
G01X4630166Y-2765044D01*
G01X4624070Y-2774442D01*
G01X4614672Y-2777490D01*
G01X4608576Y-2777490D01*
G01X4599178Y-2774442D01*
G01X4593082Y-2765044D01*
G01X4590034Y-2749550D01*
G01X4590034Y-2740152D01*
G01X4593082Y-2724912D01*
G01X4599178Y-2715514D01*
G01X4608576Y-2712466D01*
G01X4614672Y-2712466D01*
G01X4848098Y-2029460D02*
G01X4851146Y-2023110D01*
G01X4857496Y-2017014D01*
G01X4863592Y-2013966D01*
G01X4876038Y-2013966D01*
G01X4882134Y-2017014D01*
G01X4888484Y-2023110D01*
G01X4891532Y-2029460D01*
G01X4894580Y-2038604D01*
G01X4894580Y-2054098D01*
G01X4891532Y-2063496D01*
G01X4888484Y-2069592D01*
G01X4882134Y-2075942D01*
G01X4876038Y-2078990D01*
G01X4863592Y-2078990D01*
G01X4857496Y-2075942D01*
G01X4851146Y-2069592D01*
G01X4848098Y-2063496D01*
G01X4780788Y-2023110D02*
G01X4783836Y-2017014D01*
G01X4793234Y-2013966D01*
G01X4799330Y-2013966D01*
G01X4808728Y-2017014D01*
G01X4814824Y-2026412D01*
G01X4817872Y-2041652D01*
G01X4817872Y-2057146D01*
G01X4814824Y-2069592D01*
G01X4808728Y-2075942D01*
G01X4799330Y-2078990D01*
G01X4796282Y-2078990D01*
G01X4787138Y-2075942D01*
G01X4780788Y-2069592D01*
G01X4777740Y-2060448D01*
G01X4777740Y-2057146D01*
G01X4780788Y-2048002D01*
G01X4787138Y-2041652D01*
G01X4796282Y-2038604D01*
G01X4799330Y-2038604D01*
G01X4808728Y-2041652D01*
G01X4814824Y-2048002D01*
G01X4817872Y-2057146D01*
G01X4741418Y-2013966D02*
G01X4707382Y-2013966D01*
G01X4725924Y-2038604D01*
G01X4716780Y-2038604D01*
G01X4710430Y-2041652D01*
G01X4707382Y-2044954D01*
G01X4704334Y-2054098D01*
G01X4704334Y-2060448D01*
G01X4707382Y-2069592D01*
G01X4713478Y-2075942D01*
G01X4722876Y-2078990D01*
G01X4732274Y-2078990D01*
G01X4741418Y-2075942D01*
G01X4744466Y-2072640D01*
G01X4747514Y-2066544D01*
G01X4263898Y-3629660D02*
G01X4266946Y-3623310D01*
G01X4273296Y-3617214D01*
G01X4279392Y-3614166D01*
G01X4291838Y-3614166D01*
G01X4297934Y-3617214D01*
G01X4304284Y-3623310D01*
G01X4307332Y-3629660D01*
G01X4310380Y-3638804D01*
G01X4310380Y-3654298D01*
G01X4307332Y-3663696D01*
G01X4304284Y-3669792D01*
G01X4297934Y-3676142D01*
G01X4291838Y-3679190D01*
G01X4279392Y-3679190D01*
G01X4273296Y-3676142D01*
G01X4266946Y-3669792D01*
G01X4263898Y-3663696D01*
G01X4190492Y-3614166D02*
G01X4221480Y-3679190D01*
G01X4233672Y-3614166D02*
G01X4190492Y-3614166D01*
G01X4123182Y-3623310D02*
G01X4126230Y-3617214D01*
G01X4135628Y-3614166D01*
G01X4141724Y-3614166D01*
G01X4151122Y-3617214D01*
G01X4157218Y-3626612D01*
G01X4160266Y-3641852D01*
G01X4160266Y-3657346D01*
G01X4157218Y-3669792D01*
G01X4151122Y-3676142D01*
G01X4141724Y-3679190D01*
G01X4138676Y-3679190D01*
G01X4129532Y-3676142D01*
G01X4123182Y-3669792D01*
G01X4120134Y-3660648D01*
G01X4120134Y-3657346D01*
G01X4123182Y-3648202D01*
G01X4129532Y-3641852D01*
G01X4138676Y-3638804D01*
G01X4141724Y-3638804D01*
G01X4151122Y-3641852D01*
G01X4157218Y-3648202D01*
G01X4160266Y-3657346D01*
G01X5691632Y-2092960D02*
G01X5694680Y-2086610D01*
G01X5701030Y-2080514D01*
G01X5707126Y-2077466D01*
G01X5719572Y-2077466D01*
G01X5725668Y-2080514D01*
G01X5732018Y-2086610D01*
G01X5735066Y-2092960D01*
G01X5738114Y-2102104D01*
G01X5738114Y-2117598D01*
G01X5735066Y-2126996D01*
G01X5732018Y-2133092D01*
G01X5725668Y-2139442D01*
G01X5719572Y-2142490D01*
G01X5707126Y-2142490D01*
G01X5701030Y-2139442D01*
G01X5694680Y-2133092D01*
G01X5691632Y-2126996D01*
G01X5618226Y-2077466D02*
G01X5649214Y-2142490D01*
G01X5661406Y-2077466D02*
G01X5618226Y-2077466D01*
G01X5544820Y-2077466D02*
G01X5575808Y-2142490D01*
G01X5588000Y-2077466D02*
G01X5544820Y-2077466D01*
G01X1165098Y-2016760D02*
G01X1168146Y-2010410D01*
G01X1174496Y-2004314D01*
G01X1180592Y-2001266D01*
G01X1193038Y-2001266D01*
G01X1199134Y-2004314D01*
G01X1205484Y-2010410D01*
G01X1208532Y-2016760D01*
G01X1211580Y-2025904D01*
G01X1211580Y-2041398D01*
G01X1208532Y-2050796D01*
G01X1205484Y-2056892D01*
G01X1199134Y-2063242D01*
G01X1193038Y-2066290D01*
G01X1180592Y-2066290D01*
G01X1174496Y-2063242D01*
G01X1168146Y-2056892D01*
G01X1165098Y-2050796D01*
G01X1119632Y-2001266D02*
G01X1128776Y-2004314D01*
G01X1131824Y-2010410D01*
G01X1131824Y-2016760D01*
G01X1128776Y-2022856D01*
G01X1122680Y-2025904D01*
G01X1110234Y-2028952D01*
G01X1100836Y-2032254D01*
G01X1094740Y-2038350D01*
G01X1091692Y-2044446D01*
G01X1091692Y-2053844D01*
G01X1094740Y-2059940D01*
G01X1097788Y-2063242D01*
G01X1107186Y-2066290D01*
G01X1119632Y-2066290D01*
G01X1128776Y-2063242D01*
G01X1131824Y-2059940D01*
G01X1134872Y-2053844D01*
G01X1134872Y-2044446D01*
G01X1131824Y-2038350D01*
G01X1125728Y-2032254D01*
G01X1116330Y-2028952D01*
G01X1104138Y-2025904D01*
G01X1097788Y-2022856D01*
G01X1094740Y-2016760D01*
G01X1094740Y-2010410D01*
G01X1097788Y-2004314D01*
G01X1107186Y-2001266D01*
G01X1119632Y-2001266D01*
G01X1021334Y-2022856D02*
G01X1024382Y-2032254D01*
G01X1030732Y-2038350D01*
G01X1039876Y-2041398D01*
G01X1042924Y-2041398D01*
G01X1052322Y-2038350D01*
G01X1058418Y-2032254D01*
G01X1061466Y-2022856D01*
G01X1061466Y-2019808D01*
G01X1058418Y-2010410D01*
G01X1052322Y-2004314D01*
G01X1042924Y-2001266D01*
G01X1039876Y-2001266D01*
G01X1030732Y-2004314D01*
G01X1024382Y-2010410D01*
G01X1021334Y-2022856D01*
G01X1021334Y-2038350D01*
G01X1024382Y-2053844D01*
G01X1030732Y-2063242D01*
G01X1039876Y-2066290D01*
G01X1046226Y-2066290D01*
G01X1055370Y-2063242D01*
G01X1058418Y-2056892D01*
G01X7400798Y-4505960D02*
G01X7403846Y-4499610D01*
G01X7410196Y-4493514D01*
G01X7416292Y-4490466D01*
G01X7428738Y-4490466D01*
G01X7434834Y-4493514D01*
G01X7441184Y-4499610D01*
G01X7444232Y-4505960D01*
G01X7447280Y-4515104D01*
G01X7447280Y-4530598D01*
G01X7444232Y-4539996D01*
G01X7441184Y-4546092D01*
G01X7434834Y-4552442D01*
G01X7428738Y-4555490D01*
G01X7416292Y-4555490D01*
G01X7410196Y-4552442D01*
G01X7403846Y-4546092D01*
G01X7400798Y-4539996D01*
G01X7330440Y-4512056D02*
G01X7333488Y-4521454D01*
G01X7339838Y-4527550D01*
G01X7348982Y-4530598D01*
G01X7352030Y-4530598D01*
G01X7361428Y-4527550D01*
G01X7367524Y-4521454D01*
G01X7370572Y-4512056D01*
G01X7370572Y-4509008D01*
G01X7367524Y-4499610D01*
G01X7361428Y-4493514D01*
G01X7352030Y-4490466D01*
G01X7348982Y-4490466D01*
G01X7339838Y-4493514D01*
G01X7333488Y-4499610D01*
G01X7330440Y-4512056D01*
G01X7330440Y-4527550D01*
G01X7333488Y-4543044D01*
G01X7339838Y-4552442D01*
G01X7348982Y-4555490D01*
G01X7355332Y-4555490D01*
G01X7364476Y-4552442D01*
G01X7367524Y-4546092D01*
G01X7297166Y-4505960D02*
G01X7297166Y-4502912D01*
G01X7294118Y-4496562D01*
G01X7291070Y-4493514D01*
G01X7284974Y-4490466D01*
G01X7272528Y-4490466D01*
G01X7266178Y-4493514D01*
G01X7263130Y-4496562D01*
G01X7260082Y-4502912D01*
G01X7260082Y-4509008D01*
G01X7263130Y-4515104D01*
G01X7269480Y-4524502D01*
G01X7300214Y-4555490D01*
G01X7257034Y-4555490D01*
G01X6219698Y-4518660D02*
G01X6222746Y-4512310D01*
G01X6229096Y-4506214D01*
G01X6235192Y-4503166D01*
G01X6247638Y-4503166D01*
G01X6253734Y-4506214D01*
G01X6260084Y-4512310D01*
G01X6263132Y-4518660D01*
G01X6266180Y-4527804D01*
G01X6266180Y-4543298D01*
G01X6263132Y-4552696D01*
G01X6260084Y-4558792D01*
G01X6253734Y-4565142D01*
G01X6247638Y-4568190D01*
G01X6235192Y-4568190D01*
G01X6229096Y-4565142D01*
G01X6222746Y-4558792D01*
G01X6219698Y-4552696D01*
G01X6149340Y-4524756D02*
G01X6152388Y-4534154D01*
G01X6158738Y-4540250D01*
G01X6167882Y-4543298D01*
G01X6170930Y-4543298D01*
G01X6180328Y-4540250D01*
G01X6186424Y-4534154D01*
G01X6189472Y-4524756D01*
G01X6189472Y-4521708D01*
G01X6186424Y-4512310D01*
G01X6180328Y-4506214D01*
G01X6170930Y-4503166D01*
G01X6167882Y-4503166D01*
G01X6158738Y-4506214D01*
G01X6152388Y-4512310D01*
G01X6149340Y-4524756D01*
G01X6149340Y-4540250D01*
G01X6152388Y-4555744D01*
G01X6158738Y-4565142D01*
G01X6167882Y-4568190D01*
G01X6174232Y-4568190D01*
G01X6183376Y-4565142D01*
G01X6186424Y-4558792D01*
G01X6113018Y-4503166D02*
G01X6078982Y-4503166D01*
G01X6097524Y-4527804D01*
G01X6088380Y-4527804D01*
G01X6082030Y-4530852D01*
G01X6078982Y-4534154D01*
G01X6075934Y-4543298D01*
G01X6075934Y-4549648D01*
G01X6078982Y-4558792D01*
G01X6085078Y-4565142D01*
G01X6094476Y-4568190D01*
G01X6103874Y-4568190D01*
G01X6113018Y-4565142D01*
G01X6116066Y-4561840D01*
G01X6119114Y-4555744D01*
G01X8454898Y-2473960D02*
G01X8457946Y-2467610D01*
G01X8464296Y-2461514D01*
G01X8470392Y-2458466D01*
G01X8482838Y-2458466D01*
G01X8488934Y-2461514D01*
G01X8495284Y-2467610D01*
G01X8498332Y-2473960D01*
G01X8501380Y-2483104D01*
G01X8501380Y-2498598D01*
G01X8498332Y-2507996D01*
G01X8495284Y-2514092D01*
G01X8488934Y-2520442D01*
G01X8482838Y-2523490D01*
G01X8470392Y-2523490D01*
G01X8464296Y-2520442D01*
G01X8457946Y-2514092D01*
G01X8454898Y-2507996D01*
G01X8384540Y-2480056D02*
G01X8387588Y-2489454D01*
G01X8393938Y-2495550D01*
G01X8403082Y-2498598D01*
G01X8406130Y-2498598D01*
G01X8415528Y-2495550D01*
G01X8421624Y-2489454D01*
G01X8424672Y-2480056D01*
G01X8424672Y-2477008D01*
G01X8421624Y-2467610D01*
G01X8415528Y-2461514D01*
G01X8406130Y-2458466D01*
G01X8403082Y-2458466D01*
G01X8393938Y-2461514D01*
G01X8387588Y-2467610D01*
G01X8384540Y-2480056D01*
G01X8384540Y-2495550D01*
G01X8387588Y-2511044D01*
G01X8393938Y-2520442D01*
G01X8403082Y-2523490D01*
G01X8409432Y-2523490D01*
G01X8418576Y-2520442D01*
G01X8421624Y-2514092D01*
G01X8314182Y-2480056D02*
G01X8317230Y-2489454D01*
G01X8323580Y-2495550D01*
G01X8332724Y-2498598D01*
G01X8335772Y-2498598D01*
G01X8345170Y-2495550D01*
G01X8351266Y-2489454D01*
G01X8354314Y-2480056D01*
G01X8354314Y-2477008D01*
G01X8351266Y-2467610D01*
G01X8345170Y-2461514D01*
G01X8335772Y-2458466D01*
G01X8332724Y-2458466D01*
G01X8323580Y-2461514D01*
G01X8317230Y-2467610D01*
G01X8314182Y-2480056D01*
G01X8314182Y-2495550D01*
G01X8317230Y-2511044D01*
G01X8323580Y-2520442D01*
G01X8332724Y-2523490D01*
G01X8339074Y-2523490D01*
G01X8348218Y-2520442D01*
G01X8351266Y-2514092D01*
G01X8454898Y-3020060D02*
G01X8457946Y-3013710D01*
G01X8464296Y-3007614D01*
G01X8470392Y-3004566D01*
G01X8482838Y-3004566D01*
G01X8488934Y-3007614D01*
G01X8495284Y-3013710D01*
G01X8498332Y-3020060D01*
G01X8501380Y-3029204D01*
G01X8501380Y-3044698D01*
G01X8498332Y-3054096D01*
G01X8495284Y-3060192D01*
G01X8488934Y-3066542D01*
G01X8482838Y-3069590D01*
G01X8470392Y-3069590D01*
G01X8464296Y-3066542D01*
G01X8457946Y-3060192D01*
G01X8454898Y-3054096D01*
G01X8424672Y-3017012D02*
G01X8418576Y-3013710D01*
G01X8409432Y-3004566D01*
G01X8409432Y-3069590D01*
G01X8360664Y-3004566D02*
G01X8370062Y-3007614D01*
G01X8376158Y-3017012D01*
G01X8379206Y-3032252D01*
G01X8379206Y-3041650D01*
G01X8376158Y-3057144D01*
G01X8370062Y-3066542D01*
G01X8360664Y-3069590D01*
G01X8354568Y-3069590D01*
G01X8345170Y-3066542D01*
G01X8339074Y-3057144D01*
G01X8336026Y-3041650D01*
G01X8336026Y-3032252D01*
G01X8339074Y-3017012D01*
G01X8345170Y-3007614D01*
G01X8354568Y-3004566D01*
G01X8360664Y-3004566D01*
G01X8287258Y-3004566D02*
G01X8296656Y-3007614D01*
G01X8302752Y-3017012D01*
G01X8305800Y-3032252D01*
G01X8305800Y-3041650D01*
G01X8302752Y-3057144D01*
G01X8296656Y-3066542D01*
G01X8287258Y-3069590D01*
G01X8281162Y-3069590D01*
G01X8271764Y-3066542D01*
G01X8265668Y-3057144D01*
G01X8262620Y-3041650D01*
G01X8262620Y-3032252D01*
G01X8265668Y-3017012D01*
G01X8271764Y-3007614D01*
G01X8281162Y-3004566D01*
G01X8287258Y-3004566D01*
G01X8581898Y-4023360D02*
G01X8584946Y-4017010D01*
G01X8591296Y-4010914D01*
G01X8597392Y-4007866D01*
G01X8609838Y-4007866D01*
G01X8615934Y-4010914D01*
G01X8622284Y-4017010D01*
G01X8625332Y-4023360D01*
G01X8628380Y-4032504D01*
G01X8628380Y-4047998D01*
G01X8625332Y-4057396D01*
G01X8622284Y-4063492D01*
G01X8615934Y-4069842D01*
G01X8609838Y-4072890D01*
G01X8597392Y-4072890D01*
G01X8591296Y-4069842D01*
G01X8584946Y-4063492D01*
G01X8581898Y-4057396D01*
G01X8551672Y-4020312D02*
G01X8545576Y-4017010D01*
G01X8536432Y-4007866D01*
G01X8536432Y-4072890D01*
G01X8487664Y-4007866D02*
G01X8497062Y-4010914D01*
G01X8503158Y-4020312D01*
G01X8506206Y-4035552D01*
G01X8506206Y-4044950D01*
G01X8503158Y-4060444D01*
G01X8497062Y-4069842D01*
G01X8487664Y-4072890D01*
G01X8481568Y-4072890D01*
G01X8472170Y-4069842D01*
G01X8466074Y-4060444D01*
G01X8463026Y-4044950D01*
G01X8463026Y-4035552D01*
G01X8466074Y-4020312D01*
G01X8472170Y-4010914D01*
G01X8481568Y-4007866D01*
G01X8487664Y-4007866D01*
G01X8432800Y-4020312D02*
G01X8426704Y-4017010D01*
G01X8417560Y-4007866D01*
G01X8417560Y-4072890D01*
G01X8035798Y-5001260D02*
G01X8038846Y-4994910D01*
G01X8045196Y-4988814D01*
G01X8051292Y-4985766D01*
G01X8063738Y-4985766D01*
G01X8069834Y-4988814D01*
G01X8076184Y-4994910D01*
G01X8079232Y-5001260D01*
G01X8082280Y-5010404D01*
G01X8082280Y-5025898D01*
G01X8079232Y-5035296D01*
G01X8076184Y-5041392D01*
G01X8069834Y-5047742D01*
G01X8063738Y-5050790D01*
G01X8051292Y-5050790D01*
G01X8045196Y-5047742D01*
G01X8038846Y-5041392D01*
G01X8035798Y-5035296D01*
G01X8005572Y-4998212D02*
G01X7999476Y-4994910D01*
G01X7990332Y-4985766D01*
G01X7990332Y-5050790D01*
G01X7941564Y-4985766D02*
G01X7950962Y-4988814D01*
G01X7957058Y-4998212D01*
G01X7960106Y-5013452D01*
G01X7960106Y-5022850D01*
G01X7957058Y-5038344D01*
G01X7950962Y-5047742D01*
G01X7941564Y-5050790D01*
G01X7935468Y-5050790D01*
G01X7926070Y-5047742D01*
G01X7919974Y-5038344D01*
G01X7916926Y-5022850D01*
G01X7916926Y-5013452D01*
G01X7919974Y-4998212D01*
G01X7926070Y-4988814D01*
G01X7935468Y-4985766D01*
G01X7941564Y-4985766D01*
G01X7849616Y-4994910D02*
G01X7852664Y-4988814D01*
G01X7862062Y-4985766D01*
G01X7868158Y-4985766D01*
G01X7877556Y-4988814D01*
G01X7883652Y-4998212D01*
G01X7886700Y-5013452D01*
G01X7886700Y-5028946D01*
G01X7883652Y-5041392D01*
G01X7877556Y-5047742D01*
G01X7868158Y-5050790D01*
G01X7865110Y-5050790D01*
G01X7855966Y-5047742D01*
G01X7849616Y-5041392D01*
G01X7846568Y-5032248D01*
G01X7846568Y-5028946D01*
G01X7849616Y-5019802D01*
G01X7855966Y-5013452D01*
G01X7865110Y-5010404D01*
G01X7868158Y-5010404D01*
G01X7877556Y-5013452D01*
G01X7883652Y-5019802D01*
G01X7886700Y-5028946D01*
G01X8048498Y-4785360D02*
G01X8051546Y-4779010D01*
G01X8057896Y-4772914D01*
G01X8063992Y-4769866D01*
G01X8076438Y-4769866D01*
G01X8082534Y-4772914D01*
G01X8088884Y-4779010D01*
G01X8091932Y-4785360D01*
G01X8094980Y-4794504D01*
G01X8094980Y-4809998D01*
G01X8091932Y-4819396D01*
G01X8088884Y-4825492D01*
G01X8082534Y-4831842D01*
G01X8076438Y-4834890D01*
G01X8063992Y-4834890D01*
G01X8057896Y-4831842D01*
G01X8051546Y-4825492D01*
G01X8048498Y-4819396D01*
G01X8018272Y-4782312D02*
G01X8012176Y-4779010D01*
G01X8003032Y-4769866D01*
G01X8003032Y-4834890D01*
G01X7954264Y-4769866D02*
G01X7963662Y-4772914D01*
G01X7969758Y-4782312D01*
G01X7972806Y-4797552D01*
G01X7972806Y-4806950D01*
G01X7969758Y-4822444D01*
G01X7963662Y-4831842D01*
G01X7954264Y-4834890D01*
G01X7948168Y-4834890D01*
G01X7938770Y-4831842D01*
G01X7932674Y-4822444D01*
G01X7929626Y-4806950D01*
G01X7929626Y-4797552D01*
G01X7932674Y-4782312D01*
G01X7938770Y-4772914D01*
G01X7948168Y-4769866D01*
G01X7954264Y-4769866D01*
G01X7856220Y-4769866D02*
G01X7887208Y-4834890D01*
G01X7899400Y-4769866D02*
G01X7856220Y-4769866D01*
G01X8594598Y-4150360D02*
G01X8597646Y-4144010D01*
G01X8603996Y-4137914D01*
G01X8610092Y-4134866D01*
G01X8622538Y-4134866D01*
G01X8628634Y-4137914D01*
G01X8634984Y-4144010D01*
G01X8638032Y-4150360D01*
G01X8641080Y-4159504D01*
G01X8641080Y-4174998D01*
G01X8638032Y-4184396D01*
G01X8634984Y-4190492D01*
G01X8628634Y-4196842D01*
G01X8622538Y-4199890D01*
G01X8610092Y-4199890D01*
G01X8603996Y-4196842D01*
G01X8597646Y-4190492D01*
G01X8594598Y-4184396D01*
G01X8564372Y-4147312D02*
G01X8558276Y-4144010D01*
G01X8549132Y-4134866D01*
G01X8549132Y-4199890D01*
G01X8500364Y-4134866D02*
G01X8509762Y-4137914D01*
G01X8515858Y-4147312D01*
G01X8518906Y-4162552D01*
G01X8518906Y-4171950D01*
G01X8515858Y-4187444D01*
G01X8509762Y-4196842D01*
G01X8500364Y-4199890D01*
G01X8494268Y-4199890D01*
G01X8484870Y-4196842D01*
G01X8478774Y-4187444D01*
G01X8475726Y-4171950D01*
G01X8475726Y-4162552D01*
G01X8478774Y-4147312D01*
G01X8484870Y-4137914D01*
G01X8494268Y-4134866D01*
G01X8500364Y-4134866D01*
G01X8430260Y-4134866D02*
G01X8439404Y-4137914D01*
G01X8442452Y-4144010D01*
G01X8442452Y-4150360D01*
G01X8439404Y-4156456D01*
G01X8433308Y-4159504D01*
G01X8420862Y-4162552D01*
G01X8411464Y-4165854D01*
G01X8405368Y-4171950D01*
G01X8402320Y-4178046D01*
G01X8402320Y-4187444D01*
G01X8405368Y-4193540D01*
G01X8408416Y-4196842D01*
G01X8417814Y-4199890D01*
G01X8430260Y-4199890D01*
G01X8439404Y-4196842D01*
G01X8442452Y-4193540D01*
G01X8445500Y-4187444D01*
G01X8445500Y-4178046D01*
G01X8442452Y-4171950D01*
G01X8436356Y-4165854D01*
G01X8426958Y-4162552D01*
G01X8414766Y-4159504D01*
G01X8408416Y-4156456D01*
G01X8405368Y-4150360D01*
G01X8405368Y-4144010D01*
G01X8408416Y-4137914D01*
G01X8417814Y-4134866D01*
G01X8430260Y-4134866D01*
G01X8480298Y-2283460D02*
G01X8483346Y-2277110D01*
G01X8489696Y-2271014D01*
G01X8495792Y-2267966D01*
G01X8508238Y-2267966D01*
G01X8514334Y-2271014D01*
G01X8520684Y-2277110D01*
G01X8523732Y-2283460D01*
G01X8526780Y-2292604D01*
G01X8526780Y-2308098D01*
G01X8523732Y-2317496D01*
G01X8520684Y-2323592D01*
G01X8514334Y-2329942D01*
G01X8508238Y-2332990D01*
G01X8495792Y-2332990D01*
G01X8489696Y-2329942D01*
G01X8483346Y-2323592D01*
G01X8480298Y-2317496D01*
G01X8450072Y-2280412D02*
G01X8443976Y-2277110D01*
G01X8434832Y-2267966D01*
G01X8434832Y-2332990D01*
G01X8386064Y-2267966D02*
G01X8395462Y-2271014D01*
G01X8401558Y-2280412D01*
G01X8404606Y-2295652D01*
G01X8404606Y-2305050D01*
G01X8401558Y-2320544D01*
G01X8395462Y-2329942D01*
G01X8386064Y-2332990D01*
G01X8379968Y-2332990D01*
G01X8370570Y-2329942D01*
G01X8364474Y-2320544D01*
G01X8361426Y-2305050D01*
G01X8361426Y-2295652D01*
G01X8364474Y-2280412D01*
G01X8370570Y-2271014D01*
G01X8379968Y-2267966D01*
G01X8386064Y-2267966D01*
G01X8291068Y-2289556D02*
G01X8294116Y-2298954D01*
G01X8300466Y-2305050D01*
G01X8309610Y-2308098D01*
G01X8312658Y-2308098D01*
G01X8322056Y-2305050D01*
G01X8328152Y-2298954D01*
G01X8331200Y-2289556D01*
G01X8331200Y-2286508D01*
G01X8328152Y-2277110D01*
G01X8322056Y-2271014D01*
G01X8312658Y-2267966D01*
G01X8309610Y-2267966D01*
G01X8300466Y-2271014D01*
G01X8294116Y-2277110D01*
G01X8291068Y-2289556D01*
G01X8291068Y-2305050D01*
G01X8294116Y-2320544D01*
G01X8300466Y-2329942D01*
G01X8309610Y-2332990D01*
G01X8315960Y-2332990D01*
G01X8325104Y-2329942D01*
G01X8328152Y-2323592D01*
G01X6626098Y-3731260D02*
G01X6629146Y-3724910D01*
G01X6635496Y-3718814D01*
G01X6641592Y-3715766D01*
G01X6654038Y-3715766D01*
G01X6660134Y-3718814D01*
G01X6666484Y-3724910D01*
G01X6669532Y-3731260D01*
G01X6672580Y-3740404D01*
G01X6672580Y-3755898D01*
G01X6669532Y-3765296D01*
G01X6666484Y-3771392D01*
G01X6660134Y-3777742D01*
G01X6654038Y-3780790D01*
G01X6641592Y-3780790D01*
G01X6635496Y-3777742D01*
G01X6629146Y-3771392D01*
G01X6626098Y-3765296D01*
G01X6595872Y-3728212D02*
G01X6589776Y-3724910D01*
G01X6580632Y-3715766D01*
G01X6580632Y-3780790D01*
G01X6550406Y-3728212D02*
G01X6544310Y-3724910D01*
G01X6535166Y-3715766D01*
G01X6535166Y-3780790D01*
G01X6486398Y-3715766D02*
G01X6495796Y-3718814D01*
G01X6501892Y-3728212D01*
G01X6504940Y-3743452D01*
G01X6504940Y-3752850D01*
G01X6501892Y-3768344D01*
G01X6495796Y-3777742D01*
G01X6486398Y-3780790D01*
G01X6480302Y-3780790D01*
G01X6470904Y-3777742D01*
G01X6464808Y-3768344D01*
G01X6461760Y-3752850D01*
G01X6461760Y-3743452D01*
G01X6464808Y-3728212D01*
G01X6470904Y-3718814D01*
G01X6480302Y-3715766D01*
G01X6486398Y-3715766D01*
G01X8467598Y-2677160D02*
G01X8470646Y-2670810D01*
G01X8476996Y-2664714D01*
G01X8483092Y-2661666D01*
G01X8495538Y-2661666D01*
G01X8501634Y-2664714D01*
G01X8507984Y-2670810D01*
G01X8511032Y-2677160D01*
G01X8514080Y-2686304D01*
G01X8514080Y-2701798D01*
G01X8511032Y-2711196D01*
G01X8507984Y-2717292D01*
G01X8501634Y-2723642D01*
G01X8495538Y-2726690D01*
G01X8483092Y-2726690D01*
G01X8476996Y-2723642D01*
G01X8470646Y-2717292D01*
G01X8467598Y-2711196D01*
G01X8437372Y-2674112D02*
G01X8431276Y-2670810D01*
G01X8422132Y-2661666D01*
G01X8422132Y-2726690D01*
G01X8391906Y-2674112D02*
G01X8385810Y-2670810D01*
G01X8376666Y-2661666D01*
G01X8376666Y-2726690D01*
G01X8343392Y-2677160D02*
G01X8343392Y-2674112D01*
G01X8340344Y-2667762D01*
G01X8337296Y-2664714D01*
G01X8331200Y-2661666D01*
G01X8318754Y-2661666D01*
G01X8312404Y-2664714D01*
G01X8309356Y-2667762D01*
G01X8306308Y-2674112D01*
G01X8306308Y-2680208D01*
G01X8309356Y-2686304D01*
G01X8315706Y-2695702D01*
G01X8346440Y-2726690D01*
G01X8303260Y-2726690D01*
G01X6626098Y-3832860D02*
G01X6629146Y-3826510D01*
G01X6635496Y-3820414D01*
G01X6641592Y-3817366D01*
G01X6654038Y-3817366D01*
G01X6660134Y-3820414D01*
G01X6666484Y-3826510D01*
G01X6669532Y-3832860D01*
G01X6672580Y-3842004D01*
G01X6672580Y-3857498D01*
G01X6669532Y-3866896D01*
G01X6666484Y-3872992D01*
G01X6660134Y-3879342D01*
G01X6654038Y-3882390D01*
G01X6641592Y-3882390D01*
G01X6635496Y-3879342D01*
G01X6629146Y-3872992D01*
G01X6626098Y-3866896D01*
G01X6595872Y-3829812D02*
G01X6589776Y-3826510D01*
G01X6580632Y-3817366D01*
G01X6580632Y-3882390D01*
G01X6550406Y-3829812D02*
G01X6544310Y-3826510D01*
G01X6535166Y-3817366D01*
G01X6535166Y-3882390D01*
G01X6474206Y-3817366D02*
G01X6504940Y-3860546D01*
G01X6458712Y-3860546D01*
G01X6474206Y-3817366D02*
G01X6474206Y-3882390D01*
G01X6333998Y-4722165D02*
G01X6337046Y-4715815D01*
G01X6343396Y-4709719D01*
G01X6349492Y-4706671D01*
G01X6361938Y-4706671D01*
G01X6368034Y-4709719D01*
G01X6374384Y-4715815D01*
G01X6377432Y-4722165D01*
G01X6380480Y-4731309D01*
G01X6380480Y-4746803D01*
G01X6377432Y-4756201D01*
G01X6374384Y-4762297D01*
G01X6368034Y-4768647D01*
G01X6361938Y-4771695D01*
G01X6349492Y-4771695D01*
G01X6343396Y-4768647D01*
G01X6337046Y-4762297D01*
G01X6333998Y-4756201D01*
G01X6303772Y-4719117D02*
G01X6297676Y-4715815D01*
G01X6288532Y-4706671D01*
G01X6288532Y-4771695D01*
G01X6258306Y-4719117D02*
G01X6252210Y-4715815D01*
G01X6243066Y-4706671D01*
G01X6243066Y-4771695D01*
G01X6175756Y-4706671D02*
G01X6206744Y-4706671D01*
G01X6209792Y-4734357D01*
G01X6206744Y-4731309D01*
G01X6197600Y-4728261D01*
G01X6188202Y-4728261D01*
G01X6178804Y-4731309D01*
G01X6172708Y-4737659D01*
G01X6169660Y-4746803D01*
G01X6169660Y-4753153D01*
G01X6172708Y-4762297D01*
G01X6178804Y-4768647D01*
G01X6188202Y-4771695D01*
G01X6197600Y-4771695D01*
G01X6206744Y-4768647D01*
G01X6209792Y-4765345D01*
G01X6212840Y-4759249D01*
G01X5495798Y-4531360D02*
G01X5498846Y-4525010D01*
G01X5505196Y-4518914D01*
G01X5511292Y-4515866D01*
G01X5523738Y-4515866D01*
G01X5529834Y-4518914D01*
G01X5536184Y-4525010D01*
G01X5539232Y-4531360D01*
G01X5542280Y-4540504D01*
G01X5542280Y-4555998D01*
G01X5539232Y-4565396D01*
G01X5536184Y-4571492D01*
G01X5529834Y-4577842D01*
G01X5523738Y-4580890D01*
G01X5511292Y-4580890D01*
G01X5505196Y-4577842D01*
G01X5498846Y-4571492D01*
G01X5495798Y-4565396D01*
G01X5465572Y-4528312D02*
G01X5459476Y-4525010D01*
G01X5450332Y-4515866D01*
G01X5450332Y-4580890D01*
G01X5420106Y-4528312D02*
G01X5414010Y-4525010D01*
G01X5404866Y-4515866D01*
G01X5404866Y-4580890D01*
G01X5337556Y-4525010D02*
G01X5340604Y-4518914D01*
G01X5350002Y-4515866D01*
G01X5356098Y-4515866D01*
G01X5365496Y-4518914D01*
G01X5371592Y-4528312D01*
G01X5374640Y-4543552D01*
G01X5374640Y-4559046D01*
G01X5371592Y-4571492D01*
G01X5365496Y-4577842D01*
G01X5356098Y-4580890D01*
G01X5353050Y-4580890D01*
G01X5343906Y-4577842D01*
G01X5337556Y-4571492D01*
G01X5334508Y-4562348D01*
G01X5334508Y-4559046D01*
G01X5337556Y-4549902D01*
G01X5343906Y-4543552D01*
G01X5353050Y-4540504D01*
G01X5356098Y-4540504D01*
G01X5365496Y-4543552D01*
G01X5371592Y-4549902D01*
G01X5374640Y-4559046D01*
G01X1266698Y-4467860D02*
G01X1269746Y-4461510D01*
G01X1276096Y-4455414D01*
G01X1282192Y-4452366D01*
G01X1294638Y-4452366D01*
G01X1300734Y-4455414D01*
G01X1307084Y-4461510D01*
G01X1310132Y-4467860D01*
G01X1313180Y-4477004D01*
G01X1313180Y-4492498D01*
G01X1310132Y-4501896D01*
G01X1307084Y-4507992D01*
G01X1300734Y-4514342D01*
G01X1294638Y-4517390D01*
G01X1282192Y-4517390D01*
G01X1276096Y-4514342D01*
G01X1269746Y-4507992D01*
G01X1266698Y-4501896D01*
G01X1236472Y-4464812D02*
G01X1230376Y-4461510D01*
G01X1221232Y-4452366D01*
G01X1221232Y-4517390D01*
G01X1191006Y-4464812D02*
G01X1184910Y-4461510D01*
G01X1175766Y-4452366D01*
G01X1175766Y-4517390D01*
G01X1102360Y-4452366D02*
G01X1133348Y-4517390D01*
G01X1145540Y-4452366D02*
G01X1102360Y-4452366D01*
G01X2663698Y-4620260D02*
G01X2666746Y-4613910D01*
G01X2673096Y-4607814D01*
G01X2679192Y-4604766D01*
G01X2691638Y-4604766D01*
G01X2697734Y-4607814D01*
G01X2704084Y-4613910D01*
G01X2707132Y-4620260D01*
G01X2710180Y-4629404D01*
G01X2710180Y-4644898D01*
G01X2707132Y-4654296D01*
G01X2704084Y-4660392D01*
G01X2697734Y-4666742D01*
G01X2691638Y-4669790D01*
G01X2679192Y-4669790D01*
G01X2673096Y-4666742D01*
G01X2666746Y-4660392D01*
G01X2663698Y-4654296D01*
G01X2633472Y-4617212D02*
G01X2627376Y-4613910D01*
G01X2618232Y-4604766D01*
G01X2618232Y-4669790D01*
G01X2588006Y-4617212D02*
G01X2581910Y-4613910D01*
G01X2572766Y-4604766D01*
G01X2572766Y-4669790D01*
G01X2527300Y-4604766D02*
G01X2536444Y-4607814D01*
G01X2539492Y-4613910D01*
G01X2539492Y-4620260D01*
G01X2536444Y-4626356D01*
G01X2530348Y-4629404D01*
G01X2517902Y-4632452D01*
G01X2508504Y-4635754D01*
G01X2502408Y-4641850D01*
G01X2499360Y-4647946D01*
G01X2499360Y-4657344D01*
G01X2502408Y-4663440D01*
G01X2505456Y-4666742D01*
G01X2514854Y-4669790D01*
G01X2527300Y-4669790D01*
G01X2536444Y-4666742D01*
G01X2539492Y-4663440D01*
G01X2542540Y-4657344D01*
G01X2542540Y-4647946D01*
G01X2539492Y-4641850D01*
G01X2533396Y-4635754D01*
G01X2523998Y-4632452D01*
G01X2511806Y-4629404D01*
G01X2505456Y-4626356D01*
G01X2502408Y-4620260D01*
G01X2502408Y-4613910D01*
G01X2505456Y-4607814D01*
G01X2514854Y-4604766D01*
G01X2527300Y-4604766D01*
G01X2879598Y-3782060D02*
G01X2882646Y-3775710D01*
G01X2888996Y-3769614D01*
G01X2895092Y-3766566D01*
G01X2907538Y-3766566D01*
G01X2913634Y-3769614D01*
G01X2919984Y-3775710D01*
G01X2923032Y-3782060D01*
G01X2926080Y-3791204D01*
G01X2926080Y-3806698D01*
G01X2923032Y-3816096D01*
G01X2919984Y-3822192D01*
G01X2913634Y-3828542D01*
G01X2907538Y-3831590D01*
G01X2895092Y-3831590D01*
G01X2888996Y-3828542D01*
G01X2882646Y-3822192D01*
G01X2879598Y-3816096D01*
G01X2849372Y-3779012D02*
G01X2843276Y-3775710D01*
G01X2834132Y-3766566D01*
G01X2834132Y-3831590D01*
G01X2803906Y-3779012D02*
G01X2797810Y-3775710D01*
G01X2788666Y-3766566D01*
G01X2788666Y-3831590D01*
G01X2718308Y-3788156D02*
G01X2721356Y-3797554D01*
G01X2727706Y-3803650D01*
G01X2736850Y-3806698D01*
G01X2739898Y-3806698D01*
G01X2749296Y-3803650D01*
G01X2755392Y-3797554D01*
G01X2758440Y-3788156D01*
G01X2758440Y-3785108D01*
G01X2755392Y-3775710D01*
G01X2749296Y-3769614D01*
G01X2739898Y-3766566D01*
G01X2736850Y-3766566D01*
G01X2727706Y-3769614D01*
G01X2721356Y-3775710D01*
G01X2718308Y-3788156D01*
G01X2718308Y-3803650D01*
G01X2721356Y-3819144D01*
G01X2727706Y-3828542D01*
G01X2736850Y-3831590D01*
G01X2743200Y-3831590D01*
G01X2752344Y-3828542D01*
G01X2755392Y-3822192D01*
G01X2954249Y-3223801D02*
G01X2957297Y-3217451D01*
G01X2963647Y-3211355D01*
G01X2969743Y-3208307D01*
G01X2982189Y-3208307D01*
G01X2988285Y-3211355D01*
G01X2994635Y-3217451D01*
G01X2997683Y-3223801D01*
G01X3000731Y-3232945D01*
G01X3000731Y-3248439D01*
G01X2997683Y-3257837D01*
G01X2994635Y-3263933D01*
G01X2988285Y-3270283D01*
G01X2982189Y-3273331D01*
G01X2969743Y-3273331D01*
G01X2963647Y-3270283D01*
G01X2957297Y-3263933D01*
G01X2954249Y-3257837D01*
G01X2924023Y-3220753D02*
G01X2917927Y-3217451D01*
G01X2908783Y-3208307D01*
G01X2908783Y-3273331D01*
G01X2875509Y-3223801D02*
G01X2875509Y-3220753D01*
G01X2872461Y-3214403D01*
G01X2869413Y-3211355D01*
G01X2863317Y-3208307D01*
G01X2850871Y-3208307D01*
G01X2844521Y-3211355D01*
G01X2841473Y-3214403D01*
G01X2838425Y-3220753D01*
G01X2838425Y-3226849D01*
G01X2841473Y-3232945D01*
G01X2847823Y-3242343D01*
G01X2878557Y-3273331D01*
G01X2835377Y-3273331D01*
G01X2786609Y-3208307D02*
G01X2796007Y-3211355D01*
G01X2802103Y-3220753D01*
G01X2805151Y-3235993D01*
G01X2805151Y-3245391D01*
G01X2802103Y-3260885D01*
G01X2796007Y-3270283D01*
G01X2786609Y-3273331D01*
G01X2780513Y-3273331D01*
G01X2771115Y-3270283D01*
G01X2765019Y-3260885D01*
G01X2761971Y-3245391D01*
G01X2761971Y-3235993D01*
G01X2765019Y-3220753D01*
G01X2771115Y-3211355D01*
G01X2780513Y-3208307D01*
G01X2786609Y-3208307D01*
G01X1452880Y-1658366D02*
G01X1452880Y-1723390D01*
G01X1452880Y-1658366D02*
G01X1431290Y-1658366D01*
G01X1421892Y-1661414D01*
G01X1415796Y-1667510D01*
G01X1412748Y-1673860D01*
G01X1409446Y-1683004D01*
G01X1409446Y-1698498D01*
G01X1412748Y-1707896D01*
G01X1415796Y-1713992D01*
G01X1421892Y-1720342D01*
G01X1431290Y-1723390D01*
G01X1452880Y-1723390D01*
G01X1348486Y-1658366D02*
G01X1379220Y-1701546D01*
G01X1332992Y-1701546D01*
G01X1348486Y-1658366D02*
G01X1348486Y-1723390D01*
G01X957580Y-5214366D02*
G01X957580Y-5279390D01*
G01X957580Y-5214366D02*
G01X935990Y-5214366D01*
G01X926592Y-5217414D01*
G01X920496Y-5223510D01*
G01X917448Y-5229860D01*
G01X914146Y-5239004D01*
G01X914146Y-5254498D01*
G01X917448Y-5263896D01*
G01X920496Y-5269992D01*
G01X926592Y-5276342D01*
G01X935990Y-5279390D01*
G01X957580Y-5279390D01*
G01X846836Y-5223510D02*
G01X849884Y-5217414D01*
G01X859282Y-5214366D01*
G01X865378Y-5214366D01*
G01X874776Y-5217414D01*
G01X880872Y-5226812D01*
G01X883920Y-5242052D01*
G01X883920Y-5257546D01*
G01X880872Y-5269992D01*
G01X874776Y-5276342D01*
G01X865378Y-5279390D01*
G01X862330Y-5279390D01*
G01X853186Y-5276342D01*
G01X846836Y-5269992D01*
G01X843788Y-5260848D01*
G01X843788Y-5257546D01*
G01X846836Y-5248402D01*
G01X853186Y-5242052D01*
G01X862330Y-5239004D01*
G01X865378Y-5239004D01*
G01X874776Y-5242052D01*
G01X880872Y-5248402D01*
G01X883920Y-5257546D01*
G01X728980Y-5214366D02*
G01X728980Y-5279390D01*
G01X728980Y-5214366D02*
G01X707390Y-5214366D01*
G01X697992Y-5217414D01*
G01X691896Y-5223510D01*
G01X688848Y-5229860D01*
G01X685546Y-5239004D01*
G01X685546Y-5254498D01*
G01X688848Y-5263896D01*
G01X691896Y-5269992D01*
G01X697992Y-5276342D01*
G01X707390Y-5279390D01*
G01X728980Y-5279390D01*
G01X612140Y-5214366D02*
G01X643128Y-5279390D01*
G01X655320Y-5214366D02*
G01X612140Y-5214366D01*
G01X728980Y-4706366D02*
G01X728980Y-4771390D01*
G01X728980Y-4706366D02*
G01X707390Y-4706366D01*
G01X697992Y-4709414D01*
G01X691896Y-4715510D01*
G01X688848Y-4721860D01*
G01X685546Y-4731004D01*
G01X685546Y-4746498D01*
G01X688848Y-4755896D01*
G01X691896Y-4761992D01*
G01X697992Y-4768342D01*
G01X707390Y-4771390D01*
G01X728980Y-4771390D01*
G01X640080Y-4706366D02*
G01X649224Y-4709414D01*
G01X652272Y-4715510D01*
G01X652272Y-4721860D01*
G01X649224Y-4727956D01*
G01X643128Y-4731004D01*
G01X630682Y-4734052D01*
G01X621284Y-4737354D01*
G01X615188Y-4743450D01*
G01X612140Y-4749546D01*
G01X612140Y-4758944D01*
G01X615188Y-4765040D01*
G01X618236Y-4768342D01*
G01X627634Y-4771390D01*
G01X640080Y-4771390D01*
G01X649224Y-4768342D01*
G01X652272Y-4765040D01*
G01X655320Y-4758944D01*
G01X655320Y-4749546D01*
G01X652272Y-4743450D01*
G01X646176Y-4737354D01*
G01X636778Y-4734052D01*
G01X624586Y-4731004D01*
G01X618236Y-4727956D01*
G01X615188Y-4721860D01*
G01X615188Y-4715510D01*
G01X618236Y-4709414D01*
G01X627634Y-4706366D01*
G01X640080Y-4706366D01*
G01X957580Y-4706366D02*
G01X957580Y-4771390D01*
G01X957580Y-4706366D02*
G01X935990Y-4706366D01*
G01X926592Y-4709414D01*
G01X920496Y-4715510D01*
G01X917448Y-4721860D01*
G01X914146Y-4731004D01*
G01X914146Y-4746498D01*
G01X917448Y-4755896D01*
G01X920496Y-4761992D01*
G01X926592Y-4768342D01*
G01X935990Y-4771390D01*
G01X957580Y-4771390D01*
G01X843788Y-4727956D02*
G01X846836Y-4737354D01*
G01X853186Y-4743450D01*
G01X862330Y-4746498D01*
G01X865378Y-4746498D01*
G01X874776Y-4743450D01*
G01X880872Y-4737354D01*
G01X883920Y-4727956D01*
G01X883920Y-4724908D01*
G01X880872Y-4715510D01*
G01X874776Y-4709414D01*
G01X865378Y-4706366D01*
G01X862330Y-4706366D01*
G01X853186Y-4709414D01*
G01X846836Y-4715510D01*
G01X843788Y-4727956D01*
G01X843788Y-4743450D01*
G01X846836Y-4758944D01*
G01X853186Y-4768342D01*
G01X862330Y-4771390D01*
G01X868680Y-4771390D01*
G01X877824Y-4768342D01*
G01X880872Y-4761992D01*
G01X5808980Y-2979166D02*
G01X5808980Y-3044190D01*
G01X5808980Y-2979166D02*
G01X5781040Y-2979166D01*
G01X5771896Y-2982214D01*
G01X5768848Y-2985262D01*
G01X5765546Y-2991612D01*
G01X5765546Y-2997708D01*
G01X5768848Y-3003804D01*
G01X5771896Y-3006852D01*
G01X5781040Y-3010154D01*
G01X5808980Y-3010154D01*
G01X5787390Y-3010154D02*
G01X5765546Y-3044190D01*
G01X5735320Y-2991612D02*
G01X5729224Y-2988310D01*
G01X5720080Y-2979166D01*
G01X5720080Y-3044190D01*
G01X5671312Y-2979166D02*
G01X5680710Y-2982214D01*
G01X5686806Y-2991612D01*
G01X5689854Y-3006852D01*
G01X5689854Y-3016250D01*
G01X5686806Y-3031744D01*
G01X5680710Y-3041142D01*
G01X5671312Y-3044190D01*
G01X5665216Y-3044190D01*
G01X5655818Y-3041142D01*
G01X5649722Y-3031744D01*
G01X5646674Y-3016250D01*
G01X5646674Y-3006852D01*
G01X5649722Y-2991612D01*
G01X5655818Y-2982214D01*
G01X5665216Y-2979166D01*
G01X5671312Y-2979166D01*
G01X5585714Y-2979166D02*
G01X5616448Y-3022346D01*
G01X5570220Y-3022346D01*
G01X5585714Y-2979166D02*
G01X5585714Y-3044190D01*
G01X4665980Y-2001266D02*
G01X4665980Y-2066290D01*
G01X4665980Y-2001266D02*
G01X4638040Y-2001266D01*
G01X4628896Y-2004314D01*
G01X4625848Y-2007362D01*
G01X4622546Y-2013712D01*
G01X4622546Y-2019808D01*
G01X4625848Y-2025904D01*
G01X4628896Y-2028952D01*
G01X4638040Y-2032254D01*
G01X4665980Y-2032254D01*
G01X4644390Y-2032254D02*
G01X4622546Y-2066290D01*
G01X4592320Y-2013712D02*
G01X4586224Y-2010410D01*
G01X4577080Y-2001266D01*
G01X4577080Y-2066290D01*
G01X4546854Y-2013712D02*
G01X4540758Y-2010410D01*
G01X4531614Y-2001266D01*
G01X4531614Y-2066290D01*
G01X4482846Y-2001266D02*
G01X4492244Y-2004314D01*
G01X4498340Y-2013712D01*
G01X4501388Y-2028952D01*
G01X4501388Y-2038350D01*
G01X4498340Y-2053844D01*
G01X4492244Y-2063242D01*
G01X4482846Y-2066290D01*
G01X4476750Y-2066290D01*
G01X4467352Y-2063242D01*
G01X4461256Y-2053844D01*
G01X4458208Y-2038350D01*
G01X4458208Y-2028952D01*
G01X4461256Y-2013712D01*
G01X4467352Y-2004314D01*
G01X4476750Y-2001266D01*
G01X4482846Y-2001266D01*
G01X5872480Y-5620766D02*
G01X5872480Y-5685790D01*
G01X5872480Y-5620766D02*
G01X5844540Y-5620766D01*
G01X5835396Y-5623814D01*
G01X5832348Y-5626862D01*
G01X5829046Y-5633212D01*
G01X5829046Y-5639308D01*
G01X5832348Y-5645404D01*
G01X5835396Y-5648452D01*
G01X5844540Y-5651754D01*
G01X5872480Y-5651754D01*
G01X5850890Y-5651754D02*
G01X5829046Y-5685790D01*
G01X5798820Y-5633212D02*
G01X5792724Y-5629910D01*
G01X5783580Y-5620766D01*
G01X5783580Y-5685790D01*
G01X5722620Y-5620766D02*
G01X5753354Y-5663946D01*
G01X5707126Y-5663946D01*
G01X5722620Y-5620766D02*
G01X5722620Y-5685790D01*
G01X5639816Y-5620766D02*
G01X5670804Y-5620766D01*
G01X5673852Y-5648452D01*
G01X5670804Y-5645404D01*
G01X5661660Y-5642356D01*
G01X5652262Y-5642356D01*
G01X5642864Y-5645404D01*
G01X5636768Y-5651754D01*
G01X5633720Y-5660898D01*
G01X5633720Y-5667248D01*
G01X5636768Y-5676392D01*
G01X5642864Y-5682742D01*
G01X5652262Y-5685790D01*
G01X5661660Y-5685790D01*
G01X5670804Y-5682742D01*
G01X5673852Y-5679440D01*
G01X5676900Y-5673344D01*
G01X817880Y-5963666D02*
G01X817880Y-6028690D01*
G01X817880Y-5963666D02*
G01X789940Y-5963666D01*
G01X780796Y-5966714D01*
G01X777748Y-5969762D01*
G01X774446Y-5976112D01*
G01X774446Y-5982208D01*
G01X777748Y-5988304D01*
G01X780796Y-5991352D01*
G01X789940Y-5994654D01*
G01X817880Y-5994654D01*
G01X796290Y-5994654D02*
G01X774446Y-6028690D01*
G01X744220Y-5976112D02*
G01X738124Y-5972810D01*
G01X728980Y-5963666D01*
G01X728980Y-6028690D01*
G01X668020Y-5963666D02*
G01X698754Y-6006846D01*
G01X652526Y-6006846D01*
G01X668020Y-5963666D02*
G01X668020Y-6028690D01*
G01X585216Y-5972810D02*
G01X588264Y-5966714D01*
G01X597662Y-5963666D01*
G01X603758Y-5963666D01*
G01X613156Y-5966714D01*
G01X619252Y-5976112D01*
G01X622300Y-5991352D01*
G01X622300Y-6006846D01*
G01X619252Y-6019292D01*
G01X613156Y-6025642D01*
G01X603758Y-6028690D01*
G01X600710Y-6028690D01*
G01X591566Y-6025642D01*
G01X585216Y-6019292D01*
G01X582168Y-6010148D01*
G01X582168Y-6006846D01*
G01X585216Y-5997702D01*
G01X591566Y-5991352D01*
G01X600710Y-5988304D01*
G01X603758Y-5988304D01*
G01X613156Y-5991352D01*
G01X619252Y-5997702D01*
G01X622300Y-6006846D01*
G01X3501898Y-1813560D02*
G01X3504946Y-1807210D01*
G01X3511296Y-1801114D01*
G01X3517392Y-1798066D01*
G01X3529838Y-1798066D01*
G01X3535934Y-1801114D01*
G01X3542284Y-1807210D01*
G01X3545332Y-1813560D01*
G01X3548380Y-1822704D01*
G01X3548380Y-1838198D01*
G01X3545332Y-1847596D01*
G01X3542284Y-1853692D01*
G01X3535934Y-1860042D01*
G01X3529838Y-1863090D01*
G01X3517392Y-1863090D01*
G01X3511296Y-1860042D01*
G01X3504946Y-1853692D01*
G01X3501898Y-1847596D01*
G01X3471672Y-1810512D02*
G01X3465576Y-1807210D01*
G01X3456432Y-1798066D01*
G01X3456432Y-1863090D01*
G01X3423158Y-1813560D02*
G01X3423158Y-1810512D01*
G01X3420110Y-1804162D01*
G01X3417062Y-1801114D01*
G01X3410966Y-1798066D01*
G01X3398520Y-1798066D01*
G01X3392170Y-1801114D01*
G01X3389122Y-1804162D01*
G01X3386074Y-1810512D01*
G01X3386074Y-1816608D01*
G01X3389122Y-1822704D01*
G01X3395472Y-1832102D01*
G01X3426206Y-1863090D01*
G01X3383026Y-1863090D01*
G01X3352800Y-1810512D02*
G01X3346704Y-1807210D01*
G01X3337560Y-1798066D01*
G01X3337560Y-1863090D01*
G01X2625598Y-1953260D02*
G01X2628646Y-1946910D01*
G01X2634996Y-1940814D01*
G01X2641092Y-1937766D01*
G01X2653538Y-1937766D01*
G01X2659634Y-1940814D01*
G01X2665984Y-1946910D01*
G01X2669032Y-1953260D01*
G01X2672080Y-1962404D01*
G01X2672080Y-1977898D01*
G01X2669032Y-1987296D01*
G01X2665984Y-1993392D01*
G01X2659634Y-1999742D01*
G01X2653538Y-2002790D01*
G01X2641092Y-2002790D01*
G01X2634996Y-1999742D01*
G01X2628646Y-1993392D01*
G01X2625598Y-1987296D01*
G01X2595372Y-1950212D02*
G01X2589276Y-1946910D01*
G01X2580132Y-1937766D01*
G01X2580132Y-2002790D01*
G01X2546858Y-1953260D02*
G01X2546858Y-1950212D01*
G01X2543810Y-1943862D01*
G01X2540762Y-1940814D01*
G01X2534666Y-1937766D01*
G01X2522220Y-1937766D01*
G01X2515870Y-1940814D01*
G01X2512822Y-1943862D01*
G01X2509774Y-1950212D01*
G01X2509774Y-1956308D01*
G01X2512822Y-1962404D01*
G01X2519172Y-1971802D01*
G01X2549906Y-2002790D01*
G01X2506726Y-2002790D01*
G01X2473452Y-1953260D02*
G01X2473452Y-1950212D01*
G01X2470404Y-1943862D01*
G01X2467356Y-1940814D01*
G01X2461260Y-1937766D01*
G01X2448814Y-1937766D01*
G01X2442464Y-1940814D01*
G01X2439416Y-1943862D01*
G01X2436368Y-1950212D01*
G01X2436368Y-1956308D01*
G01X2439416Y-1962404D01*
G01X2445766Y-1971802D01*
G01X2476500Y-2002790D01*
G01X2433320Y-2002790D01*
G01X4771898Y-5382260D02*
G01X4774946Y-5375910D01*
G01X4781296Y-5369814D01*
G01X4787392Y-5366766D01*
G01X4799838Y-5366766D01*
G01X4805934Y-5369814D01*
G01X4812284Y-5375910D01*
G01X4815332Y-5382260D01*
G01X4818380Y-5391404D01*
G01X4818380Y-5406898D01*
G01X4815332Y-5416296D01*
G01X4812284Y-5422392D01*
G01X4805934Y-5428742D01*
G01X4799838Y-5431790D01*
G01X4787392Y-5431790D01*
G01X4781296Y-5428742D01*
G01X4774946Y-5422392D01*
G01X4771898Y-5416296D01*
G01X4704588Y-5375910D02*
G01X4707636Y-5369814D01*
G01X4717034Y-5366766D01*
G01X4723130Y-5366766D01*
G01X4732528Y-5369814D01*
G01X4738624Y-5379212D01*
G01X4741672Y-5394452D01*
G01X4741672Y-5409946D01*
G01X4738624Y-5422392D01*
G01X4732528Y-5428742D01*
G01X4723130Y-5431790D01*
G01X4720082Y-5431790D01*
G01X4710938Y-5428742D01*
G01X4704588Y-5422392D01*
G01X4701540Y-5413248D01*
G01X4701540Y-5409946D01*
G01X4704588Y-5400802D01*
G01X4710938Y-5394452D01*
G01X4720082Y-5391404D01*
G01X4723130Y-5391404D01*
G01X4732528Y-5394452D01*
G01X4738624Y-5400802D01*
G01X4741672Y-5409946D01*
G01X4631182Y-5388356D02*
G01X4634230Y-5397754D01*
G01X4640580Y-5403850D01*
G01X4649724Y-5406898D01*
G01X4652772Y-5406898D01*
G01X4662170Y-5403850D01*
G01X4668266Y-5397754D01*
G01X4671314Y-5388356D01*
G01X4671314Y-5385308D01*
G01X4668266Y-5375910D01*
G01X4662170Y-5369814D01*
G01X4652772Y-5366766D01*
G01X4649724Y-5366766D01*
G01X4640580Y-5369814D01*
G01X4634230Y-5375910D01*
G01X4631182Y-5388356D01*
G01X4631182Y-5403850D01*
G01X4634230Y-5419344D01*
G01X4640580Y-5428742D01*
G01X4649724Y-5431790D01*
G01X4656074Y-5431790D01*
G01X4665218Y-5428742D01*
G01X4668266Y-5422392D01*
G01X4818380Y-4884166D02*
G01X4818380Y-4949190D01*
G01X4818380Y-4949190D02*
G01X4781296Y-4949190D01*
G01X4748022Y-4899660D02*
G01X4748022Y-4896612D01*
G01X4744974Y-4890262D01*
G01X4741926Y-4887214D01*
G01X4735830Y-4884166D01*
G01X4723384Y-4884166D01*
G01X4717034Y-4887214D01*
G01X4713986Y-4890262D01*
G01X4710938Y-4896612D01*
G01X4710938Y-4902708D01*
G01X4713986Y-4908804D01*
G01X4720336Y-4918202D01*
G01X4751070Y-4949190D01*
G01X4707890Y-4949190D01*
G01X4640580Y-4893310D02*
G01X4643628Y-4887214D01*
G01X4653026Y-4884166D01*
G01X4659122Y-4884166D01*
G01X4668520Y-4887214D01*
G01X4674616Y-4896612D01*
G01X4677664Y-4911852D01*
G01X4677664Y-4927346D01*
G01X4674616Y-4939792D01*
G01X4668520Y-4946142D01*
G01X4659122Y-4949190D01*
G01X4656074Y-4949190D01*
G01X4646930Y-4946142D01*
G01X4640580Y-4939792D01*
G01X4637532Y-4930648D01*
G01X4637532Y-4927346D01*
G01X4640580Y-4918202D01*
G01X4646930Y-4911852D01*
G01X4656074Y-4908804D01*
G01X4659122Y-4908804D01*
G01X4668520Y-4911852D01*
G01X4674616Y-4918202D01*
G01X4677664Y-4927346D01*
G01X4805680Y-5265166D02*
G01X4805680Y-5330190D01*
G01X4805680Y-5265166D02*
G01X4777740Y-5265166D01*
G01X4768596Y-5268214D01*
G01X4765548Y-5271262D01*
G01X4762246Y-5277612D01*
G01X4762246Y-5283708D01*
G01X4765548Y-5289804D01*
G01X4768596Y-5292852D01*
G01X4777740Y-5296154D01*
G01X4805680Y-5296154D01*
G01X4784090Y-5296154D02*
G01X4762246Y-5330190D01*
G01X4732020Y-5277612D02*
G01X4725924Y-5274310D01*
G01X4716780Y-5265166D01*
G01X4716780Y-5330190D01*
G01X4668012Y-5265166D02*
G01X4677410Y-5268214D01*
G01X4683506Y-5277612D01*
G01X4686554Y-5292852D01*
G01X4686554Y-5302250D01*
G01X4683506Y-5317744D01*
G01X4677410Y-5327142D01*
G01X4668012Y-5330190D01*
G01X4661916Y-5330190D01*
G01X4652518Y-5327142D01*
G01X4646422Y-5317744D01*
G01X4643374Y-5302250D01*
G01X4643374Y-5292852D01*
G01X4646422Y-5277612D01*
G01X4652518Y-5268214D01*
G01X4661916Y-5265166D01*
G01X4668012Y-5265166D01*
G01X4594606Y-5265166D02*
G01X4604004Y-5268214D01*
G01X4610100Y-5277612D01*
G01X4613148Y-5292852D01*
G01X4613148Y-5302250D01*
G01X4610100Y-5317744D01*
G01X4604004Y-5327142D01*
G01X4594606Y-5330190D01*
G01X4588510Y-5330190D01*
G01X4579112Y-5327142D01*
G01X4573016Y-5317744D01*
G01X4569968Y-5302250D01*
G01X4569968Y-5292852D01*
G01X4573016Y-5277612D01*
G01X4579112Y-5268214D01*
G01X4588510Y-5265166D01*
G01X4594606Y-5265166D01*
G01X7739380Y-1467866D02*
G01X7739380Y-1532890D01*
G01X7739380Y-1467866D02*
G01X7711440Y-1467866D01*
G01X7702296Y-1470914D01*
G01X7699248Y-1473962D01*
G01X7695946Y-1480312D01*
G01X7695946Y-1486408D01*
G01X7699248Y-1492504D01*
G01X7702296Y-1495552D01*
G01X7711440Y-1498854D01*
G01X7739380Y-1498854D01*
G01X7717790Y-1498854D02*
G01X7695946Y-1532890D01*
G01X7665720Y-1480312D02*
G01X7659624Y-1477010D01*
G01X7650480Y-1467866D01*
G01X7650480Y-1532890D01*
G01X7583170Y-1467866D02*
G01X7614158Y-1467866D01*
G01X7617206Y-1495552D01*
G01X7614158Y-1492504D01*
G01X7605014Y-1489456D01*
G01X7595616Y-1489456D01*
G01X7586218Y-1492504D01*
G01X7580122Y-1498854D01*
G01X7577074Y-1507998D01*
G01X7577074Y-1514348D01*
G01X7580122Y-1523492D01*
G01X7586218Y-1529842D01*
G01X7595616Y-1532890D01*
G01X7605014Y-1532890D01*
G01X7614158Y-1529842D01*
G01X7617206Y-1526540D01*
G01X7620254Y-1520444D01*
G01X7540752Y-1467866D02*
G01X7506716Y-1467866D01*
G01X7525258Y-1492504D01*
G01X7516114Y-1492504D01*
G01X7509764Y-1495552D01*
G01X7506716Y-1498854D01*
G01X7503668Y-1507998D01*
G01X7503668Y-1514348D01*
G01X7506716Y-1523492D01*
G01X7512812Y-1529842D01*
G01X7522210Y-1532890D01*
G01X7531608Y-1532890D01*
G01X7540752Y-1529842D01*
G01X7543800Y-1526540D01*
G01X7546848Y-1520444D01*
G01X2075180Y-1099566D02*
G01X2075180Y-1164590D01*
G01X2075180Y-1099566D02*
G01X2047240Y-1099566D01*
G01X2038096Y-1102614D01*
G01X2035048Y-1105662D01*
G01X2031746Y-1112012D01*
G01X2031746Y-1118108D01*
G01X2035048Y-1124204D01*
G01X2038096Y-1127252D01*
G01X2047240Y-1130554D01*
G01X2075180Y-1130554D01*
G01X2053590Y-1130554D02*
G01X2031746Y-1164590D01*
G01X2001520Y-1112012D02*
G01X1995424Y-1108710D01*
G01X1986280Y-1099566D01*
G01X1986280Y-1164590D01*
G01X1918970Y-1099566D02*
G01X1949958Y-1099566D01*
G01X1953006Y-1127252D01*
G01X1949958Y-1124204D01*
G01X1940814Y-1121156D01*
G01X1931416Y-1121156D01*
G01X1922018Y-1124204D01*
G01X1915922Y-1130554D01*
G01X1912874Y-1139698D01*
G01X1912874Y-1146048D01*
G01X1915922Y-1155192D01*
G01X1922018Y-1161542D01*
G01X1931416Y-1164590D01*
G01X1940814Y-1164590D01*
G01X1949958Y-1161542D01*
G01X1953006Y-1158240D01*
G01X1956054Y-1152144D01*
G01X1851914Y-1099566D02*
G01X1882648Y-1142746D01*
G01X1836420Y-1142746D01*
G01X1851914Y-1099566D02*
G01X1851914Y-1164590D01*
G01X9801098Y-1991360D02*
G01X9804146Y-1985010D01*
G01X9810496Y-1978914D01*
G01X9816592Y-1975866D01*
G01X9829038Y-1975866D01*
G01X9835134Y-1978914D01*
G01X9841484Y-1985010D01*
G01X9844532Y-1991360D01*
G01X9847580Y-2000504D01*
G01X9847580Y-2015998D01*
G01X9844532Y-2025396D01*
G01X9841484Y-2031492D01*
G01X9835134Y-2037842D01*
G01X9829038Y-2040890D01*
G01X9816592Y-2040890D01*
G01X9810496Y-2037842D01*
G01X9804146Y-2031492D01*
G01X9801098Y-2025396D01*
G01X9770872Y-1988312D02*
G01X9764776Y-1985010D01*
G01X9755632Y-1975866D01*
G01X9755632Y-2040890D01*
G01X9722358Y-1991360D02*
G01X9722358Y-1988312D01*
G01X9719310Y-1981962D01*
G01X9716262Y-1978914D01*
G01X9710166Y-1975866D01*
G01X9697720Y-1975866D01*
G01X9691370Y-1978914D01*
G01X9688322Y-1981962D01*
G01X9685274Y-1988312D01*
G01X9685274Y-1994408D01*
G01X9688322Y-2000504D01*
G01X9694672Y-2009902D01*
G01X9725406Y-2040890D01*
G01X9682226Y-2040890D01*
G01X9614916Y-1975866D02*
G01X9645904Y-1975866D01*
G01X9648952Y-2003552D01*
G01X9645904Y-2000504D01*
G01X9636760Y-1997456D01*
G01X9627362Y-1997456D01*
G01X9617964Y-2000504D01*
G01X9611868Y-2006854D01*
G01X9608820Y-2015998D01*
G01X9608820Y-2022348D01*
G01X9611868Y-2031492D01*
G01X9617964Y-2037842D01*
G01X9627362Y-2040890D01*
G01X9636760Y-2040890D01*
G01X9645904Y-2037842D01*
G01X9648952Y-2034540D01*
G01X9652000Y-2028444D01*
G01X1165098Y-1915160D02*
G01X1168146Y-1908810D01*
G01X1174496Y-1902714D01*
G01X1180592Y-1899666D01*
G01X1193038Y-1899666D01*
G01X1199134Y-1902714D01*
G01X1205484Y-1908810D01*
G01X1208532Y-1915160D01*
G01X1211580Y-1924304D01*
G01X1211580Y-1939798D01*
G01X1208532Y-1949196D01*
G01X1205484Y-1955292D01*
G01X1199134Y-1961642D01*
G01X1193038Y-1964690D01*
G01X1180592Y-1964690D01*
G01X1174496Y-1961642D01*
G01X1168146Y-1955292D01*
G01X1165098Y-1949196D01*
G01X1134872Y-1912112D02*
G01X1128776Y-1908810D01*
G01X1119632Y-1899666D01*
G01X1119632Y-1964690D01*
G01X1086358Y-1915160D02*
G01X1086358Y-1912112D01*
G01X1083310Y-1905762D01*
G01X1080262Y-1902714D01*
G01X1074166Y-1899666D01*
G01X1061720Y-1899666D01*
G01X1055370Y-1902714D01*
G01X1052322Y-1905762D01*
G01X1049274Y-1912112D01*
G01X1049274Y-1918208D01*
G01X1052322Y-1924304D01*
G01X1058672Y-1933702D01*
G01X1089406Y-1964690D01*
G01X1046226Y-1964690D01*
G01X972820Y-1899666D02*
G01X1003808Y-1964690D01*
G01X1016000Y-1899666D02*
G01X972820Y-1899666D01*
G01X1363980Y-2750566D02*
G01X1363980Y-2815590D01*
G01X1363980Y-2750566D02*
G01X1336040Y-2750566D01*
G01X1326896Y-2753614D01*
G01X1323848Y-2756662D01*
G01X1320546Y-2763012D01*
G01X1320546Y-2769108D01*
G01X1323848Y-2775204D01*
G01X1326896Y-2778252D01*
G01X1336040Y-2781554D01*
G01X1363980Y-2781554D01*
G01X1342390Y-2781554D02*
G01X1320546Y-2815590D01*
G01X1290320Y-2763012D02*
G01X1284224Y-2759710D01*
G01X1275080Y-2750566D01*
G01X1275080Y-2815590D01*
G01X1238758Y-2750566D02*
G01X1204722Y-2750566D01*
G01X1223264Y-2775204D01*
G01X1214120Y-2775204D01*
G01X1207770Y-2778252D01*
G01X1204722Y-2781554D01*
G01X1201674Y-2790698D01*
G01X1201674Y-2797048D01*
G01X1204722Y-2806192D01*
G01X1210818Y-2812542D01*
G01X1220216Y-2815590D01*
G01X1229614Y-2815590D01*
G01X1238758Y-2812542D01*
G01X1241806Y-2809240D01*
G01X1244854Y-2803144D01*
G01X1140714Y-2750566D02*
G01X1171448Y-2793746D01*
G01X1125220Y-2793746D01*
G01X1140714Y-2750566D02*
G01X1140714Y-2815590D01*
G01X9191498Y-4886960D02*
G01X9194546Y-4880610D01*
G01X9200896Y-4874514D01*
G01X9206992Y-4871466D01*
G01X9219438Y-4871466D01*
G01X9225534Y-4874514D01*
G01X9231884Y-4880610D01*
G01X9234932Y-4886960D01*
G01X9237980Y-4896104D01*
G01X9237980Y-4911598D01*
G01X9234932Y-4920996D01*
G01X9231884Y-4927092D01*
G01X9225534Y-4933442D01*
G01X9219438Y-4936490D01*
G01X9206992Y-4936490D01*
G01X9200896Y-4933442D01*
G01X9194546Y-4927092D01*
G01X9191498Y-4920996D01*
G01X9161272Y-4883912D02*
G01X9155176Y-4880610D01*
G01X9146032Y-4871466D01*
G01X9146032Y-4936490D01*
G01X9112758Y-4886960D02*
G01X9112758Y-4883912D01*
G01X9109710Y-4877562D01*
G01X9106662Y-4874514D01*
G01X9100566Y-4871466D01*
G01X9088120Y-4871466D01*
G01X9081770Y-4874514D01*
G01X9078722Y-4877562D01*
G01X9075674Y-4883912D01*
G01X9075674Y-4890008D01*
G01X9078722Y-4896104D01*
G01X9085072Y-4905502D01*
G01X9115806Y-4936490D01*
G01X9072626Y-4936490D01*
G01X9002268Y-4893056D02*
G01X9005316Y-4902454D01*
G01X9011666Y-4908550D01*
G01X9020810Y-4911598D01*
G01X9023858Y-4911598D01*
G01X9033256Y-4908550D01*
G01X9039352Y-4902454D01*
G01X9042400Y-4893056D01*
G01X9042400Y-4890008D01*
G01X9039352Y-4880610D01*
G01X9033256Y-4874514D01*
G01X9023858Y-4871466D01*
G01X9020810Y-4871466D01*
G01X9011666Y-4874514D01*
G01X9005316Y-4880610D01*
G01X9002268Y-4893056D01*
G01X9002268Y-4908550D01*
G01X9005316Y-4924044D01*
G01X9011666Y-4933442D01*
G01X9020810Y-4936490D01*
G01X9027160Y-4936490D01*
G01X9036304Y-4933442D01*
G01X9039352Y-4927092D01*
G01X9191498Y-4785360D02*
G01X9194546Y-4779010D01*
G01X9200896Y-4772914D01*
G01X9206992Y-4769866D01*
G01X9219438Y-4769866D01*
G01X9225534Y-4772914D01*
G01X9231884Y-4779010D01*
G01X9234932Y-4785360D01*
G01X9237980Y-4794504D01*
G01X9237980Y-4809998D01*
G01X9234932Y-4819396D01*
G01X9231884Y-4825492D01*
G01X9225534Y-4831842D01*
G01X9219438Y-4834890D01*
G01X9206992Y-4834890D01*
G01X9200896Y-4831842D01*
G01X9194546Y-4825492D01*
G01X9191498Y-4819396D01*
G01X9161272Y-4782312D02*
G01X9155176Y-4779010D01*
G01X9146032Y-4769866D01*
G01X9146032Y-4834890D01*
G01X9109710Y-4769866D02*
G01X9075674Y-4769866D01*
G01X9094216Y-4794504D01*
G01X9085072Y-4794504D01*
G01X9078722Y-4797552D01*
G01X9075674Y-4800854D01*
G01X9072626Y-4809998D01*
G01X9072626Y-4816348D01*
G01X9075674Y-4825492D01*
G01X9081770Y-4831842D01*
G01X9091168Y-4834890D01*
G01X9100566Y-4834890D01*
G01X9109710Y-4831842D01*
G01X9112758Y-4828540D01*
G01X9115806Y-4822444D01*
G01X9023858Y-4769866D02*
G01X9033256Y-4772914D01*
G01X9039352Y-4782312D01*
G01X9042400Y-4797552D01*
G01X9042400Y-4806950D01*
G01X9039352Y-4822444D01*
G01X9033256Y-4831842D01*
G01X9023858Y-4834890D01*
G01X9017762Y-4834890D01*
G01X9008364Y-4831842D01*
G01X9002268Y-4822444D01*
G01X8999220Y-4806950D01*
G01X8999220Y-4797552D01*
G01X9002268Y-4782312D01*
G01X9008364Y-4772914D01*
G01X9017762Y-4769866D01*
G01X9023858Y-4769866D01*
G01X9547098Y-6068060D02*
G01X9550146Y-6061710D01*
G01X9556496Y-6055614D01*
G01X9562592Y-6052566D01*
G01X9575038Y-6052566D01*
G01X9581134Y-6055614D01*
G01X9587484Y-6061710D01*
G01X9590532Y-6068060D01*
G01X9593580Y-6077204D01*
G01X9593580Y-6092698D01*
G01X9590532Y-6102096D01*
G01X9587484Y-6108192D01*
G01X9581134Y-6114542D01*
G01X9575038Y-6117590D01*
G01X9562592Y-6117590D01*
G01X9556496Y-6114542D01*
G01X9550146Y-6108192D01*
G01X9547098Y-6102096D01*
G01X9516872Y-6065012D02*
G01X9510776Y-6061710D01*
G01X9501632Y-6052566D01*
G01X9501632Y-6117590D01*
G01X9465310Y-6052566D02*
G01X9431274Y-6052566D01*
G01X9449816Y-6077204D01*
G01X9440672Y-6077204D01*
G01X9434322Y-6080252D01*
G01X9431274Y-6083554D01*
G01X9428226Y-6092698D01*
G01X9428226Y-6099048D01*
G01X9431274Y-6108192D01*
G01X9437370Y-6114542D01*
G01X9446768Y-6117590D01*
G01X9456166Y-6117590D01*
G01X9465310Y-6114542D01*
G01X9468358Y-6111240D01*
G01X9471406Y-6105144D01*
G01X9367266Y-6052566D02*
G01X9398000Y-6095746D01*
G01X9351772Y-6095746D01*
G01X9367266Y-6052566D02*
G01X9367266Y-6117590D01*
G01X9521698Y-5496560D02*
G01X9524746Y-5490210D01*
G01X9531096Y-5484114D01*
G01X9537192Y-5481066D01*
G01X9549638Y-5481066D01*
G01X9555734Y-5484114D01*
G01X9562084Y-5490210D01*
G01X9565132Y-5496560D01*
G01X9568180Y-5505704D01*
G01X9568180Y-5521198D01*
G01X9565132Y-5530596D01*
G01X9562084Y-5536692D01*
G01X9555734Y-5543042D01*
G01X9549638Y-5546090D01*
G01X9537192Y-5546090D01*
G01X9531096Y-5543042D01*
G01X9524746Y-5536692D01*
G01X9521698Y-5530596D01*
G01X9491472Y-5493512D02*
G01X9485376Y-5490210D01*
G01X9476232Y-5481066D01*
G01X9476232Y-5546090D01*
G01X9439910Y-5481066D02*
G01X9405874Y-5481066D01*
G01X9424416Y-5505704D01*
G01X9415272Y-5505704D01*
G01X9408922Y-5508752D01*
G01X9405874Y-5512054D01*
G01X9402826Y-5521198D01*
G01X9402826Y-5527548D01*
G01X9405874Y-5536692D01*
G01X9411970Y-5543042D01*
G01X9421368Y-5546090D01*
G01X9430766Y-5546090D01*
G01X9439910Y-5543042D01*
G01X9442958Y-5539740D01*
G01X9446006Y-5533644D01*
G01X9335516Y-5481066D02*
G01X9366504Y-5481066D01*
G01X9369552Y-5508752D01*
G01X9366504Y-5505704D01*
G01X9357360Y-5502656D01*
G01X9347962Y-5502656D01*
G01X9338564Y-5505704D01*
G01X9332468Y-5512054D01*
G01X9329420Y-5521198D01*
G01X9329420Y-5527548D01*
G01X9332468Y-5536692D01*
G01X9338564Y-5543042D01*
G01X9347962Y-5546090D01*
G01X9357360Y-5546090D01*
G01X9366504Y-5543042D01*
G01X9369552Y-5539740D01*
G01X9372600Y-5533644D01*
G04 Text End*

G04 PolygonModel Start*
G54D11*
G01X3264599Y-4379623D02*
G01X3264599Y-4459625D01*
G01X3375574Y-4348637D02*
G01X3295576Y-4348637D01*
G01X3375574Y-4490603D02*
G01X3295576Y-4490603D01*
G01X3433163Y-4348056D02*
G01X3513163Y-4348056D01*
G01X3544146Y-4379039D02*
G01X3544146Y-4459036D01*
G01X3433163Y-4490016D02*
G01X3513163Y-4490016D01*
G01X3544151Y-4379039D02*
G03X3513168Y-4348056I-30983J0D01*
G01X3513168Y-4490021D02*
G03X3544151Y-4459036I0J30983D01*
G01X3295581Y-4348637D02*
G03X3264599Y-4379623I0J-30983D01*
G01X3264599Y-4459620D02*
G03X3295581Y-4490603I30983J0D01*
G01X4163723Y-3098101D02*
G01X4243725Y-3098101D01*
G01X4132737Y-2987126D02*
G01X4132737Y-3067124D01*
G01X4274703Y-2987126D02*
G01X4274703Y-3067124D01*
G01X4132156Y-2929537D02*
G01X4132156Y-2849537D01*
G01X4163139Y-2818554D02*
G01X4243136Y-2818554D01*
G01X4274116Y-2929537D02*
G01X4274116Y-2849537D01*
G01X4163139Y-2818549D02*
G03X4132156Y-2849532I0J-30983D01*
G01X4274122Y-2849532D02*
G03X4243136Y-2818549I-30983J0D01*
G01X4132737Y-3067119D02*
G03X4163723Y-3098101I30983J0D01*
G01X4243720Y-3098101D02*
G03X4274703Y-3067119I0J30983D01*
G01X4726277Y-2820098D02*
G01X4646275Y-2820098D01*
G01X4757263Y-2931074D02*
G01X4757263Y-2851076D01*
G01X4615297Y-2931074D02*
G01X4615297Y-2851076D01*
G01X4757844Y-2988663D02*
G01X4757844Y-3068663D01*
G01X4726861Y-3099646D02*
G01X4646864Y-3099646D01*
G01X4615884Y-2988663D02*
G01X4615884Y-3068663D01*
G01X4726861Y-3099651D02*
G03X4757844Y-3068668I0J30983D01*
G01X4615879Y-3068668D02*
G03X4646864Y-3099651I30983J0D01*
G01X4757263Y-2851081D02*
G03X4726277Y-2820098I-30983J0D01*
G01X4646280Y-2820098D02*
G03X4615297Y-2851081I0J-30983D01*
G01X4735223Y-2386901D02*
G01X4815225Y-2386901D01*
G01X4704237Y-2275926D02*
G01X4704237Y-2355924D01*
G01X4846203Y-2275926D02*
G01X4846203Y-2355924D01*
G01X4703656Y-2218337D02*
G01X4703656Y-2138337D01*
G01X4734639Y-2107354D02*
G01X4814636Y-2107354D01*
G01X4845616Y-2218337D02*
G01X4845616Y-2138337D01*
G01X4734639Y-2107349D02*
G03X4703656Y-2138332I0J-30983D01*
G01X4845622Y-2138332D02*
G03X4814636Y-2107349I-30983J0D01*
G01X4704237Y-2355919D02*
G03X4735223Y-2386901I30983J0D01*
G01X4815220Y-2386901D02*
G03X4846203Y-2355919I0J30983D01*
G54D10*
G01X4126040Y-3559320D02*
G01X4126040Y-3418319D01*
G01X4306761Y-3418319D02*
G01X4306761Y-3559320D01*
G01X4291521Y-3574560D02*
G01X4141280Y-3574560D01*
G01X4126040Y-3197080D02*
G01X4126040Y-3338081D01*
G01X4306761Y-3338081D02*
G01X4306761Y-3197080D01*
G01X4291521Y-3181840D02*
G01X4141280Y-3181840D01*
G01X4306761Y-3559320D02*
G02X4291521Y-3574560I-15240J0D01*
G01X4141280Y-3574560D02*
G02X4126040Y-3559320I0J15240D01*
G01X4306761Y-3197080D02*
G03X4291521Y-3181840I-15240J0D01*
G01X4141280Y-3181840D02*
G03X4126040Y-3197080I0J-15240D01*
G01X5748061Y-1549580D02*
G01X5748061Y-1698079D01*
G01X5529539Y-1698079D02*
G01X5529539Y-1549580D01*
G01X5544779Y-1534340D02*
G01X5732821Y-1534340D01*
G01X5748061Y-2031820D02*
G01X5748061Y-1883321D01*
G01X5529539Y-1883321D02*
G01X5529539Y-2031820D01*
G01X5544779Y-2047060D02*
G01X5732821Y-2047060D01*
G01X5529539Y-1549580D02*
G02X5544779Y-1534340I15240J0D01*
G01X5732821Y-1534340D02*
G02X5748061Y-1549580I0J-15240D01*
G01X5529539Y-2031820D02*
G03X5544779Y-2047060I15240J0D01*
G01X5732821Y-2047060D02*
G03X5748061Y-2031820I0J15240D01*
G54D11*
G01X1046643Y-2339419D02*
G01X1046643Y-2419416D01*
G01X1046597Y-2283374D02*
G01X1046597Y-2203376D01*
G01X1188611Y-2339419D02*
G01X1188611Y-2419416D01*
G01X1188563Y-2283374D02*
G01X1188563Y-2203376D01*
G01X1077625Y-2450391D02*
G01X1157630Y-2450391D01*
G01X1157577Y-2172398D02*
G01X1077575Y-2172398D01*
G01X1188563Y-2203381D02*
G03X1157577Y-2172398I-30983J0D01*
G01X1077580Y-2172398D02*
G03X1046597Y-2203381I0J-30983D01*
G01X1046643Y-2419411D02*
G03X1077625Y-2450391I30983J3D01*
G01X1157623Y-2450391D02*
G03X1188611Y-2419411I5J30983D01*
G01X7101919Y-4592157D02*
G01X7181916Y-4592157D01*
G01X7045874Y-4592203D02*
G01X6965876Y-4592203D01*
G01X7101919Y-4450189D02*
G01X7181916Y-4450189D01*
G01X7045874Y-4450237D02*
G01X6965876Y-4450237D01*
G01X7212891Y-4561175D02*
G01X7212891Y-4481170D01*
G01X6934899Y-4481223D02*
G01X6934899Y-4561225D01*
G01X6965881Y-4450237D02*
G03X6934899Y-4481223I0J-30983D01*
G01X6934899Y-4561220D02*
G03X6965881Y-4592203I30983J0D01*
G01X7181911Y-4592157D02*
G03X7212891Y-4561175I-3J30983D01*
G01X7212891Y-4481177D02*
G03X7181911Y-4450189I-30983J5D01*
G01X6466919Y-4592157D02*
G01X6546916Y-4592157D01*
G01X6410874Y-4592203D02*
G01X6330876Y-4592203D01*
G01X6466919Y-4450189D02*
G01X6546916Y-4450189D01*
G01X6410874Y-4450237D02*
G01X6330876Y-4450237D01*
G01X6577891Y-4561175D02*
G01X6577891Y-4481170D01*
G01X6299899Y-4481223D02*
G01X6299899Y-4561225D01*
G01X6330881Y-4450237D02*
G03X6299899Y-4481223I0J-30983D01*
G01X6299899Y-4561220D02*
G03X6330881Y-4592203I30983J0D01*
G01X6546911Y-4592157D02*
G03X6577891Y-4561175I-3J30983D01*
G01X6577891Y-4481177D02*
G03X6546911Y-4450189I-30983J5D01*
G01X8216202Y-2541877D02*
G01X8216202Y-2461875D01*
G01X8105226Y-2572863D02*
G01X8185224Y-2572863D01*
G01X8105226Y-2430897D02*
G01X8185224Y-2430897D01*
G01X8047637Y-2573444D02*
G01X7967637Y-2573444D01*
G01X7936654Y-2542461D02*
G01X7936654Y-2462464D01*
G01X8047637Y-2431484D02*
G01X7967637Y-2431484D01*
G01X7936649Y-2542461D02*
G03X7967632Y-2573444I30983J0D01*
G01X7967632Y-2431478D02*
G03X7936649Y-2462464I0J-30983D01*
G01X8185219Y-2572863D02*
G03X8216202Y-2541877I0J30983D01*
G01X8216202Y-2461880D02*
G03X8185219Y-2430897I-30983J0D01*
G01X8105219Y-3106257D02*
G01X8185216Y-3106257D01*
G01X8049174Y-3106303D02*
G01X7969176Y-3106303D01*
G01X8105219Y-2964289D02*
G01X8185216Y-2964289D01*
G01X8049174Y-2964337D02*
G01X7969176Y-2964337D01*
G01X8216191Y-3075275D02*
G01X8216191Y-2995270D01*
G01X7938199Y-2995323D02*
G01X7938199Y-3075325D01*
G01X7969181Y-2964337D02*
G03X7938199Y-2995323I0J-30983D01*
G01X7938199Y-3075320D02*
G03X7969181Y-3106303I30983J0D01*
G01X8185211Y-3106257D02*
G03X8216191Y-3075275I-3J30983D01*
G01X8216191Y-2995277D02*
G03X8185211Y-2964289I-30983J5D01*
G01X8317802Y-4078577D02*
G01X8317802Y-3998575D01*
G01X8206826Y-4109563D02*
G01X8286824Y-4109563D01*
G01X8206826Y-3967597D02*
G01X8286824Y-3967597D01*
G01X8149237Y-4110144D02*
G01X8069237Y-4110144D01*
G01X8038254Y-4079161D02*
G01X8038254Y-3999164D01*
G01X8149237Y-3968184D02*
G01X8069237Y-3968184D01*
G01X8038249Y-4079161D02*
G03X8069232Y-4110144I30983J0D01*
G01X8069232Y-3968178D02*
G03X8038249Y-3999164I0J-30983D01*
G01X8286819Y-4109563D02*
G03X8317802Y-4078577I0J30983D01*
G01X8317802Y-3998580D02*
G03X8286819Y-3967597I-30983J0D01*
G01X8204899Y-4976523D02*
G01X8204899Y-5056525D01*
G01X8315874Y-4945537D02*
G01X8235876Y-4945537D01*
G01X8315874Y-5087503D02*
G01X8235876Y-5087503D01*
G01X8373463Y-4944956D02*
G01X8453463Y-4944956D01*
G01X8484446Y-4975939D02*
G01X8484446Y-5055936D01*
G01X8373463Y-5086916D02*
G01X8453463Y-5086916D01*
G01X8484451Y-4975939D02*
G03X8453468Y-4944956I-30983J0D01*
G01X8453468Y-5086921D02*
G03X8484451Y-5055936I0J30983D01*
G01X8235881Y-4945537D02*
G03X8204899Y-4976523I0J-30983D01*
G01X8204899Y-5056520D02*
G03X8235881Y-5087503I30983J0D01*
G54D10*
G01X8341566Y-4725678D02*
G01X8341566Y-4900922D01*
G01X8549617Y-4725678D02*
G01X8214383Y-4725678D01*
G54D11*
G01X8132001Y-5013300D02*
G01X8132001Y-4913300D01*
G01X8082001Y-4963300D02*
G01X8182000Y-4963300D01*
G54D10*
G01X8549617Y-4900922D02*
G01X8214383Y-4900922D01*
G36*
G01X8222000Y-4718060D02*
G01X8222000Y-4733260D01*
G01X8176280Y-4733260D01*
G01X8176280Y-4718060D01*
G01X8222000Y-4718060D01*
G37*
G36*
G01X8222000Y-4908540D02*
G01X8222000Y-4893340D01*
G01X8176280Y-4893340D01*
G01X8176280Y-4908540D01*
G01X8222000Y-4908540D01*
G37*
G01X8130334Y-4354822D02*
G01X8130334Y-4179578D01*
G01X7922283Y-4354822D02*
G01X8257517Y-4354822D01*
G54D11*
G01X8339900Y-4067200D02*
G01X8339900Y-4167200D01*
G01X8389899Y-4117200D02*
G01X8289900Y-4117200D01*
G54D10*
G01X7922283Y-4179578D02*
G01X8257517Y-4179578D01*
G36*
G01X8249900Y-4362440D02*
G01X8249900Y-4347240D01*
G01X8295620Y-4347240D01*
G01X8295620Y-4362440D01*
G01X8249900Y-4362440D01*
G37*
G36*
G01X8249900Y-4171960D02*
G01X8249900Y-4187160D01*
G01X8295620Y-4187160D01*
G01X8295620Y-4171960D01*
G01X8249900Y-4171960D01*
G37*
G01X8028734Y-2386322D02*
G01X8028734Y-2211078D01*
G01X7820683Y-2386322D02*
G01X8155917Y-2386322D01*
G54D11*
G01X8238300Y-2098700D02*
G01X8238300Y-2198700D01*
G01X8288299Y-2148700D02*
G01X8188300Y-2148700D01*
G54D10*
G01X7820683Y-2211078D02*
G01X8155917Y-2211078D01*
G36*
G01X8148300Y-2393940D02*
G01X8148300Y-2378740D01*
G01X8194020Y-2378740D01*
G01X8194020Y-2393940D01*
G01X8148300Y-2393940D01*
G37*
G36*
G01X8148300Y-2203460D02*
G01X8148300Y-2218660D01*
G01X8194020Y-2218660D01*
G01X8194020Y-2203460D01*
G01X8148300Y-2203460D01*
G37*
G54D11*
G01X6970423Y-3949001D02*
G01X7050425Y-3949001D01*
G01X6939437Y-3838026D02*
G01X6939437Y-3918024D01*
G01X7081403Y-3838026D02*
G01X7081403Y-3918024D01*
G01X6938856Y-3780437D02*
G01X6938856Y-3700437D01*
G01X6969839Y-3669454D02*
G01X7049836Y-3669454D01*
G01X7080816Y-3780437D02*
G01X7080816Y-3700437D01*
G01X6969839Y-3669449D02*
G03X6938856Y-3700432I0J-30983D01*
G01X7080822Y-3700432D02*
G03X7049836Y-3669449I-30983J0D01*
G01X6939437Y-3918019D02*
G03X6970423Y-3949001I30983J0D01*
G01X7050420Y-3949001D02*
G03X7081403Y-3918019I0J30983D01*
G54D12*
G01X8196580Y-2772410D02*
G01X7881620Y-2772410D01*
G01X8199120Y-2612390D02*
G01X7879080Y-2612390D01*
G01X8071449Y-2772410D02*
G01X8071076Y-2612390D01*
G01X6714490Y-3929380D02*
G01X6714490Y-3614420D01*
G01X6874510Y-3931920D02*
G01X6874510Y-3611880D01*
G01X6714490Y-3804249D02*
G01X6874510Y-3803876D01*
G54D11*
G01X6233823Y-5092001D02*
G01X6313825Y-5092001D01*
G01X6202837Y-4981026D02*
G01X6202837Y-5061024D01*
G01X6344803Y-4981026D02*
G01X6344803Y-5061024D01*
G01X6202256Y-4923437D02*
G01X6202256Y-4843437D01*
G01X6233239Y-4812454D02*
G01X6313236Y-4812454D01*
G01X6344216Y-4923437D02*
G01X6344216Y-4843437D01*
G01X6233239Y-4812449D02*
G03X6202256Y-4843432I0J-30983D01*
G01X6344222Y-4843432D02*
G03X6313236Y-4812449I-30983J0D01*
G01X6202837Y-5061019D02*
G03X6233823Y-5092001I30983J0D01*
G01X6313820Y-5092001D02*
G03X6344803Y-5061019I0J30983D01*
G01X5408323Y-4901501D02*
G01X5488325Y-4901501D01*
G01X5377337Y-4790526D02*
G01X5377337Y-4870524D01*
G01X5519303Y-4790526D02*
G01X5519303Y-4870524D01*
G01X5376756Y-4732937D02*
G01X5376756Y-4652937D01*
G01X5407739Y-4621954D02*
G01X5487736Y-4621954D01*
G01X5518716Y-4732937D02*
G01X5518716Y-4652937D01*
G01X5407739Y-4621949D02*
G03X5376756Y-4652932I0J-30983D01*
G01X5518722Y-4652932D02*
G03X5487736Y-4621949I-30983J0D01*
G01X5377337Y-4870519D02*
G03X5408323Y-4901501I30983J0D01*
G01X5488320Y-4901501D02*
G03X5519303Y-4870519I0J30983D01*
G01X1209119Y-4706457D02*
G01X1289116Y-4706457D01*
G01X1153074Y-4706503D02*
G01X1073076Y-4706503D01*
G01X1209119Y-4564489D02*
G01X1289116Y-4564489D01*
G01X1153074Y-4564537D02*
G01X1073076Y-4564537D01*
G01X1320091Y-4675475D02*
G01X1320091Y-4595470D01*
G01X1042099Y-4595523D02*
G01X1042099Y-4675525D01*
G01X1073081Y-4564537D02*
G03X1042099Y-4595523I0J-30983D01*
G01X1042099Y-4675520D02*
G03X1073081Y-4706503I30983J0D01*
G01X1289111Y-4706457D02*
G03X1320091Y-4675475I-3J30983D01*
G01X1320091Y-4595477D02*
G03X1289111Y-4564489I-30983J5D01*
G01X2718651Y-4535236D02*
G01X2718651Y-4455234D01*
G01X2607676Y-4566221D02*
G01X2687673Y-4566221D01*
G01X2607676Y-4424256D02*
G01X2687673Y-4424256D01*
G01X2550086Y-4566803D02*
G01X2470087Y-4566803D01*
G01X2439104Y-4535820D02*
G01X2439104Y-4455823D01*
G01X2550086Y-4424843D02*
G01X2470087Y-4424843D01*
G01X2439099Y-4535820D02*
G03X2470081Y-4566803I30983J0D01*
G01X2470081Y-4424837D02*
G03X2439099Y-4455823I0J-30983D01*
G01X2687668Y-4566221D02*
G03X2718651Y-4535236I0J30983D01*
G01X2718651Y-4455239D02*
G03X2687668Y-4424256I-30983J0D01*
G01X2400999Y-3757323D02*
G01X2400999Y-3837325D01*
G01X2511974Y-3726337D02*
G01X2431976Y-3726337D01*
G01X2511974Y-3868303D02*
G01X2431976Y-3868303D01*
G01X2569563Y-3725756D02*
G01X2649563Y-3725756D01*
G01X2680546Y-3756739D02*
G01X2680546Y-3836736D01*
G01X2569563Y-3867716D02*
G01X2649563Y-3867716D01*
G01X2680551Y-3756739D02*
G03X2649568Y-3725756I-30983J0D01*
G01X2649568Y-3867721D02*
G03X2680551Y-3836736I0J30983D01*
G01X2431981Y-3726337D02*
G03X2400999Y-3757323I0J-30983D01*
G01X2400999Y-3837320D02*
G03X2431981Y-3868303I30983J0D01*
G01X2437549Y-3211764D02*
G01X2437549Y-3291766D01*
G01X2548524Y-3180778D02*
G01X2468527Y-3180778D01*
G01X2548524Y-3322744D02*
G01X2468527Y-3322744D01*
G01X2606114Y-3180197D02*
G01X2686114Y-3180197D01*
G01X2717096Y-3211180D02*
G01X2717096Y-3291177D01*
G01X2606114Y-3322157D02*
G01X2686114Y-3322157D01*
G01X2717102Y-3211180D02*
G03X2686119Y-3180197I-30983J0D01*
G01X2686119Y-3322163D02*
G03X2717102Y-3291177I0J30983D01*
G01X2468532Y-3180778D02*
G03X2437549Y-3211764I0J-30983D01*
G01X2437549Y-3291761D02*
G03X2468532Y-3322744I30983J0D01*
G01X1853804Y-1594447D02*
G01X1553804Y-1594447D01*
G01X1852468Y-1782415D02*
G01X1552468Y-1782415D01*
G01X1778000Y-1689100D02*
G01X1625600Y-1689100D01*
G01X1752600Y-1638300D02*
G01X1752600Y-1739900D01*
G01X1651000Y-1729740D02*
G01X1752600Y-1689100D01*
G01X1651000Y-1648460D02*
G01X1651000Y-1729740D01*
G01X1752600Y-1689100D02*
G01X1651000Y-1648460D01*
G54D10*
G01X809066Y-5370017D02*
G01X809066Y-5094773D01*
G01X994313Y-5370017D02*
G01X994313Y-5094773D01*
G01X994313Y-5094773D02*
G01X975009Y-5094773D01*
G01X809066Y-5094773D02*
G01X828370Y-5094773D01*
G01X989312Y-5324074D02*
G01X814067Y-5324074D01*
G36*
G01X1001931Y-5362395D02*
G01X969932Y-5362395D01*
G01X969932Y-5392875D01*
G01X1001931Y-5392875D01*
G01X1001931Y-5362395D01*
G37*
G36*
G01X801449Y-5362395D02*
G01X833448Y-5362395D01*
G01X833448Y-5392875D01*
G01X801449Y-5392875D01*
G01X801449Y-5362395D01*
G37*
G01X765734Y-5094783D02*
G01X765734Y-5370027D01*
G01X580487Y-5094783D02*
G01X580487Y-5370027D01*
G01X580487Y-5370027D02*
G01X599791Y-5370027D01*
G01X765734Y-5370027D02*
G01X746430Y-5370027D01*
G01X585488Y-5140726D02*
G01X760733Y-5140726D01*
G36*
G01X572869Y-5102405D02*
G01X604868Y-5102405D01*
G01X604868Y-5071925D01*
G01X572869Y-5071925D01*
G01X572869Y-5102405D01*
G37*
G36*
G01X773351Y-5102405D02*
G01X741352Y-5102405D01*
G01X741352Y-5071925D01*
G01X773351Y-5071925D01*
G01X773351Y-5102405D01*
G37*
G01X580466Y-4862017D02*
G01X580466Y-4586773D01*
G01X765713Y-4862017D02*
G01X765713Y-4586773D01*
G01X765713Y-4586773D02*
G01X746409Y-4586773D01*
G01X580466Y-4586773D02*
G01X599770Y-4586773D01*
G01X760712Y-4816074D02*
G01X585467Y-4816074D01*
G36*
G01X773331Y-4854395D02*
G01X741332Y-4854395D01*
G01X741332Y-4884875D01*
G01X773331Y-4884875D01*
G01X773331Y-4854395D01*
G37*
G36*
G01X572849Y-4854395D02*
G01X604848Y-4854395D01*
G01X604848Y-4884875D01*
G01X572849Y-4884875D01*
G01X572849Y-4854395D01*
G37*
G01X994334Y-4586783D02*
G01X994334Y-4862027D01*
G01X809087Y-4586783D02*
G01X809087Y-4862027D01*
G01X809087Y-4862027D02*
G01X828391Y-4862027D01*
G01X994334Y-4862027D02*
G01X975030Y-4862027D01*
G01X814088Y-4632726D02*
G01X989333Y-4632726D01*
G36*
G01X801469Y-4594405D02*
G01X833468Y-4594405D01*
G01X833468Y-4563925D01*
G01X801469Y-4563925D01*
G01X801469Y-4594405D01*
G37*
G36*
G01X1001951Y-4594405D02*
G01X969952Y-4594405D01*
G01X969952Y-4563925D01*
G01X1001951Y-4563925D01*
G01X1001951Y-4594405D01*
G37*
G01X5342179Y-3075960D02*
G01X5246291Y-3075960D01*
G01X5246291Y-3075960D02*
G01X5246291Y-2943840D01*
G01X5246291Y-2943840D02*
G01X5342179Y-2943840D01*
G01X5427421Y-3075960D02*
G01X5523309Y-3075960D01*
G01X5523309Y-3075960D02*
G01X5523309Y-2943840D01*
G01X5523309Y-2943840D02*
G01X5427421Y-2943840D01*
G01X4531340Y-2192579D02*
G01X4531340Y-2096691D01*
G01X4531340Y-2096691D02*
G01X4663460Y-2096691D01*
G01X4663460Y-2096691D02*
G01X4663460Y-2192579D01*
G01X4531340Y-2277821D02*
G01X4531340Y-2373709D01*
G01X4531340Y-2373709D02*
G01X4663460Y-2373709D01*
G01X4663460Y-2373709D02*
G01X4663460Y-2277821D01*
G01X5783021Y-5712440D02*
G01X5878909Y-5712440D01*
G01X5878909Y-5712440D02*
G01X5878909Y-5844560D01*
G01X5878909Y-5844560D02*
G01X5783021Y-5844560D01*
G01X5697779Y-5712440D02*
G01X5601891Y-5712440D01*
G01X5601891Y-5712440D02*
G01X5601891Y-5844560D01*
G01X5601891Y-5844560D02*
G01X5697779Y-5844560D01*
G01X739160Y-5821121D02*
G01X739160Y-5917009D01*
G01X739160Y-5917009D02*
G01X607040Y-5917009D01*
G01X607040Y-5917009D02*
G01X607040Y-5821121D01*
G01X739160Y-5735879D02*
G01X739160Y-5639991D01*
G01X739160Y-5639991D02*
G01X607040Y-5639991D01*
G01X607040Y-5639991D02*
G01X607040Y-5735879D01*
G01X3319739Y-2438220D02*
G01X3319739Y-2289721D01*
G01X3538261Y-2289721D02*
G01X3538261Y-2438220D01*
G01X3523021Y-2453460D02*
G01X3334979Y-2453460D01*
G01X3319739Y-1955980D02*
G01X3319739Y-2104479D01*
G01X3538261Y-2104479D02*
G01X3538261Y-1955980D01*
G01X3523021Y-1940740D02*
G01X3334979Y-1940740D01*
G01X3538261Y-2438220D02*
G02X3523021Y-2453460I-15240J0D01*
G01X3334979Y-2453460D02*
G02X3319739Y-2438220I0J15240D01*
G01X3538261Y-1955980D02*
G03X3523021Y-1940740I-15240J0D01*
G01X3334979Y-1940740D02*
G03X3319739Y-1955980I0J-15240D01*
G01X3212920Y-2090461D02*
G01X3064421Y-2090461D01*
G01X3064421Y-1871939D02*
G01X3212920Y-1871939D01*
G01X3228160Y-1887179D02*
G01X3228160Y-2075221D01*
G01X2730680Y-2090461D02*
G01X2879179Y-2090461D01*
G01X2879179Y-1871939D02*
G01X2730680Y-1871939D01*
G01X2715440Y-1887179D02*
G01X2715440Y-2075221D01*
G01X3212920Y-1871939D02*
G02X3228160Y-1887179I0J-15240D01*
G01X3228160Y-2075221D02*
G02X3212920Y-2090461I-15240J0D01*
G01X2730680Y-1871939D02*
G03X2715440Y-1887179I0J-15240D01*
G01X2715440Y-2075221D02*
G03X2730680Y-2090461I15240J0D01*
G01X4229280Y-5453339D02*
G01X4377779Y-5453339D01*
G01X4377779Y-5671861D02*
G01X4229280Y-5671861D01*
G01X4214040Y-5656621D02*
G01X4214040Y-5468579D01*
G01X4711520Y-5453339D02*
G01X4563021Y-5453339D01*
G01X4563021Y-5671861D02*
G01X4711520Y-5671861D01*
G01X4726760Y-5656621D02*
G01X4726760Y-5468579D01*
G01X4229280Y-5671861D02*
G02X4214040Y-5656621I0J15240D01*
G01X4214040Y-5468579D02*
G02X4229280Y-5453339I15240J0D01*
G01X4711520Y-5671861D02*
G03X4726760Y-5656621I0J15240D01*
G01X4726760Y-5468579D02*
G03X4711520Y-5453339I-15240J0D01*
G54D11*
G01X4664926Y-5016505D02*
G01X4779226Y-5016505D01*
G01X4779226Y-5016505D02*
G01X4791926Y-5016505D01*
G01X4791926Y-5016505D02*
G01X4817326Y-5041905D01*
G01X4817326Y-5041905D02*
G01X4817326Y-5181605D01*
G01X4817326Y-5181605D02*
G01X4817326Y-5194305D01*
G01X4817326Y-5194305D02*
G01X4791926Y-5219705D01*
G01X4791926Y-5219705D02*
G01X4664926Y-5219705D01*
G01X4588726Y-5219705D02*
G01X4474426Y-5219705D01*
G01X4474426Y-5219705D02*
G01X4461726Y-5219705D01*
G01X4461726Y-5219705D02*
G01X4436326Y-5194305D01*
G01X4436326Y-5194305D02*
G01X4436326Y-5054605D01*
G01X4436326Y-5054605D02*
G01X4436326Y-5041905D01*
G01X4436326Y-5041905D02*
G01X4461726Y-5016505D01*
G01X4461726Y-5016505D02*
G01X4588726Y-5016505D01*
G54D10*
G01X4338879Y-5412760D02*
G01X4242991Y-5412760D01*
G01X4242991Y-5412760D02*
G01X4242991Y-5280640D01*
G01X4242991Y-5280640D02*
G01X4338879Y-5280640D01*
G01X4424121Y-5412760D02*
G01X4520009Y-5412760D01*
G01X4520009Y-5412760D02*
G01X4520009Y-5280640D01*
G01X4520009Y-5280640D02*
G01X4424121Y-5280640D01*
G01X7618720Y-1563939D02*
G01X7762212Y-1563939D01*
G01X7762212Y-1563939D02*
G01X7762212Y-1890461D01*
G01X7762212Y-1890461D02*
G01X7618720Y-1890461D01*
G01X7443480Y-1563939D02*
G01X7299988Y-1563939D01*
G01X7299988Y-1563939D02*
G01X7299988Y-1890461D01*
G01X7299988Y-1890461D02*
G01X7443480Y-1890461D01*
G01X1801561Y-1370320D02*
G01X1801561Y-1513812D01*
G01X1801561Y-1513812D02*
G01X1475039Y-1513812D01*
G01X1475039Y-1513812D02*
G01X1475039Y-1370320D01*
G01X1801561Y-1195080D02*
G01X1801561Y-1051588D01*
G01X1801561Y-1051588D02*
G01X1475039Y-1051588D01*
G01X1475039Y-1051588D02*
G01X1475039Y-1195080D01*
G01X9637840Y-2568720D02*
G01X9637840Y-2427719D01*
G01X9818561Y-2427719D02*
G01X9818561Y-2568720D01*
G01X9803321Y-2583960D02*
G01X9653080Y-2583960D01*
G01X9637840Y-2206480D02*
G01X9637840Y-2347481D01*
G01X9818561Y-2347481D02*
G01X9818561Y-2206480D01*
G01X9803321Y-2191240D02*
G01X9653080Y-2191240D01*
G01X9818561Y-2568720D02*
G02X9803321Y-2583960I-15240J0D01*
G01X9653080Y-2583960D02*
G02X9637840Y-2568720I0J15240D01*
G01X9818561Y-2206480D02*
G03X9803321Y-2191240I-15240J0D01*
G01X9653080Y-2191240D02*
G03X9637840Y-2206480I0J-15240D01*
G01X905020Y-2033460D02*
G01X764019Y-2033460D01*
G01X764019Y-1852739D02*
G01X905020Y-1852739D01*
G01X920260Y-1867979D02*
G01X920260Y-2018220D01*
G01X542780Y-2033460D02*
G01X683781Y-2033460D01*
G01X683781Y-1852739D02*
G01X542780Y-1852739D01*
G01X527540Y-1867979D02*
G01X527540Y-2018220D01*
G01X905020Y-1852739D02*
G02X920260Y-1867979I0J-15240D01*
G01X920260Y-2018220D02*
G02X905020Y-2033460I-15240J0D01*
G01X542780Y-1852739D02*
G03X527540Y-1867979I0J-15240D01*
G01X527540Y-2018220D02*
G03X542780Y-2033460I15240J0D01*
G01X1604721Y-2727940D02*
G01X1700609Y-2727940D01*
G01X1700609Y-2727940D02*
G01X1700609Y-2860060D01*
G01X1700609Y-2860060D02*
G01X1604721Y-2860060D01*
G01X1519479Y-2727940D02*
G01X1423591Y-2727940D01*
G01X1423591Y-2727940D02*
G01X1423591Y-2860060D01*
G01X1423591Y-2860060D02*
G01X1519479Y-2860060D01*
G01X9065466Y-4547878D02*
G01X9065466Y-4723122D01*
G01X9273517Y-4547878D02*
G01X8938283Y-4547878D01*
G54D11*
G01X8855901Y-4835500D02*
G01X8855901Y-4735500D01*
G01X8805901Y-4785500D02*
G01X8905900Y-4785500D01*
G54D10*
G01X9273517Y-4723122D02*
G01X8938283Y-4723122D01*
G36*
G01X8945900Y-4540260D02*
G01X8945900Y-4555460D01*
G01X8900180Y-4555460D01*
G01X8900180Y-4540260D01*
G01X8945900Y-4540260D01*
G37*
G36*
G01X8945900Y-4730740D02*
G01X8945900Y-4715540D01*
G01X8900180Y-4715540D01*
G01X8900180Y-4730740D01*
G01X8945900Y-4730740D01*
G37*
G54D11*
G01X8865299Y-4379623D02*
G01X8865299Y-4459625D01*
G01X8976274Y-4348637D02*
G01X8896276Y-4348637D01*
G01X8976274Y-4490603D02*
G01X8896276Y-4490603D01*
G01X9033863Y-4348056D02*
G01X9113863Y-4348056D01*
G01X9144846Y-4379039D02*
G01X9144846Y-4459036D01*
G01X9033863Y-4490016D02*
G01X9113863Y-4490016D01*
G01X9144851Y-4379039D02*
G03X9113868Y-4348056I-30983J0D01*
G01X9113868Y-4490021D02*
G03X9144851Y-4459036I0J30983D01*
G01X8896281Y-4348637D02*
G03X8865299Y-4379623I0J-30983D01*
G01X8865299Y-4459620D02*
G03X8896281Y-4490603I30983J0D01*
G54D10*
G01X9413034Y-5993122D02*
G01X9413034Y-5817878D01*
G01X9204983Y-5993122D02*
G01X9540217Y-5993122D01*
G54D11*
G01X9622600Y-5705500D02*
G01X9622600Y-5805500D01*
G01X9672599Y-5755500D02*
G01X9572600Y-5755500D01*
G54D10*
G01X9204983Y-5817878D02*
G01X9540217Y-5817878D01*
G36*
G01X9532600Y-6000740D02*
G01X9532600Y-5985540D01*
G01X9578320Y-5985540D01*
G01X9578320Y-6000740D01*
G01X9532600Y-6000740D01*
G37*
G36*
G01X9532600Y-5810260D02*
G01X9532600Y-5825460D01*
G01X9578320Y-5825460D01*
G01X9578320Y-5810260D01*
G01X9532600Y-5810260D01*
G37*
G54D11*
G01X9575102Y-5704177D02*
G01X9575102Y-5624175D01*
G01X9464126Y-5735163D02*
G01X9544124Y-5735163D01*
G01X9464126Y-5593197D02*
G01X9544124Y-5593197D01*
G01X9406537Y-5735744D02*
G01X9326537Y-5735744D01*
G01X9295554Y-5704761D02*
G01X9295554Y-5624764D01*
G01X9406537Y-5593784D02*
G01X9326537Y-5593784D01*
G01X9295549Y-5704761D02*
G03X9326532Y-5735744I30983J0D01*
G01X9326532Y-5593778D02*
G03X9295549Y-5624764I0J-30983D01*
G01X9544119Y-5735163D02*
G03X9575102Y-5704177I0J30983D01*
G01X9575102Y-5624180D02*
G03X9544119Y-5593197I-30983J0D01*

M02*

