G04 Layer: DrillDrawingLayer*
G04 EasyEDA Pro v2.2.42.2, 2025-09-26 15:24:21*
G04 Gerber Generator version 0.3*
G04 Scale: 100 percent, Rotated: No, Reflected: No*
G04 Dimensions in millimeters*
G04 Leading zeros omitted, absolute positions, 4 integers and 5 decimals*
G04 Generated by one-click*
%FSLAX45Y45*%
%MOMM*%
%AMIconRect*4,1,4,0.2,-0.2,-0.2,-0.2,-0.2,0.2,0.2,0.2,0.2,-0.2,0*4,0,4,0.166667,-0.166667,0.166667,0.166667,-0.166667,0.166667,-0.166667,-0.166667,0.166667,-0.166667,0*%
%AMIconTriangle*4,1,3,-0.242567,0.171767,0.242567,0.171767,0,-0.2706,-0.242567,0.171767,0*4,0,3,-0.189767,0.1386,0,-0.1953,0.190167,0.1386,-0.189767,0.1386,0*%
%AMIconStar6*4,1,12,0.0862,0.1492,0.213233,0.123367,0.172367,0,0.213233,-0.1229,0.0862,-0.148733,0,-0.245767,-0.085767,-0.148733,-0.213267,-0.1229,-0.171933,0,-0.213267,0.1229,-0.085767,0.1492,0,0.245767,0.0862,0.1492,0*4,0,12,-0.000333,0.195333,-0.064333,0.122667,-0.169667,0.097667,-0.138333,-0.005333,-0.169667,-0.098,-0.064333,-0.122667,-0.000333,-0.195667,0.064333,-0.122667,0.169667,-0.098,0.138667,0.005,0.169667,0.098,0.064333,0.122333,-0.000333,0.195333,0*%
%AMIconStar4*4,1,8,-0.222667,0.222667,0,0.144667,0.222667,0.222667,0.144667,0,0.222667,-0.222667,0,-0.144667,-0.217433,-0.222667,-0.144667,0,-0.222667,0.222667,0*4,0,8,0.166667,-0.166667,0.108,0,0.166667,0.166667,0,0.108,-0.166667,0.166667,-0.108,0,-0.166667,-0.166667,0,-0.108,0.166667,-0.166667,0*%
%AMIconPlus*4,1,12,0.124,-0.2,-0.124,-0.2,-0.124,-0.124,-0.2,-0.124,-0.2,0.124,-0.124,0.124,-0.124,0.2,0.124,0.2,0.124,0.124,0.2,0.124,0.2,-0.124,0.124,-0.124,0.124,-0.2,0*4,0,12,0.090667,-0.166667,0.090667,-0.090667,0.166667,-0.090667,0.166667,0.090667,0.090667,0.090667,0.090667,0.166667,-0.090667,0.166667,-0.090667,0.090667,-0.166667,0.090667,-0.166667,-0.090667,-0.090667,-0.090667,-0.090667,-0.166667,0.090667,-0.166667,0*%
%ADD10IconRect*%
%ADD11C,0.44X0.373333*%
%ADD12IconTriangle*%
%ADD13IconStar6*%
%ADD14IconStar4*%
%ADD15IconPlus*%
G75*


G04 Drill Drawing Start*
G54D10*
G01X6511392Y-4330700D03*
G01X7001408Y-4330700D03*
G54D11*
G01X2099501Y-2781300D03*
G01X2349500Y-2781300D03*
G01X2599500Y-2781300D03*
G01X7763701Y-571500D03*
G01X8013700Y-571500D03*
G01X8263700Y-571500D03*
G54D12*
G01X1143000Y-6053699D03*
G01X1143000Y-4893701D03*
G01X4874976Y-1003118D03*
G01X4874976Y-503119D03*
G01X5124978Y-753118D03*
G01X5374977Y-1003118D03*
G01X5374977Y-503119D03*
G01X5624977Y-753118D03*
G54D13*
G01X1130300Y-876300D03*
G01X1638300Y-876300D03*
G01X2146300Y-876300D03*
G01X2400300Y-876300D03*
G01X7146280Y-2239340D03*
G01X7146280Y-1731340D03*
G01X7146280Y-1223340D03*
G01X7146280Y-969340D03*
G54D14*
G01X406400Y-4887498D03*
G01X406400Y-5852698D03*
G01X406400Y-5602707D03*
G01X406400Y-4637507D03*
G01X1529406Y-4646386D03*
G01X1529414Y-5154386D03*
G01X1529414Y-4900384D03*
G01X3549294Y-5842000D03*
G01X3773805Y-533400D03*
G01X3799294Y-5842000D03*
G01X4023995Y-533400D03*
G01X4049293Y-5842000D03*
G01X4299293Y-5842000D03*
G01X4864100Y-1625600D03*
G01X5118100Y-1625600D03*
G01X5372100Y-1625600D03*
G01X5740400Y-4114800D03*
G01X5740400Y-3860800D03*
G01X5740400Y-3606800D03*
G01X5740400Y-3352800D03*
G01X9702800Y-4667606D03*
G01X9702800Y-4417606D03*
G01X9702800Y-4167607D03*
G01X9702800Y-3917607D03*
G54D15*
G01X495300Y-1943100D03*
G01X507987Y-3810000D03*
G01X673100Y-3009603D03*
G01X817695Y-2082800D03*
G01X825500Y-5699768D03*
G01X1016000Y-2641600D03*
G01X1116860Y-2133600D03*
G01X1117600Y-2463800D03*
G01X1320800Y-3804158D03*
G01X1487297Y-2705100D03*
G01X1549400Y-1803400D03*
G01X1778000Y-5380990D03*
G01X1841500Y-1422400D03*
G01X1923898Y-1600200D03*
G01X2057400Y-5778500D03*
G01X2057400Y-5549900D03*
G01X2146300Y-1714500D03*
G01X2184400Y-4889500D03*
G01X2222500Y-3987800D03*
G01X2374900Y-3797300D03*
G01X2400300Y-3251741D03*
G01X2413000Y-4495259D03*
G01X2610002Y-3911600D03*
G01X2730500Y-3251741D03*
G01X2743200Y-4495259D03*
G01X2794000Y-2159000D03*
G01X2959100Y-342900D03*
G01X3124200Y-2138230D03*
G01X3327400Y-4533900D03*
G01X3429000Y-3562502D03*
G01X3429000Y-3416300D03*
G01X3441700Y-4038600D03*
G01X3441700Y-1905000D03*
G01X3467100Y-4330700D03*
G01X3492500Y-1513563D03*
G01X3568700Y-2349500D03*
G01X3569564Y-5054600D03*
G01X3683000Y-3962400D03*
G01X4089400Y-3530600D03*
G01X4089400Y-3276600D03*
G01X4114800Y-3035300D03*
G01X4114800Y-2895600D03*
G01X4179900Y-2019300D03*
G01X4279900Y-5054600D03*
G01X4379900Y-2237262D03*
G01X4507306Y-2324100D03*
G01X4533900Y-1917700D03*
G01X4546600Y-5346700D03*
G01X4597400Y-3035300D03*
G01X4635500Y-5715000D03*
G01X4711700Y-3568700D03*
G01X4724400Y-5003800D03*
G01X4775200Y-2857500D03*
G01X4787900Y-4165600D03*
G01X4800600Y-4610100D03*
G01X4902200Y-2209800D03*
G01X4921402Y-4165600D03*
G01X4978400Y-2338197D03*
G01X5029200Y-3632200D03*
G01X5207000Y-5003800D03*
G01X5232400Y-3012694D03*
G01X5245100Y-2832100D03*
G01X5283200Y-5105400D03*
G01X5308600Y-5918200D03*
G01X5334000Y-4692498D03*
G01X5448300Y-4914900D03*
G01X5460136Y-3098800D03*
G01X5473700Y-2514600D03*
G01X5473700Y-1949958D03*
G01X5721502Y-2400300D03*
G01X6001258Y-5981700D03*
G01X6146800Y-5156200D03*
G01X6146800Y-5029200D03*
G01X6197600Y-5778500D03*
G01X6210300Y-6032500D03*
G01X6248604Y-1394103D03*
G01X6368898Y-4635500D03*
G01X6388100Y-4927600D03*
G01X7086600Y-3880002D03*
G01X7112000Y-3733800D03*
G01X7393417Y-5651500D03*
G01X7393417Y-5461000D03*
G01X7480300Y-4279900D03*
G01X7480300Y-3556000D03*
G01X7493000Y-3708400D03*
G01X7543800Y-5626100D03*
G01X7543800Y-5384800D03*
G01X7556500Y-6032500D03*
G01X7663790Y-4222090D03*
G01X7823200Y-1854200D03*
G01X7861300Y-5880100D03*
G01X7899400Y-2501900D03*
G01X7912100Y-3009900D03*
G01X7948616Y-4065584D03*
G01X8115300Y-1778000D03*
G01X8147202Y-2933700D03*
G01X8153400Y-3606800D03*
G01X8213369Y-4955972D03*
G01X8242300Y-2451100D03*
G01X8248396Y-3911600D03*
G01X8337702Y-1892300D03*
G01X8432800Y-5613400D03*
G01X8445500Y-5168900D03*
G01X8484990Y-4945413D03*
G01X8661400Y-2323803D03*
G01X8724900Y-4205300D03*
G01X8737600Y-1854200D03*
G01X8788400Y-5778500D03*
G01X8788400Y-5067300D03*
G01X8877300Y-622300D03*
G01X8890000Y-2857787D03*
G01X8934298Y-4330700D03*
G01X9118600Y-5192903D03*
G01X9118600Y-4575816D03*
G01X9156700Y-2849695D03*
G01X9283700Y-1346200D03*
G01X9283700Y-1199998D03*
G01X9321800Y-925805D03*
G01X9347200Y-5816600D03*
G01X9512300Y-5778500D03*
G01X9575800Y-5243500D03*
G01X9728200Y-2095500D03*
G01X9729597Y-2654300D03*
G04 Drill Drawing End*

M02*

